<svg xmlns="http://www.w3.org/2000/svg" xmlns:xlink="http://www.w3.org/1999/xlink" width="60.248" height="60.235" viewBox="0 0 60.248 60.235">
  <defs>
    <clipPath id="clip-path">
      <path id="Path_4037" data-name="Path 4037" d="M146.061,64.527A30.124,30.124,0,1,0,176.19,34.413a30.123,30.123,0,0,0-30.129,30.114" transform="translate(-146.061 -34.413)" fill="none"/>
    </clipPath>
    <radialGradient id="radial-gradient" cx="0.5" cy="0.5" r="0.501" gradientTransform="translate(-0.007)" gradientUnits="objectBoundingBox">
      <stop offset="0" stop-color="#fff"/>
      <stop offset="0.321" stop-color="#fcfdfe"/>
      <stop offset="0.473" stop-color="#f5f9fc"/>
      <stop offset="0.59" stop-color="#e8f1f9"/>
      <stop offset="0.688" stop-color="#d5e6f4"/>
      <stop offset="0.775" stop-color="#bed7ee"/>
      <stop offset="0.855" stop-color="#a0c5e6"/>
      <stop offset="0.927" stop-color="#7db0dd"/>
      <stop offset="0.994" stop-color="#5698d3"/>
      <stop offset="1" stop-color="#5296d2"/>
    </radialGradient>
  </defs>
  <g id="footer-logo" transform="translate(165.121 -318.234)">
    <g id="Group_2068" data-name="Group 2068" transform="translate(-165.121 318.234)">
      <g id="Group_2038" data-name="Group 2038" transform="translate(0 0)" clip-path="url(#clip-path)">
        <rect id="Rectangle_102" data-name="Rectangle 102" width="60.248" height="60.236" transform="translate(0 0)" fill="url(#radial-gradient)"/>
      </g>
    </g>
    <g id="Group_2069" data-name="Group 2069" transform="translate(-157.618 325.686)">
      <path id="Path_4038" data-name="Path 4038" d="M160.969,55.725s14.911-6.9,25.577-17.411c0,0-7.688,21.34-22.427,38.283H149.989s16.162-13.022,22.284-21.5a69.862,69.862,0,0,1-11.3.625" transform="translate(-149.989 -38.314)" fill="#e33c0b"/>
      <path id="Path_4039" data-name="Path 4039" d="M165.665,65.239c6.078,2.554,8.836,1.251,10.743-1.337,2.214-2.989-1.736-8.37-8.829-12.026-6.886-3.545-14.2-4.149-16.632-1.436a4.483,4.483,0,0,1,.311-.483c2.833-3.832,12.5-3.15,21.577,1.534,9.094,4.674,14.158,11.579,11.32,15.415s-10.674,4.924-19.405-.325" transform="translate(-149.117 -29.976)" fill="#00267f"/>
      <path id="Path_4040" data-name="Path 4040" d="M166.3,51.153l.023-.048c.071-.181.124-.323.166-.436.053-.159.092-.306.132-.449l.153-.47c.013,0,.021-.011.021-.027a.091.091,0,0,0,.013-.044,4.386,4.386,0,0,1,.245-.955c.191-.569.353-.861.483-.892l-.013-.015c.013-.025.086-.048.208-.09a.662.662,0,0,1,.2-.052l0,.071a2.435,2.435,0,0,1-.113.64c-.086.323-.139.533-.157.623a.091.091,0,0,0-.029.078.341.341,0,0,1-.032.069c-.027.048-.027.084,0,.094-.027.034-.05.065-.067.086l-.013.076c-.008,0-.021,0-.027.011l.027.011-.082.266h.015a.162.162,0,0,0,.153-.107c.046-.08.088-.155.126-.227.1-.117.224-.262.382-.451.082-.09.155-.189.233-.277a1.623,1.623,0,0,1,.4-.5.662.662,0,0,1,.393-.126l.065.015.006.05a.417.417,0,0,1-.052.193c-.055.078-.094.136-.116.172l-.017.008a.6.6,0,0,1-.034.094.186.186,0,0,1-.055.076s0,.006,0,.015l.013,0c-.055.141-.088.246-.113.319a1.271,1.271,0,0,0-.069.3.335.335,0,0,1-.036.143.475.475,0,0,0-.032.124.2.2,0,0,1-.052.105.222.222,0,0,0-.021.067l.011.034.04-.008c.115-.153.275-.361.481-.619.159-.2.321-.407.495-.615h.013l.468-.567c.023-.032.059-.074.1-.117.05-.063.08-.082.1-.074a.588.588,0,0,1,.136-.128.327.327,0,0,1,.174-.057l.013-.025.071-.011.029.071c.01,0,.013.011.021.015a.481.481,0,0,0,.071.008c.017.031.034.042.042.034l-.052.071,0,.034c-.006.023-.029.036-.04.046l-.046.04a.069.069,0,0,1-.027.019v.015a1.313,1.313,0,0,1-.12.105.108.108,0,0,0-.031.059l-.149.147V48.2a.283.283,0,0,1-.2.118l.021.019h.063l-.027.011a.046.046,0,0,0-.032.015.726.726,0,0,1-.092.082l.021.008-.038.067c-.015,0-.055.038-.111.1a.22.22,0,0,0-.078.143h-.034a.22.22,0,0,1-.071.023l.027.032-.027.023c-.05.008-.071.023-.071.052h.017l0-.01a.044.044,0,0,1,.025.01l.01.011-.065.023a.916.916,0,0,1-.086.113l-.067.019.023.042c0,.011-.013.025-.034.044s-.038.046-.038.053-.011.01-.05.015l-.032.036.006.023-.073.069-.031.006a.117.117,0,0,1-.1.094.806.806,0,0,1-.038.088.431.431,0,0,1-.065.09.038.038,0,0,0-.011.027l-.044.04V49.7l-.065.038-.069.128c-.013,0-.025,0-.025.019a.242.242,0,0,0-.031.063h-.025a.383.383,0,0,0-.029.05c-.025.023-.034.042-.038.042l-.019.052a1.776,1.776,0,0,0-.126.159l.021.029-.067.031-.038.076-.023.013v.021h-.055l.008.015.048.013a.141.141,0,0,0-.031.027c-.017.008-.025.031-.025.073l-.04.032-.038.105-.038.017v.063a.217.217,0,0,1-.044.029.016.016,0,0,0,0,.027.472.472,0,0,0-.063.084c-.025.031-.05.048-.061.036a.7.7,0,0,1-.168.143.341.341,0,0,1-.185.05l-.08-.013L167.816,51l.015-.29V50.67c.011-.034.025-.073.036-.1a.266.266,0,0,1,.048-.09l-.034-.044a.375.375,0,0,0,.034-.122.422.422,0,0,0,.019-.1l.025,0c.008-.061.025-.115.034-.17s.021-.1.038-.155l0-.019c-.01-.036-.01-.053,0-.055l.032-.053c-.01-.019-.01-.031.006-.057a.111.111,0,0,0,.017-.048.675.675,0,0,1,.038-.185c.027-.082.042-.132.042-.134a4.171,4.171,0,0,0-.29.351,4.038,4.038,0,0,1-.439.527c0,.008-.011.025-.031.053a.1.1,0,0,1-.04.042c-.01.01-.057.059-.128.145a.4.4,0,0,0-.1.178l-.08.055c-.013.011-.006.019.011.027s.027.019.027.034a.256.256,0,0,1-.044.055c-.008.027-.033.042-.053.061l.029.025c0,.01-.011.013-.052.017l-.01.082-.059.042a.024.024,0,0,0-.029.013V51.1l-.04.025c-.01.006-.017,0-.017-.017l-.013-.023-.05.117-.04,0-.027,0h-.036l-.034.061a.044.044,0,0,1-.05.017.059.059,0,0,1-.031-.008l-.044.042-.046-.008a.154.154,0,0,1-.113.078.185.185,0,0,0-.1,0,.549.549,0,0,1,.023-.128.482.482,0,0,0,.036-.1" transform="translate(-135.196 -29.941)" fill="#dc000c"/>
      <path id="Path_4041" data-name="Path 4041" d="M168.335,50.336l.04-.027v-.034a.5.5,0,0,0,.069-.117.775.775,0,0,1,.082-.132c.027-.057.061-.105.09-.174h.029l.025-.09.034-.008.044-.1a.3.3,0,0,0,.046-.071,2.407,2.407,0,0,1,.262-.474c.336-.512.512-.779.523-.8l.015-.021-.012-.013-.055.01-.084-.01-.067-.057a.512.512,0,0,1,.1-.195,1.217,1.217,0,0,1,.132-.151c.011-.015.011-.029.027-.038h.011a.613.613,0,0,1,.378-.18,3.079,3.079,0,0,1,.592-.055.524.524,0,0,1,.074,0c.027,0,.061,0,.105,0l.155.01a.256.256,0,0,1,.117.034l.032.031s.01,0,.019,0v-.015a.968.968,0,0,1,.124.046.656.656,0,0,1,.117.067v.027h.019c.023,0,.031.011.05.029s.027.027.036.01l.034.052c.011,0,.011,0,.015.011l.011.011a.163.163,0,0,0,.034.067c.031.027.044.038.048.061l-.048.021.036.046.019.011a.086.086,0,0,1-.036.057l.078,0v.023l-.027,0a.111.111,0,0,0-.006.04l.006.008.027-.01a.113.113,0,0,1-.046.042l0,.025-.036.05h.086c-.008,0-.015.013-.015.044s0,.034-.019.034h-.05v.021l.023.011a.28.28,0,0,1,.065-.029.1.1,0,0,1-.088.09c.015.013.01.027,0,.044s-.027.031-.027.034h.027l.1-.055-.034.021,0,.019-.059.042-.031,0-.034.086-.061.048v.042l.057-.01.008.084-.05,0s0,.013-.008.023a.029.029,0,0,1-.029.008l.04.04v.034c0,.05-.019.071-.067.071l.011.042a.172.172,0,0,1-.136.015.018.018,0,0,0-.011.027c.015.013.019.021.019.025l0,.046-.061.027-.036.006.052,0,.042.01c.008-.01.023-.019.034-.034l.019.025-.05.061-.113.01a.087.087,0,0,0-.019.067h.015l.036-.025v.031a.268.268,0,0,1-.078,0l-.065.061v.029l.065.017-.109.032-.034.053c0,.019,0,.025-.023.034l-.074.015v.029l.1.019.05-.034.015-.029-.057.105a.124.124,0,0,1-.04-.011.439.439,0,0,1-.065.067.451.451,0,0,1-.117.042l.015.015.034.01-.063.027-.044.061-.044.011c-.031.038-.038.063-.034.067l-.055,0c.017.023.011.038-.008.038a.273.273,0,0,1-.065,0l-.078.011v.021c.008.01.015,0,.027,0l.023,0a.063.063,0,0,0-.034.061l-.05.011-.01.019c-.015,0-.027.008-.042.008l-.011.034a.12.12,0,0,1-.046.017l-.023,0-.006-.013-.038.071h-.082c0,.034-.034.055-.084.075a.077.077,0,0,0,.034.042l-.057-.011-.055.027v.023h.034l.006.015-.044.013c-.019.019-.027.031-.038.034a.1.1,0,0,1-.063.015.037.037,0,0,0-.011.031.239.239,0,0,0-.088.027.105.105,0,0,0-.048.055l-.023-.008c-.036,0-.055.015-.074.059l-.054,0a1.422,1.422,0,0,1-.248.151.757.757,0,0,1-.262.109.619.619,0,0,1-.244.147,1.173,1.173,0,0,1-.275.084c-.008-.008-.027-.011-.061-.011a1.451,1.451,0,0,1-.157,0c-.027-.01-.08-.031-.151-.05a.437.437,0,0,1-.071-.113.391.391,0,0,1-.046-.105,1.016,1.016,0,0,1,.151-.321.363.363,0,0,0,.063-.16.275.275,0,0,0,.031-.038c.023-.015.029-.027.023-.048m.711.176v.04l.036.013.1-.013.05-.04h.034c.021-.008.059-.027.132-.059s.128-.05.139-.08h.044s.012-.011.012-.036a.451.451,0,0,0,.139-.053l.042-.034.006-.025c.01,0,.034,0,.08-.023l.008,0a.434.434,0,0,1,.109-.113.809.809,0,0,1,.136-.075V49.97a.877.877,0,0,0,.191-.141c.05-.05.105-.109.174-.185.04-.063.09-.117.139-.18s.078-.132.136-.216h.021a.3.3,0,0,1,.031-.138.4.4,0,0,1,.074-.136l-.006-.023.025-.019a.531.531,0,0,1,0-.113,1.591,1.591,0,0,0,.034-.18.4.4,0,0,0-.155-.334.557.557,0,0,0-.372-.134l-.124.021a.049.049,0,0,1,.023.036c-.023,0-.036.015-.046.055a.208.208,0,0,0-.015.088.1.1,0,0,0-.032.113l-.046.011,0,.031-.013,0c-.017,0-.017.011-.008.017l-.042.076v.025l-.046.025-.011.044L170,48.73l-.015.042.027.044-.008.011-.082.011v.015l.013.038.05-.011a.192.192,0,0,0-.057.052.181.181,0,0,0-.036.067l-.027.057h-.031l-.011.027H169.8l-.008.042.021.006.05-.013a.107.107,0,0,1-.086.044v.061h-.019V49.2c0-.008-.008-.019-.019-.019l-.011.027.031.031.008.017-.053.084-.015.015-.048.015-.042.078.034.078h-.092l-.01.011.044.027h.023a.129.129,0,0,1-.057.038.346.346,0,0,1-.078.013l-.015.038.015.023.027-.019h.036v.031l-.017.027-.053,0v.017l-.048.013c0,.01.008.025.017.025l.011.011-.055.031V49.8a.2.2,0,0,0-.082.136l-.046.008v.046a.274.274,0,0,1,.109-.034l.008.006-.046.025a.126.126,0,0,1-.09.086l.008.021-.052.044-.013.032h.042l.015-.023.008.015a.044.044,0,0,0-.008.044l-.048-.013c-.05.023-.076.044-.082.067l0,.031.015-.011.008-.008.057-.019.013-.011-.044.076-.042,0,.019.006v.034l-.027.061-.048-.011-.034.011v.067l-.015.011-.015.027.027,0a.022.022,0,0,0,.019-.008" transform="translate(-133.534 -29.863)" fill="#dc000c"/>
      <path id="Path_4042" data-name="Path 4042" d="M169.853,50.638c.023-.027.038-.073.073-.113a.469.469,0,0,0,.067-.094c.036-.046.052-.069.069-.086.029-.046.046-.073.063-.1l.031-.031.254-.35a.337.337,0,0,1,.046-.032,1.281,1.281,0,0,1,.1-.139c.048-.069.082-.1.105-.105a1.781,1.781,0,0,1,.134-.191c.057-.067.117-.132.17-.2l.094-.12.042-.011.046-.086a.415.415,0,0,0,.048-.019.632.632,0,0,1,.122-.191l.006-.027a.878.878,0,0,0,.136-.132c.048-.05.094-.1.139-.153.139-.141.258-.283.361-.4.034-.034.065-.073.094-.105a1.684,1.684,0,0,0,.143-.193l.01.015a.669.669,0,0,1,.166-.071l.143-.05.05-.027h.036l.011-.013.117-.015.052.019a.161.161,0,0,1-.029.107c.011,0,.019,0,.023.006l.012.01h-.023c-.025.113-.05.229-.078.346a1.117,1.117,0,0,1-.09.334l.027.01c.006,0,.006.01,0,.027l-.053.094.025.067c-.008.027-.013.067-.025.12s-.013.105-.021.147l-.04.053v.138h-.025l.025.061a.218.218,0,0,0-.034.094c0,.036-.01.059-.01.078l.019.084-.04.044a.528.528,0,0,0,.01.053.114.114,0,0,1,.011.046.032.032,0,0,1-.021.034v-.021l-.015.008c0,.034.015.042.042.038,0,.021-.006.082-.019.187s-.023.174-.023.178a.117.117,0,0,0,.008.055l-.061.034,0,.059.052-.006c.021,0,.029.021.013.05a.111.111,0,0,1-.023.04l.048.05c0,.01,0,.017-.017.021s-.031.011-.031.023v.015l.031.034c0,.011-.015.015-.031.011l.01.044a.548.548,0,0,0,.006.1c-.023.031-.034.046-.034.069s.011.019.034.023.025.013.025.036h-.017a.287.287,0,0,1-.008.159.488.488,0,0,1-.057.166l-.069-.011-.021.034c-.015.013-.021.017-.042.01l-.019.069c-.111.055-.214.105-.317.16a.2.2,0,0,1-.138-.155.732.732,0,0,1-.044-.269.669.669,0,0,1,.011-.138c0-.055.013-.088.015-.111a.184.184,0,0,1,.017-.063c0-.027,0-.038-.011-.046v-.078l.038-.019c-.027-.023-.027-.031-.038-.027V50.07l-.073-.008-.065.015-.019-.011a.031.031,0,0,0-.027.027h-.05c-.006-.011-.015-.015-.021-.023a.077.077,0,0,1-.057.042l-.074.017a.111.111,0,0,1,.01-.036l.008-.019h-.029c-.008,0-.019.008-.04.021a.285.285,0,0,1-.17.057.354.354,0,0,0-.078.038.235.235,0,0,1-.057.05l-.09-.057c-.019.032-.027.057-.036.071l-.074.023h-.036l-.08.042-.032.055-.038-.008-.042.015-.008.08a.354.354,0,0,1-.071.071.2.2,0,0,1-.071.053l-.017.044h.042l-.017.034c-.01.015-.015.008-.025,0a.214.214,0,0,0-.071.159.343.343,0,0,0-.132.055.28.28,0,0,0-.082.1l-.09.078c-.006,0-.015,0-.023-.011L170,51.025l-.241.124-.109.067-.042,0-.032-.071a.854.854,0,0,1,.139-.308c.036-.061.082-.126.122-.185Zm1.941-1.192.025-.008c.025-.2.061-.393.1-.59l.038-.2c-.015.031-.038.04-.08.052a1.039,1.039,0,0,1-.086.128.467.467,0,0,0-.09.143.4.4,0,0,0-.094.074,1.487,1.487,0,0,1-.122.159.77.77,0,0,1-.147.206c-.021.042-.031.078-.052.12a1,1,0,0,0,.181-.015c.2-.048.315-.071.323-.071" transform="translate(-132.158 -29.872)" fill="#dc000c"/>
    </g>
  </g>
</svg>
