<svg xmlns="http://www.w3.org/2000/svg" width="30.9" height="14.879" viewBox="0 0 30.9 14.879">
  <g id="footer-logo2" transform="translate(0)">
    <g id="Group_124" data-name="Group 124" transform="translate(0 0)">
      <g id="Group_123" data-name="Group 123" transform="translate(14.52)">
        <path id="Path_182" data-name="Path 182" d="M299.959,117.558a.975.975,0,0,1-.69-.309l-5.384-5.384-1.512-1.512h0a.378.378,0,0,1,0-.534L299.2,103a1.061,1.061,0,0,1,.747-.317H303.2a.378.378,0,0,1,.267.645l-6.5,6.5a.378.378,0,0,0,0,.534l6.52,6.56a.378.378,0,0,1-.268.644Z" transform="translate(-292.263 -102.678)" fill="#823787"/>
        <path id="Path_183" data-name="Path 183" d="M340.156,116.9l-6.544-6.545a.378.378,0,0,1,0-.534l6.5-6.5a.378.378,0,0,0-.267-.645h-1.77a1.091,1.091,0,0,0-.676.359l-6.781,6.781a.378.378,0,0,0,0,.534h0l1.512,1.512,5.442,5.442a.858.858,0,0,0,.575.249l1.749-.014A.378.378,0,0,0,340.156,116.9Z" transform="translate(-323.887 -102.678)" fill="#0089d2"/>
      </g>
      <path id="Path_184" data-name="Path 184" d="M227.6,116.9l-6.551-6.551a.376.376,0,0,1,0-.532l6.5-6.5a.376.376,0,0,0-.266-.643h-4.16a1.21,1.21,0,0,0-.741.239l-5.124,5.124a.377.377,0,0,1-.533,0l-5.169-5.169a.821.821,0,0,0-.523-.194h-2.32a.376.376,0,0,0-.266.643l6.5,6.5a.376.376,0,0,1,0,.532l-6.339,6.339a.735.735,0,0,0-.195.334.463.463,0,0,0,.484.533H211a.985.985,0,0,0,.589-.294l5.133-5.133a.377.377,0,0,1,.533,0l5.185,5.185a.935.935,0,0,0,.6.242h3.158l1.14-.012A.377.377,0,0,0,227.6,116.9Z" transform="translate(-208.332 -102.678)" fill="#e02e3b"/>
    </g>
  </g>
</svg>
