<svg xmlns="http://www.w3.org/2000/svg" width="80" height="112" viewBox="0 0 80 112">
  <g id="icon-play" transform="translate(-2351.5 -1128)">
    <g id="Group_1" data-name="Group 1">
      <rect id="Rectangle_2" data-name="Rectangle 2" width="55" height="34" transform="translate(2360 1139)" fill="#fff"/>
      <path id="youtube" d="M78.352,2.681A10.021,10.021,0,0,0,71.3-4.37C65.041-6.082,40-6.082,40-6.082s-25.041,0-31.3,1.648A10.224,10.224,0,0,0,1.648,2.681C0,8.939,0,21.918,0,21.918S0,34.962,1.648,41.155A10.023,10.023,0,0,0,8.7,48.205C15.025,49.918,40,49.918,40,49.918s25.041,0,31.3-1.648a10.022,10.022,0,0,0,7.052-7.049C80,34.962,80,21.984,80,21.984s.066-13.045-1.648-19.3ZM32.027,33.908V9.927L52.85,21.918Zm0,0" transform="translate(2351.5 1134.082)"/>
    </g>
    <g id="Group_2" data-name="Group 2" transform="translate(0 56)">
      <rect id="Rectangle_2-2" data-name="Rectangle 2" width="55" height="34" transform="translate(2360 1139)" fill="#fff"/>
      <path id="youtube-2" data-name="youtube" d="M78.352,2.681A10.021,10.021,0,0,0,71.3-4.37C65.041-6.082,40-6.082,40-6.082s-25.041,0-31.3,1.648A10.224,10.224,0,0,0,1.648,2.681C0,8.939,0,21.918,0,21.918S0,34.962,1.648,41.155A10.023,10.023,0,0,0,8.7,48.205C15.025,49.918,40,49.918,40,49.918s25.041,0,31.3-1.648a10.022,10.022,0,0,0,7.052-7.049C80,34.962,80,21.984,80,21.984s.066-13.045-1.648-19.3ZM32.027,33.908V9.927L52.85,21.918Zm0,0" transform="translate(2351.5 1134.082)" fill="red"/>
    </g>
  </g>
</svg>
