<svg xmlns="http://www.w3.org/2000/svg" width="59" height="25.879" viewBox="0 0 59 25.879">
  <g id="icon-start" transform="translate(0 -143.71)">
    <path id="Path_4635" data-name="Path 4635" d="M42.736,169.589H12.94a12.94,12.94,0,0,1,0-25.879h29.8a12.94,12.94,0,1,1,0,25.879Z" transform="translate(0)" fill="#fa0"/>
    <path id="Path_4636" data-name="Path 4636" d="M385.306,156.65a12.937,12.937,0,0,1-12.94,12.94h-3.561a12.94,12.94,0,0,0,0-25.879h3.561A12.94,12.94,0,0,1,385.306,156.65Z" transform="translate(-326.306)" fill="#ff8330"/>
    <g id="Group_2242" data-name="Group 2242" transform="translate(10.272 151.716)">
      <path id="Path_4638" data-name="Path 4638" d="M222.689,213.879l-.01-.024a1.07,1.07,0,0,0-.993-.666h0a1.07,1.07,0,0,0-.993.667l-.008.02-3.036,7.972a.89.89,0,1,0,1.664.634l.538-1.412H223.5l.532,1.409a.89.89,0,0,0,1.666-.629Zm-2.16,5.411,1.155-3.032,1.144,3.032Z" transform="translate(-202.788 -213.189)" fill="#fff"/>
      <path id="Path_4639" data-name="Path 4639" d="M93.861,217.35c-1.012-.373-1.953-.781-2.222-.9a.678.678,0,0,1-.255-.648.927.927,0,0,1,.728-.746,2.813,2.813,0,0,1,2.336.536.89.89,0,0,0,1.142-1.366,4.586,4.586,0,0,0-3.991-.875,2.725,2.725,0,0,0-1.977,2.2,2.451,2.451,0,0,0,1.093,2.426.892.892,0,0,0,.124.067c.047.021,1.157.515,2.407.976.383.141,1.26.544,1.137,1.235a1.484,1.484,0,0,1-1.531,1.019,2.937,2.937,0,0,1-2.158-.906.89.89,0,1,0-1.319,1.2,4.743,4.743,0,0,0,3.477,1.491,3.215,3.215,0,0,0,3.284-2.486C96.327,219.489,95.831,218.077,93.861,217.35Z" transform="translate(-89.142 -213.188)" fill="#fff"/>
      <path id="Path_4640" data-name="Path 4640" d="M166.93,213.189h-4.465a.89.89,0,0,0,0,1.781H163.8v7.2a.89.89,0,1,0,1.781,0v-7.2h1.351a.89.89,0,0,0,0-1.781Z" transform="translate(-153.227 -213.189)" fill="#fff"/>
      <path id="Path_4641" data-name="Path 4641" d="M310.909,216.181a3.056,3.056,0,0,0-3.111-2.992h-2.151a.89.89,0,0,0-.89.89v8.086a.89.89,0,1,0,1.781,0v-2.608l2.813,3.2a.89.89,0,1,0,1.337-1.176l-2.185-2.483A3.024,3.024,0,0,0,310.909,216.181Zm-3.111,1.211c-.289,0-.8,0-1.248,0,0-.44,0-.936,0-1.215,0-.237,0-.751,0-1.211H307.8a1.216,1.216,0,1,1,0,2.422Z" transform="translate(-279.911 -213.189)" fill="#fff"/>
      <path id="Path_4642" data-name="Path 4642" d="M374.011,213.189h-4.465a.89.89,0,0,0,0,1.781h1.333v7.2a.89.89,0,1,0,1.781,0v-7.2h1.351a.89.89,0,0,0,0-1.781Z" transform="translate(-336.445 -213.189)" fill="#fff"/>
    </g>
  </g>
</svg>
