<svg xmlns="http://www.w3.org/2000/svg" width="66" height="66" viewBox="0 0 66 66">
  <g id="icon-plants" transform="translate(-760 -646)">
    <g id="Group_2" data-name="Group 2" transform="translate(-1.484)">
      <path id="Path_36" data-name="Path 36" d="M295.668,252.6A9.668,9.668,0,0,1,286,242.934,1.933,1.933,0,0,1,287.934,241a9.668,9.668,0,0,1,9.668,9.668A1.933,1.933,0,0,1,295.668,252.6Zm0,0" transform="translate(512.352 436.066)" fill="#a8d32a"/>
      <path id="Path_37" data-name="Path 37" d="M295.668,132.6A9.668,9.668,0,0,1,286,122.934,1.933,1.933,0,0,1,287.934,121a9.668,9.668,0,0,1,9.668,9.668A1.933,1.933,0,0,1,295.668,132.6Zm0,0" transform="translate(512.352 540.598)" fill="#a8d32a"/>
      <path id="Path_38" data-name="Path 38" d="M377.934,252.6a9.668,9.668,0,0,0,9.668-9.668A1.933,1.933,0,0,0,385.668,241,9.668,9.668,0,0,0,376,250.668,1.933,1.933,0,0,0,377.934,252.6Zm0,0" transform="translate(433.953 436.066)" fill="#93bf00"/>
      <path id="Path_39" data-name="Path 39" d="M377.934,132.6a9.668,9.668,0,0,0,9.668-9.668A1.933,1.933,0,0,0,385.668,121,9.668,9.668,0,0,0,376,130.668,1.933,1.933,0,0,0,377.934,132.6Zm0,0" transform="translate(433.953 540.598)" fill="#93bf00"/>
      <path id="Path_40" data-name="Path 40" d="M364.867,122.934v38.672a1.934,1.934,0,0,1-3.867,0V122.934a1.934,1.934,0,0,1,3.867,0Zm0,0" transform="translate(447.02 540.598)" fill="#b9dd39"/>
      <path id="Path_41" data-name="Path 41" d="M376,163.539V121a1.914,1.914,0,0,1,1.934,1.934v38.672A1.915,1.915,0,0,1,376,163.539Zm0,0" transform="translate(433.953 540.598)" fill="#a8d32a"/>
      <path id="Path_42" data-name="Path 42" d="M338.077.5a1.872,1.872,0,0,0-2.553,0C335.332.657,331,4.731,331,9.8s4.332,9.01,4.524,9.165a1.872,1.872,0,0,0,2.553,0c.193-.155,4.524-4.1,4.524-9.165S338.27.657,338.077.5Zm0,0" transform="translate(473.152 646)" fill="#a8d32a"/>
      <path id="Path_43" data-name="Path 43" d="M381.8,9.8c0,5.066-4.331,9.01-4.524,9.165a1.781,1.781,0,0,1-1.276.5V0a1.781,1.781,0,0,1,1.276.5C377.469.657,381.8,4.731,381.8,9.8Zm0,0" transform="translate(433.953 646)" fill="#93bf00"/>
      <path id="Path_44" data-name="Path 44" d="M55.668,252.6A9.668,9.668,0,0,1,46,242.934,1.933,1.933,0,0,1,47.934,241a9.668,9.668,0,0,1,9.668,9.668A1.933,1.933,0,0,1,55.668,252.6Zm0,0" transform="translate(721.414 436.066)" fill="#a8d32a"/>
      <path id="Path_45" data-name="Path 45" d="M55.668,132.6A9.668,9.668,0,0,1,46,122.934,1.933,1.933,0,0,1,47.934,121a9.668,9.668,0,0,1,9.668,9.668A1.933,1.933,0,0,1,55.668,132.6Zm0,0" transform="translate(721.414 540.598)" fill="#a8d32a"/>
      <path id="Path_46" data-name="Path 46" d="M137.934,252.6a9.668,9.668,0,0,0,9.668-9.668A1.933,1.933,0,0,0,145.668,241,9.668,9.668,0,0,0,136,250.668,1.933,1.933,0,0,0,137.934,252.6Zm0,0" transform="translate(643.016 436.066)" fill="#93bf00"/>
      <path id="Path_47" data-name="Path 47" d="M137.934,132.6a9.668,9.668,0,0,0,9.668-9.668A1.933,1.933,0,0,0,145.668,121,9.668,9.668,0,0,0,136,130.668,1.933,1.933,0,0,0,137.934,132.6Zm0,0" transform="translate(643.016 540.598)" fill="#93bf00"/>
      <path id="Path_48" data-name="Path 48" d="M124.867,122.934v38.672a1.934,1.934,0,1,1-3.867,0V122.934a1.934,1.934,0,1,1,3.867,0Zm0,0" transform="translate(656.082 540.598)" fill="#b9dd39"/>
      <path id="Path_49" data-name="Path 49" d="M136,163.539V121a1.914,1.914,0,0,1,1.934,1.934v38.672A1.915,1.915,0,0,1,136,163.539Zm0,0" transform="translate(643.016 540.598)" fill="#a8d32a"/>
      <path id="Path_50" data-name="Path 50" d="M98.077.5a1.872,1.872,0,0,0-2.553,0C95.332.657,91,4.731,91,9.8s4.332,9.01,4.524,9.165a1.872,1.872,0,0,0,2.553,0c.193-.155,4.524-4.1,4.524-9.165S98.27.657,98.077.5Zm0,0" transform="translate(682.215 646)" fill="#a8d32a"/>
      <path id="Path_51" data-name="Path 51" d="M141.8,9.8c0,5.066-4.332,9.01-4.524,9.165a1.781,1.781,0,0,1-1.276.5V0a1.781,1.781,0,0,1,1.276.5C137.469.657,141.8,4.731,141.8,9.8Zm0,0" transform="translate(643.016 646)" fill="#93bf00"/>
      <path id="Path_52" data-name="Path 52" d="M64.8,363.9a9.329,9.329,0,0,1-1.508-.812,12.54,12.54,0,0,0-13.857,0,8.6,8.6,0,0,1-9.475,0A12.642,12.642,0,0,0,33,361a12.118,12.118,0,0,0-6.768,2.088,8.6,8.6,0,0,1-9.475,0,12.54,12.54,0,0,0-13.857,0,2.436,2.436,0,0,1-1.121.387A1.938,1.938,0,0,0,0,365.408v13.123a1.914,1.914,0,0,0,1.934,1.934H64.066A1.914,1.914,0,0,0,66,378.531V365.679A1.891,1.891,0,0,0,64.8,363.9Zm0,0" transform="translate(761.484 331.535)" fill="#7e5d40"/>
      <path id="Path_53" data-name="Path 53" d="M289,365.679v12.852a1.914,1.914,0,0,1-1.934,1.934H256V361a12.642,12.642,0,0,1,6.961,2.088,8.6,8.6,0,0,0,9.475,0,12.54,12.54,0,0,1,13.857,0,9.35,9.35,0,0,0,1.508.812A1.891,1.891,0,0,1,289,365.679Zm0,0" transform="translate(538.484 331.535)" fill="#684d34"/>
      <path id="Path_54" data-name="Path 54" d="M66.8,424.867H62.934a1.934,1.934,0,0,1,0-3.867H66.8a1.934,1.934,0,0,1,0,3.867Zm0,0" transform="translate(708.348 279.27)" fill="#5c442f"/>
      <path id="Path_55" data-name="Path 55" d="M396.8,424.867h-3.867a1.934,1.934,0,0,1,0-3.867H396.8a1.934,1.934,0,0,1,0,3.867Zm0,0" transform="translate(420.887 279.27)" fill="#4c3828"/>
      <path id="Path_56" data-name="Path 56" d="M233.734,422.934a1.914,1.914,0,0,1-1.934,1.934h-3.867a1.934,1.934,0,0,1,0-3.867H231.8A1.914,1.914,0,0,1,233.734,422.934Zm0,0" transform="translate(564.617 279.27)" fill="#5c442f"/>
      <path id="Path_57" data-name="Path 57" d="M259.867,422.934a1.914,1.914,0,0,1-1.934,1.934H256V421h1.934A1.914,1.914,0,0,1,259.867,422.934Zm0,0" transform="translate(538.484 279.27)" fill="#4c3828"/>
    </g>
    <rect id="Rectangle_3" data-name="Rectangle 3" width="65" height="65" transform="translate(760 647)" fill="none"/>
  </g>
</svg>
