<svg xmlns="http://www.w3.org/2000/svg" width="39" height="39" viewBox="0 0 39 39">
  <g id="icon-game" transform="translate(0 -0.286)">
    <g id="game-controller" transform="translate(1.592 7.163)">
      <g id="Group_2234" data-name="Group 2234" transform="translate(0 0)">
        <path id="Path_4621" data-name="Path 4621" d="M32.208,28.408a4.383,4.383,0,0,1-4.09-2.8l-1.889-4.261a.439.439,0,0,0-.4-.313H10.785a.413.413,0,0,0-.383.27L8.477,25.653A4.383,4.383,0,0,1,1,26.779a4.456,4.456,0,0,1-.9-3.745L3.139,8.654A5.867,5.867,0,0,1,8.834,4H27.779a5.869,5.869,0,0,1,5.695,4.654l3.04,14.379a4.456,4.456,0,0,1-.9,3.745,4.373,4.373,0,0,1-3.408,1.629ZM10.785,18.747H25.827a2.691,2.691,0,0,1,2.513,1.718l1.889,4.261a2.129,2.129,0,0,0,1.98,1.4,2.09,2.09,0,0,0,1.629-.783,2.182,2.182,0,0,0,.438-1.831L31.235,9.129a3.569,3.569,0,0,0-3.457-2.841H8.834A3.569,3.569,0,0,0,5.379,9.127L2.338,23.507a2.177,2.177,0,0,0,.438,1.831A2.087,2.087,0,0,0,4.4,26.12a2.109,2.109,0,0,0,1.962-1.352l1.925-4.348a2.67,2.67,0,0,1,2.494-1.673Z" transform="translate(-0.001 -4)" fill="#fff"/>
      </g>
      <g id="Group_2235" data-name="Group 2235" transform="translate(10.296 4.577)">
        <path id="Path_4622" data-name="Path 4622" d="M7.894,14.628A1.145,1.145,0,0,1,6.75,13.483V8.144a1.144,1.144,0,0,1,2.288,0v5.339A1.145,1.145,0,0,1,7.894,14.628Z" transform="translate(-6.75 -7)" fill="#fff"/>
      </g>
      <g id="Group_2236" data-name="Group 2236" transform="translate(7.627 7.246)">
        <path id="Path_4623" data-name="Path 4623" d="M11.483,11.038H6.144a1.144,1.144,0,0,1,0-2.288h5.339a1.144,1.144,0,1,1,0,2.288Z" transform="translate(-5 -8.75)" fill="#fff"/>
      </g>
      <g id="Group_2237" data-name="Group 2237" transform="translate(21.356 4.577)">
        <path id="Path_4624" data-name="Path 4624" d="M17.814,14.628a3.814,3.814,0,1,1,3.814-3.814A3.819,3.819,0,0,1,17.814,14.628Zm0-5.339a1.526,1.526,0,1,0,1.526,1.526A1.528,1.528,0,0,0,17.814,9.288Z" transform="translate(-14 -7)" fill="#fff"/>
      </g>
    </g>
    <rect id="Rectangle_114" data-name="Rectangle 114" width="39" height="39" transform="translate(0 0.286)" fill="none"/>
  </g>
</svg>
