<svg id="icon-round" xmlns="http://www.w3.org/2000/svg" width="39" height="39" viewBox="0 0 39 39">
  <g id="_360-degree" data-name="360-degree" transform="translate(2.388 2.388)">
    <path id="Path_4610" data-name="Path 4610" d="M17.323,17.06C17.15,17.06,0,16.9,0,11.286,0,9.633,1.739,8.2,5.032,7.136a.721.721,0,0,1,.443,1.373c-2.974.96-4.032,2.064-4.032,2.777,0,2.684,9.249,4.331,15.879,4.331,5.7,0,15.879-1.446,15.879-4.331,0-.9-1.435-1.913-3.838-2.723a.721.721,0,0,1,.46-1.367c3.986,1.341,4.821,2.965,4.821,4.09C34.645,16.9,17.5,17.06,17.323,17.06Z" transform="translate(0 3.149)" fill="#fff" stroke="#fff" stroke-width="1"/>
    <path id="Path_4611" data-name="Path 4611" d="M17.323,30.432C8.926,30.432,0,28.408,0,24.657V10.222a.722.722,0,0,1,1.444,0V24.657c0,1.809,6.041,4.331,15.879,4.331S33.2,26.466,33.2,24.657V10.222a.722.722,0,0,1,1.444,0V24.657C34.645,28.408,25.72,30.432,17.323,30.432Z" transform="translate(0 4.214)" fill="#fff" stroke="#fff" stroke-width="1"/>
    <path id="Path_4612" data-name="Path 4612" d="M3.832,25.5a.722.722,0,0,1-.508-1.234l5.022-4.98a1.9,1.9,0,0,1,2.708,0l2.876,2.746a.456.456,0,0,0,.335.16.5.5,0,0,0,.352-.17l4.254-4.416a1.886,1.886,0,0,1,2.676-.1L28.688,23.8a.721.721,0,1,1-.953,1.083l-7.16-6.308a.456.456,0,0,0-.674.04l-4.247,4.409a1.951,1.951,0,0,1-1.38.609,1.753,1.753,0,0,1-1.354-.572l-2.876-2.746a.448.448,0,0,0-.68-.012L4.341,25.291a.718.718,0,0,1-.51.211Z" transform="translate(1.38 7.541)" fill="#fff" stroke="#fff" stroke-width="1"/>
    <path id="Path_4613" data-name="Path 4613" d="M11.165,19.331a2.165,2.165,0,1,1,2.165-2.165A2.168,2.168,0,0,1,11.165,19.331Zm0-2.887a.722.722,0,1,0,.722.722A.723.723,0,0,0,11.165,16.444Z" transform="translate(3.992 6.653)" fill="#fff" stroke="#fff" stroke-width="1"/>
    <path id="Path_4614" data-name="Path 4614" d="M19.722,14.574A.722.722,0,0,1,19,13.852v-3.19a.722.722,0,1,1,1.444,0v3.19A.722.722,0,0,1,19.722,14.574Z" transform="translate(8.428 4.409)" fill="#fff" stroke="#fff" stroke-width="1"/>
    <path id="Path_4615" data-name="Path 4615" d="M4.722,14.445A.722.722,0,0,1,4,13.723V10.952a.722.722,0,1,1,1.444,0v2.772A.722.722,0,0,1,4.722,14.445Z" transform="translate(1.774 4.538)" fill="#fff" stroke="#fff" stroke-width="1"/>
    <path id="Path_4616" data-name="Path 4616" d="M13.609,11.661H11.444A1.445,1.445,0,0,1,10,10.218V4.444A1.445,1.445,0,0,1,11.444,3h2.887a.722.722,0,0,1,0,1.444H11.444V6.609h2.165a1.445,1.445,0,0,1,1.444,1.444v2.165A1.445,1.445,0,0,1,13.609,11.661ZM11.444,8.052v2.165h2.165V8.052Z" transform="translate(4.436 1.331)" fill="#fff" stroke="#fff" stroke-width="1"/>
    <path id="Path_4617" data-name="Path 4617" d="M18.109,11.661H15.944A1.445,1.445,0,0,1,14.5,10.218V4.444A1.445,1.445,0,0,1,15.944,3h2.165a1.445,1.445,0,0,1,1.444,1.444v5.774A1.445,1.445,0,0,1,18.109,11.661Zm-2.887-1.444h0Zm.722,0h2.165V4.444H15.944Z" transform="translate(6.432 1.331)" fill="#fff" stroke="#fff" stroke-width="1"/>
    <path id="Path_4618" data-name="Path 4618" d="M8.887,10.552H6.722a.722.722,0,0,1,0-1.444H8.887V6.944H6.722a.722.722,0,1,1,0-1.444H8.887a1.445,1.445,0,0,1,1.444,1.444V9.109A1.445,1.445,0,0,1,8.887,10.552Z" transform="translate(2.661 2.44)" fill="#fff" stroke="#fff" stroke-width="1"/>
    <path id="Path_4619" data-name="Path 4619" d="M8.887,8.052H6.722a.722.722,0,1,1,0-1.444H8.887V4.444H6.722A.722.722,0,0,1,6.722,3H8.887a1.445,1.445,0,0,1,1.444,1.444V6.609A1.445,1.445,0,0,1,8.887,8.052Z" transform="translate(2.661 1.331)" fill="#fff" stroke="#fff" stroke-width="1"/>
    <path id="Path_4620" data-name="Path 4620" d="M21.165,4.331a2.165,2.165,0,1,1,2.165-2.165A2.168,2.168,0,0,1,21.165,4.331Zm0-2.887a.722.722,0,1,0,.722.722A.723.723,0,0,0,21.165,1.444Z" transform="translate(8.428)" fill="#fff" stroke="#fff" stroke-width="1"/>
  </g>
  <rect id="Rectangle_113" data-name="Rectangle 113" width="39" height="39" fill="none"/>
</svg>
