<svg xmlns="http://www.w3.org/2000/svg" xmlns:xlink="http://www.w3.org/1999/xlink" width="305.153" height="33.338" viewBox="0 0 305.153 33.338">
  <defs>
    <clipPath id="clip-path">
      <path id="Path_4037" data-name="Path 4037" d="M146.061,50.178a15.771,15.771,0,1,0,15.773-15.765,15.77,15.77,0,0,0-15.773,15.765" fill="none"/>
    </clipPath>
    <radialGradient id="radial-gradient" cx="0.5" cy="0.5" r="0.501" gradientTransform="translate(-0.007)" gradientUnits="objectBoundingBox">
      <stop offset="0" stop-color="#fff"/>
      <stop offset="0.321" stop-color="#fcfdfe"/>
      <stop offset="0.473" stop-color="#f5f9fc"/>
      <stop offset="0.59" stop-color="#e8f1f9"/>
      <stop offset="0.688" stop-color="#d5e6f4"/>
      <stop offset="0.775" stop-color="#bed7ee"/>
      <stop offset="0.855" stop-color="#a0c5e6"/>
      <stop offset="0.927" stop-color="#7db0dd"/>
      <stop offset="0.994" stop-color="#5698d3"/>
      <stop offset="1" stop-color="#5296d2"/>
    </radialGradient>
  </defs>
  <g id="logo" transform="translate(-145.162 -33.511)">
    <g id="Group_2037" data-name="Group 2037">
      <path id="Path_4036" data-name="Path 4036" d="M178.5,50.179a16.669,16.669,0,1,1-16.666-16.668A16.667,16.667,0,0,1,178.5,50.179" fill="#fff"/>
    </g>
    <g id="Group_2039" data-name="Group 2039">
      <g id="Group_2038" data-name="Group 2038" clip-path="url(#clip-path)">
        <rect id="Rectangle_102" data-name="Rectangle 102" width="31.541" height="31.535" transform="translate(146.061 34.413)" fill="url(#radial-gradient)"/>
      </g>
    </g>
    <g id="Group_2040" data-name="Group 2040">
      <path id="Path_4038" data-name="Path 4038" d="M155.737,47.429a54.516,54.516,0,0,0,13.39-9.115,71.745,71.745,0,0,1-11.741,20.042h-7.4s8.461-6.817,11.666-11.254a36.574,36.574,0,0,1-5.918.327" fill="#e33c0b"/>
      <path id="Path_4039" data-name="Path 4039" d="M158.652,56.775c3.182,1.337,4.626.655,5.624-.7,1.159-1.565-.909-4.382-4.622-6.3-3.605-1.856-7.432-2.172-8.707-.752a2.35,2.35,0,0,1,.163-.253c1.483-2.006,6.544-1.649,11.3.8s7.412,6.062,5.926,8.07-5.588,2.578-10.159-.17" fill="#00267f"/>
      <path id="Path_4040" data-name="Path 4040" d="M166.273,49.419l.012-.025c.037-.1.065-.169.087-.228.028-.083.048-.16.069-.235l.08-.246c.007,0,.011-.006.011-.014a.048.048,0,0,0,.007-.023,2.3,2.3,0,0,1,.128-.5c.1-.3.185-.451.253-.467l-.007-.008c.007-.013.045-.025.109-.047a.346.346,0,0,1,.1-.027l0,.037a1.275,1.275,0,0,1-.059.335c-.045.169-.073.279-.082.326a.048.048,0,0,0-.015.041.179.179,0,0,1-.017.036c-.014.025-.014.044,0,.049l-.035.045-.007.04s-.011,0-.014.006l.014.006-.043.139h.008a.085.085,0,0,0,.08-.056c.024-.042.046-.081.066-.119.05-.061.117-.137.2-.236.043-.047.081-.1.122-.145a.85.85,0,0,1,.209-.262.347.347,0,0,1,.206-.066l.034.008,0,.026a.219.219,0,0,1-.027.1c-.029.041-.049.071-.061.09l-.009,0a.312.312,0,0,1-.018.049.1.1,0,0,1-.029.04s0,0,0,.008l.007,0c-.029.074-.046.129-.059.167a.665.665,0,0,0-.036.159.175.175,0,0,1-.019.075.248.248,0,0,0-.017.065.106.106,0,0,1-.027.055.116.116,0,0,0-.011.035l.006.018.021,0c.06-.08.144-.189.252-.324.083-.107.168-.213.259-.322h.007l.245-.3c.012-.017.031-.039.05-.061s.042-.043.051-.039a.308.308,0,0,1,.071-.067.171.171,0,0,1,.091-.03l.007-.013.037-.006.015.037s.007.006.011.008a.252.252,0,0,0,.037,0c.009.016.018.022.022.018l-.027.037,0,.018c0,.012-.015.019-.021.024l-.024.021a.036.036,0,0,1-.014.01V47.7a.686.686,0,0,1-.063.055.057.057,0,0,0-.016.031l-.078.077v.013a.148.148,0,0,1-.1.062l.011.01h.033l-.014.006a.024.024,0,0,0-.017.008.38.38,0,0,1-.048.043l.011,0-.02.035c-.008,0-.029.02-.058.05a.115.115,0,0,0-.041.075h-.018a.115.115,0,0,1-.037.012l.014.017-.014.012c-.026,0-.037.012-.037.027h.009l0-.005a.023.023,0,0,1,.013.005l0,.006-.034.012a.479.479,0,0,1-.045.059l-.035.01.012.022c0,.006-.007.013-.018.023s-.02.024-.02.028-.006.005-.026.008l-.017.019,0,.012-.038.036-.016,0a.061.061,0,0,1-.05.049.419.419,0,0,1-.02.046.225.225,0,0,1-.034.047.02.02,0,0,0-.006.014l-.023.021v.008l-.034.02-.036.067c-.007,0-.013,0-.013.01a.126.126,0,0,0-.016.033h-.013a.2.2,0,0,0-.015.026c-.013.012-.018.022-.02.022l-.01.027a.927.927,0,0,0-.066.083l.011.015-.035.016-.02.04-.012.007v.011h-.029l0,.008.025.007a.074.074,0,0,0-.016.014c-.009,0-.013.016-.013.038l-.021.017-.02.055-.02.009v.033a.113.113,0,0,1-.023.015.008.008,0,0,0,0,.014.247.247,0,0,0-.033.044c-.013.016-.026.025-.032.019a.367.367,0,0,1-.088.075.179.179,0,0,1-.1.026l-.042-.007,0-.062.008-.152v-.023c.006-.018.013-.038.019-.054a.139.139,0,0,1,.025-.047l-.018-.023a.2.2,0,0,0,.018-.064.222.222,0,0,0,.01-.051h.013c0-.032.013-.06.018-.089s.011-.053.02-.081l0-.01c-.005-.019-.005-.028,0-.029l.017-.028c-.005-.01-.005-.016,0-.03a.058.058,0,0,0,.009-.025.353.353,0,0,1,.02-.1c.014-.043.022-.069.022-.07a2.185,2.185,0,0,0-.152.184,2.114,2.114,0,0,1-.23.276s-.006.013-.016.028a.053.053,0,0,1-.021.022s-.03.031-.067.076a.211.211,0,0,0-.052.093l-.042.029c-.007.006,0,.01.006.014s.014.01.014.018a.134.134,0,0,1-.023.029c0,.014-.017.022-.028.032l.015.013c0,.005-.006.007-.027.009l-.005.043-.031.022a.012.012,0,0,0-.015.007v.03l-.021.013s-.009,0-.009-.009l-.007-.012-.026.061-.021,0-.014,0h-.019l-.018.032a.023.023,0,0,1-.026.009.031.031,0,0,1-.016,0l-.023.022-.024,0a.081.081,0,0,1-.059.041.1.1,0,0,0-.051,0,.288.288,0,0,1,.012-.067.252.252,0,0,0,.019-.054" fill="#dc000c"/>
      <path id="Path_4041" data-name="Path 4041" d="M168.208,49.032l.021-.014V49a.26.26,0,0,0,.036-.061.406.406,0,0,1,.043-.069c.014-.03.032-.055.047-.091h.015l.013-.047.018,0,.023-.053a.158.158,0,0,0,.024-.037,1.261,1.261,0,0,1,.137-.248c.176-.268.268-.408.274-.419l.008-.011-.006-.007-.029.005-.044-.005-.035-.03a.268.268,0,0,1,.053-.1.637.637,0,0,1,.069-.079c.006-.008.006-.015.014-.02h.006a.321.321,0,0,1,.2-.094,1.612,1.612,0,0,1,.31-.029.275.275,0,0,1,.039,0c.014,0,.032,0,.055,0l.081.005a.134.134,0,0,1,.061.018l.017.016s0,0,.01,0v-.008a.507.507,0,0,1,.065.024.343.343,0,0,1,.061.035v.014h.01c.012,0,.016.006.026.015s.014.014.019.005l.018.027c.006,0,.006,0,.008.006l.006.006a.085.085,0,0,0,.018.035c.016.014.023.02.025.032l-.025.011.019.024.01.006a.045.045,0,0,1-.019.03h.041v.012h-.014a.058.058,0,0,0,0,.021l0,0,.014-.005a.059.059,0,0,1-.024.022l0,.013-.019.026h.045s-.008.007-.008.023,0,.018-.01.018h-.026v.011l.012.006a.147.147,0,0,1,.034-.015.052.052,0,0,1-.046.047c.008.007,0,.014,0,.023s-.014.016-.014.018h.014l.053-.029-.018.011,0,.01-.031.022-.016,0-.018.045-.032.025v.022l.03,0,0,.044h-.026s0,.007,0,.012a.015.015,0,0,1-.015,0l.021.021v.018c0,.026-.01.037-.035.037l.006.022a.09.09,0,0,1-.071.008.01.01,0,0,0-.006.014c.008.007.01.011.01.013l0,.024-.032.014-.019,0,.027,0,.022,0s.012-.01.018-.018l.01.013-.026.032-.059.005a.045.045,0,0,0-.01.035h.008l.019-.013v.016a.14.14,0,0,1-.041,0l-.034.032v.015l.034.009-.057.017-.018.028c0,.01,0,.013-.012.018l-.039.008v.015l.051.01.026-.018.008-.015-.03.055a.065.065,0,0,1-.021-.006.229.229,0,0,1-.034.035.236.236,0,0,1-.061.022l.008.008.018.005-.033.014-.023.032-.023.006c-.016.02-.02.033-.018.035l-.029,0c.009.012.006.02,0,.02a.143.143,0,0,1-.034,0l-.041.006V48.9c0,.005.008,0,.014,0l.012,0a.033.033,0,0,0-.018.032l-.026.006-.005.01c-.008,0-.014,0-.022,0l-.006.018a.063.063,0,0,1-.024.009l-.012,0,0-.007-.02.037h-.043c0,.018-.018.029-.044.039a.04.04,0,0,0,.018.022l-.03-.006-.029.014V49.1h.018l0,.008-.023.007c-.01.01-.014.016-.02.018a.055.055,0,0,1-.033.008.019.019,0,0,0-.006.016.125.125,0,0,0-.046.014.055.055,0,0,0-.025.029l-.012,0c-.019,0-.029.008-.039.031l-.028,0a.745.745,0,0,1-.13.079.4.4,0,0,1-.137.057.324.324,0,0,1-.128.077.614.614,0,0,1-.144.044s-.014-.006-.032-.006a.761.761,0,0,1-.082,0c-.014-.005-.042-.016-.079-.026a.229.229,0,0,1-.037-.059.205.205,0,0,1-.024-.055.532.532,0,0,1,.079-.168.19.19,0,0,0,.033-.084.144.144,0,0,0,.016-.02c.012-.008.015-.014.012-.025m.372.092v.021l.019.007.053-.007.026-.021h.018l.069-.031c.041-.014.067-.026.073-.042h.023s.006-.006.006-.019A.236.236,0,0,0,168.94,49l.022-.018,0-.013c.005,0,.018,0,.042-.012h0a.227.227,0,0,1,.057-.059.423.423,0,0,1,.071-.039V48.84a.46.46,0,0,0,.1-.074c.026-.026.055-.057.091-.1s.047-.061.073-.094.041-.069.071-.113h.011a.158.158,0,0,1,.016-.072.209.209,0,0,1,.039-.071l0-.012.013-.01a.278.278,0,0,1,0-.059.832.832,0,0,0,.018-.094.21.21,0,0,0-.081-.175.291.291,0,0,0-.195-.07l-.065.011a.026.026,0,0,1,.012.019c-.012,0-.019.008-.024.029a.109.109,0,0,0-.008.046.054.054,0,0,0-.017.059l-.024.006,0,.016-.007,0c-.009,0-.009.006,0,.009l-.022.04v.013l-.024.013-.006.023-.023.006-.008.022.014.023,0,.006-.043.006v.008l.007.02.026-.006a.1.1,0,0,0-.03.027.094.094,0,0,0-.019.035l-.014.03h-.016l-.006.014h-.011l0,.022.011,0,.026-.007a.056.056,0,0,1-.045.023v.032h-.01v-.01s0-.01-.01-.01l-.006.014.016.016,0,.009-.028.044-.008.008-.025.008-.022.041.018.041h-.048l-.005.006.023.014h.012a.067.067,0,0,1-.03.02.181.181,0,0,1-.041.007l-.008.02.008.012.014-.01h.019v.016l-.009.014-.028,0v.009l-.025.007s0,.013.009.013l.006.006-.029.016V48.75a.106.106,0,0,0-.043.071l-.024,0v.024a.144.144,0,0,1,.057-.018l0,0-.024.013a.066.066,0,0,1-.047.045l0,.011-.027.023-.007.017h.022l.008-.012,0,.008a.023.023,0,0,0,0,.023l-.025-.007c-.026.012-.04.023-.043.035v.016l.008-.006,0,0,.03-.01.007-.006-.023.04-.022,0,.01,0v.018l-.014.032-.025-.006-.018.006v.035l-.008.006-.008.014.014,0a.012.012,0,0,0,.01,0" fill="#dc000c"/>
      <path id="Path_4042" data-name="Path 4042" d="M169.723,49.185c.012-.014.02-.038.038-.059a.246.246,0,0,0,.035-.049c.019-.024.027-.036.036-.045.015-.024.024-.038.033-.054l.016-.016.133-.183a.176.176,0,0,1,.024-.017.67.67,0,0,1,.05-.073c.025-.036.043-.053.055-.055a.931.931,0,0,1,.07-.1c.03-.035.061-.069.089-.107l.049-.063.022-.006.024-.045a.216.216,0,0,0,.025-.01.331.331,0,0,1,.064-.1l0-.014a.459.459,0,0,0,.071-.069c.025-.026.049-.051.073-.08.073-.074.135-.148.189-.211.018-.018.034-.038.049-.055a.883.883,0,0,0,.075-.1l.005.008a.35.35,0,0,1,.087-.037l.075-.026.026-.014h.019l.006-.007.061-.008.027.01a.084.084,0,0,1-.015.056c.006,0,.01,0,.012,0l.006,0h-.012c-.013.059-.026.12-.041.181a.585.585,0,0,1-.047.175l.014,0s0,.005,0,.014l-.028.049.013.035c0,.014-.007.035-.013.063s-.007.055-.011.077l-.021.028v.072H171.1l.013.032a.114.114,0,0,0-.018.049c0,.019,0,.031,0,.041l.01.044-.021.023a.276.276,0,0,0,0,.028.06.06,0,0,1,.006.024.017.017,0,0,1-.011.018V48.61l-.008,0c0,.018.008.022.022.02s0,.043-.01.1-.012.091-.012.093a.061.061,0,0,0,0,.029l-.032.018,0,.031.027,0c.011,0,.015.011.007.026a.058.058,0,0,1-.012.021l.025.026c0,.005,0,.009-.009.011s-.016.006-.016.012V49l.016.018c0,.006-.008.008-.016.006l.005.023a.287.287,0,0,0,0,.053c-.012.016-.018.024-.018.036s.006.01.018.012.013.007.013.019h-.009a.15.15,0,0,1,0,.083.255.255,0,0,1-.03.087L171,49.335l-.011.018c-.008.007-.011.009-.022.005l-.01.036c-.058.029-.112.055-.166.084a.107.107,0,0,1-.072-.081.383.383,0,0,1-.023-.141.351.351,0,0,1,.006-.072c0-.029.007-.046.008-.058a.1.1,0,0,1,.009-.033c0-.014,0-.02-.006-.024v-.041l.02-.01c-.014-.012-.014-.016-.02-.014v-.116l-.038,0-.034.008-.01-.006a.016.016,0,0,0-.014.014h-.026c0-.006-.008-.008-.011-.012a.04.04,0,0,1-.03.022l-.039.009a.058.058,0,0,1,.005-.019l0-.01h-.015s-.01,0-.021.011a.149.149,0,0,1-.089.03.185.185,0,0,0-.041.02.123.123,0,0,1-.03.026l-.047-.03c-.01.017-.014.03-.019.037l-.039.012H170.2l-.042.022-.017.029-.02,0-.022.008,0,.042a.185.185,0,0,1-.037.037.1.1,0,0,1-.037.028l-.009.023h.022l-.009.018c0,.008-.008,0-.013,0a.112.112,0,0,0-.037.083.18.18,0,0,0-.069.029.147.147,0,0,0-.043.053l-.047.041s-.008,0-.012-.006l0-.009-.126.065-.057.035-.022,0-.017-.037a.448.448,0,0,1,.073-.161c.019-.032.043-.066.064-.1Zm1.016-.624.013,0c.013-.1.032-.206.054-.309l.02-.1c-.008.016-.02.021-.042.027a.545.545,0,0,1-.045.067.245.245,0,0,0-.047.075.21.21,0,0,0-.049.039.777.777,0,0,1-.064.083.4.4,0,0,1-.077.108c-.011.022-.016.041-.027.063a.522.522,0,0,0,.1-.008c.107-.025.165-.037.169-.037" fill="#dc000c"/>
    </g>
    <g id="Group_2041" data-name="Group 2041">
      <path id="Path_4043" data-name="Path 4043" d="M195.79,40.924a3.8,3.8,0,0,1-.1.386,7.994,7.994,0,0,1,1.526.666,3.289,3.289,0,0,1,1.069.982,1.676,1.676,0,0,1,.281.877,1.2,1.2,0,0,1-.334.824.594.594,0,0,1-.21.21,7.766,7.766,0,0,1,.946.7c.544.456.825.772.825.947,0,.14-.14.228-.4.263a1.253,1.253,0,0,0-.543.07c-.508.246-1.105.491-1.771.737a.8.8,0,0,0,.193.14c.491.333.754.6.754.772,0,.14-.193.28-.578.438-.369.123-.561.28-.6.456-.3,1.893-.736,3.033-1.332,3.436a3.108,3.108,0,0,1-1.333.473c-.193,0-.333-.245-.438-.7-.123-.561-.912-1.087-2.367-1.63l.07-.421a14.6,14.6,0,0,0,2.472.35.762.762,0,0,0,.7-.35A8.53,8.53,0,0,0,195,48.5h-3.8a6.162,6.162,0,0,1-1.035,2.1,7.013,7.013,0,0,1-2.086,1.612,15.776,15.776,0,0,1-4.1,1.14l-.141-.193a15.663,15.663,0,0,0,3.4-1.683,5.048,5.048,0,0,0,1.631-1.806,3.585,3.585,0,0,0,.473-1.174h-1.314a10.621,10.621,0,0,0-2,.14l-.263-.824a9.914,9.914,0,0,0,2.262.21h1.419a12.36,12.36,0,0,0,.141-1.929c.684.141,1.227.246,1.613.316.7.14,1.069.3,1.069.438s-.14.263-.4.351c-.245.1-.386.228-.421.4-.035.158-.07.3-.1.421h3.524a3.39,3.39,0,0,1,.6-.614,1.192,1.192,0,0,1,.579-.35,1.019,1.019,0,0,1,.35.1,11.586,11.586,0,0,0,.6-1.332H186.077q-.052.842-.1,1.209a1.674,1.674,0,0,1-.508.964.754.754,0,0,1-.456.158,1.31,1.31,0,0,1-.964-.35.982.982,0,0,1-.351-.824c0-.141.175-.334.543-.544a2.948,2.948,0,0,0,.912-.719,3,3,0,0,0,.543-1.139l.4.07v.683h10.624c.211-.122.4-.227.561-.315a.218.218,0,0,0,.053-.035,6.142,6.142,0,0,1-.7-1.245,7.755,7.755,0,0,0-1.175-1.7.237.237,0,0,0-.053.123,4.571,4.571,0,0,1-1.332,1.753,7.621,7.621,0,0,1-2.156,1.158l-.141-.281a7.172,7.172,0,0,0,1.438-1.385,5.569,5.569,0,0,0,.876-1.806,10.911,10.911,0,0,0,.3-2.349c0-.789-.035-1.455-.071-2,.492.07.965.14,1.438.245.684.141,1.035.264,1.035.386,0,.141-.123.246-.333.351-.246.1-.351.228-.351.333-.053.631-.123,1.175-.193,1.631.158-.14.3-.3.438-.439a6.4,6.4,0,0,0,1.245-1.613c.491.316.965.614,1.385.877.4.281.614.491.614.631a.187.187,0,0,1-.211.211l-.894-.071A15.616,15.616,0,0,1,195.79,40.924Zm-9.011-2.086a16.934,16.934,0,0,1-.123,2.419,1.786,1.786,0,0,1-.508,1,.74.74,0,0,1-.457.14,1.341,1.341,0,0,1-.911-.315.9.9,0,0,1-.333-.772c0-.158.175-.35.543-.578a2.852,2.852,0,0,0,.912-.772,3.025,3.025,0,0,0,.543-1.192Zm2.034,2.209c-.036.123-.071.228-.106.333a9.073,9.073,0,0,1,1.473.562,3.344,3.344,0,0,1,1.052.841,1.353,1.353,0,0,1,.28.789.994.994,0,0,1-.3.719.844.844,0,0,1-.666.368c-.14,0-.42-.386-.824-1.175a7.93,7.93,0,0,0-1.227-1.525.853.853,0,0,0-.07.123,4.709,4.709,0,0,1-1.438,1.7,7.818,7.818,0,0,1-2.332,1.087l-.14-.28a6.589,6.589,0,0,0,1.631-1.315,4.8,4.8,0,0,0,1-1.7,8.312,8.312,0,0,0,.315-2.244c0-.789-.035-1.455-.07-2,.491.07.965.141,1.456.246.666.14,1.016.263,1.016.386,0,.14-.122.245-.333.35-.245.1-.35.228-.35.333-.071.631-.141,1.193-.211,1.666.14-.14.263-.3.4-.456a7.943,7.943,0,0,0,1.174-1.7c.491.316.964.614,1.385.877.386.281.6.491.6.631s-.07.211-.192.211l-.9-.071A13.23,13.23,0,0,1,188.813,41.047Zm4.751-2.209a14.7,14.7,0,0,1-.141,2.472,1.725,1.725,0,0,1-.578,1,.956.956,0,0,1-.508.157,1.342,1.342,0,0,1-.912-.315.9.9,0,0,1-.333-.772c0-.157.192-.35.578-.6a3.243,3.243,0,0,0,.982-.789,3.509,3.509,0,0,0,.561-1.227Z" fill="#1a1311"/>
      <path id="Path_4044" data-name="Path 4044" d="M208.537,38.979v1.577h.964a5.129,5.129,0,0,0,.526-.648c.386-.474.631-.719.7-.719.192,0,.525.245.981.7.439.491.667.771.667.877a.246.246,0,0,1-.281.263h-3.559v1.315h.684c.227-.246.455-.474.666-.667a.637.637,0,0,1,.421-.228,2.816,2.816,0,0,1,.894.421c.543.351.824.6.824.737a.692.692,0,0,1-.281.473.675.675,0,0,0-.193.491V45.08c0,.49.018,1.139.071,1.981,0,.228-.281.385-.842.491a4.245,4.245,0,0,1-.526.052c-.333,0-.491-.158-.491-.473h-1.227v1.648h1.227a3.331,3.331,0,0,0,.421-.491c.3-.35.473-.543.544-.543.157,0,.42.193.771.561s.526.6.526.666c0,.193-.07.281-.21.281h-3.279v1.4q1.735-.157,3.314-.368c.017-.035.034-.053.052-.088a11.027,11.027,0,0,0,1.07-3.454,37.726,37.726,0,0,0,.262-4.751,7.68,7.68,0,0,0-1.35.14l-.262-.824a9.719,9.719,0,0,0,1.612.193c0-.508.018-1.052.018-1.63a24.8,24.8,0,0,0-.193-2.665c.6.1,1.21.21,1.823.333.789.14,1.193.3,1.193.473,0,.158-.158.3-.473.4-.264.106-.4.211-.421.351,0,1.052-.018,1.964-.018,2.753h.912a4.614,4.614,0,0,1,.456-.579c.263-.3.473-.456.631-.456a2.635,2.635,0,0,1,1.052.614c.526.421.806.718.806.894q0,.157-.315.368a.859.859,0,0,0-.316.526c-.053,1.893-.157,3.8-.333,5.733a13.726,13.726,0,0,1-.544,2.875,2.251,2.251,0,0,1-1.139,1.333,4.2,4.2,0,0,1-1.263.333c-.14,0-.245-.211-.315-.6a2.485,2.485,0,0,0-1.4-1.6l.07-.281a11.129,11.129,0,0,0,1.719.281.61.61,0,0,0,.6-.439,15.231,15.231,0,0,0,.438-3.4c.123-1.789.193-3.489.193-5.137h-1.245a33.76,33.76,0,0,1-.21,3.8,10.634,10.634,0,0,1-.772,3.174,9.223,9.223,0,0,1-1.525,2.332,10.419,10.419,0,0,1-2.682,2l-.141-.28a12.885,12.885,0,0,0,1.771-2.315,34.84,34.84,0,0,1-6.82,1.807c-.281.017-.421.069-.421.157a.606.606,0,0,0-.07.211q-.08.21-.21.21c-.211,0-.438-.368-.719-1.087-.07-.211-.211-.509-.386-.964,1.3-.053,2.56-.123,3.77-.228v-1.56h-1.017c-1.017,0-1.718.034-2.122.069l-.28-.683a14.029,14.029,0,0,0,2.4.14h1.017V47.131h-1.158v.351c0,.228-.28.385-.823.49a4.527,4.527,0,0,1-.544.053.476.476,0,0,1-.544-.543q.053-.9.053-1.789V43.9c0-.841-.053-1.648-.123-2.455a15.03,15.03,0,0,1,2.4.9h.737V41.03h-1.368c-1,0-1.7.035-2.121.07l-.281-.684a14.163,14.163,0,0,0,2.4.14h1.368V39.048c-.982.036-2.016.071-3.139.071l-.14-.351a34.44,34.44,0,0,0,3.945-.6,13.288,13.288,0,0,0,2.63-.912c.491.351.859.6,1.1.754.491.351.736.6.736.754,0,.14-.122.211-.333.211l-.754-.141C210.115,38.908,209.361,38.943,208.537,38.979ZM206.749,44.4V42.818h-1.158V44.4Zm0,2.261V44.869h-1.158v1.788Zm1.788-2.261h1.227V42.818h-1.227Zm0,2.261h1.227V44.869h-1.227Z" fill="#1a1311"/>
      <path id="Path_4045" data-name="Path 4045" d="M229.191,40.7c.771.228,1.157.439,1.157.614,0,.14-.123.246-.333.316-.246.035-.386.14-.421.3A8.224,8.224,0,0,1,228.7,43.5a7.89,7.89,0,0,1-.877.964h1.3a5.377,5.377,0,0,0,.509-.614c.368-.455.6-.7.666-.7.175,0,.474.228.876.684a2.89,2.89,0,0,1,.614.824c0,.193-.087.281-.262.281h-7c-1,0-1.7.034-2.122.069l-.262-.683a13.793,13.793,0,0,0,2.384.14h2.683a13.07,13.07,0,0,0,.42-1.543,17.655,17.655,0,0,0,.333-2.647C228.454,40.451,228.875,40.591,229.191,40.7Zm-1.473-3.067c.421.017.648.122.648.333,0,.07-.14.175-.385.3-.3.123-.438.281-.438.456v.877h.894a7.4,7.4,0,0,0,.543-.631q.579-.736.684-.736c.21,0,.526.245.982.718.438.474.666.754.666.859a.251.251,0,0,1-.281.281h-6.083c-1.017,0-1.718.035-2.122.07l-.28-.7a14.029,14.029,0,0,0,2.4.14h.754v-.824a8.28,8.28,0,0,0-.141-1.438C226.3,37.4,227.017,37.505,227.718,37.629Zm-2.227,9.292h2.192c.263-.3.508-.562.754-.79a.728.728,0,0,1,.473-.3,3.3,3.3,0,0,1,1.017.49c.6.421.911.719.911.877,0,.176-.122.333-.368.509a.668.668,0,0,0-.245.508v2.069c0,.561.017,1.315.07,2.261,0,.211-.315.386-.912.491a5.839,5.839,0,0,1-.6.053c-.333,0-.491-.192-.491-.544v-.754h-3.085V52.6c0,.228-.3.4-.859.508a4.736,4.736,0,0,1-.579.053.488.488,0,0,1-.543-.561c.035-.614.07-1.209.07-1.841V48.639a23.841,23.841,0,0,0-.141-2.543A20.885,20.885,0,0,1,225.491,46.921Zm.14-5.348a1.686,1.686,0,0,1,.614,1.035,1.837,1.837,0,0,1-.333,1.139,1.162,1.162,0,0,1-.894.439.6.6,0,0,1-.456-.159c-.1-.069-.193-.42-.263-1.016a7.029,7.029,0,0,0-.649-2.244l.263-.211A7.259,7.259,0,0,1,225.631,41.573ZM228.3,51.3V47.411h-3.085V51.3Zm9.591-12.957q.683.632.683.842c0,.14-.175.228-.525.3-.421.1-.649.21-.7.315a22.5,22.5,0,0,1-2.051,3.77,10.8,10.8,0,0,1,2.068,1.946,7.618,7.618,0,0,1,.667,1.315,4.208,4.208,0,0,1,.28,1.455,2.146,2.146,0,0,1-.508,1.6,3.25,3.25,0,0,1-1.175.947,2.429,2.429,0,0,1-1.069.333c-.14,0-.263-.21-.351-.666-.122-.491-.6-.929-1.42-1.332v3.576c0,.21-.281.386-.842.509a4.234,4.234,0,0,1-.525.052c-.421,0-.632-.193-.632-.561.088-1.227.14-2.332.14-3.278v-8.7c0-.825-.052-1.824-.14-3.016a11.641,11.641,0,0,1,2.157.754h1.473c.28-.263.508-.491.7-.666a1.118,1.118,0,0,1,.543-.228A3.175,3.175,0,0,1,237.887,38.347Zm-4.1,10.379a4.115,4.115,0,0,0,1.157.193,1.746,1.746,0,0,0,1.035-.227,1.758,1.758,0,0,0,.333-1.158,5.317,5.317,0,0,0-.316-1.981,8.121,8.121,0,0,0-1.262-1.981,35.1,35.1,0,0,0,.894-4.593h-1.841Z" fill="#1a1311"/>
      <path id="Path_4046" data-name="Path 4046" d="M253.649,40.924a3.806,3.806,0,0,1-.1.386,7.982,7.982,0,0,1,1.525.666,3.278,3.278,0,0,1,1.069.982,1.667,1.667,0,0,1,.281.877,1.2,1.2,0,0,1-.333.824.6.6,0,0,1-.211.21,7.757,7.757,0,0,1,.947.7c.543.456.824.772.824.947,0,.14-.14.228-.4.263a1.256,1.256,0,0,0-.544.07c-.508.246-1.1.491-1.77.737a.778.778,0,0,0,.192.14c.491.333.754.6.754.772,0,.14-.192.28-.578.438-.368.123-.561.28-.6.456-.3,1.893-.737,3.033-1.333,3.436a3.105,3.105,0,0,1-1.332.473c-.193,0-.333-.245-.439-.7-.122-.561-.911-1.087-2.366-1.63l.07-.421a14.59,14.59,0,0,0,2.472.35.761.761,0,0,0,.7-.35,8.478,8.478,0,0,0,.386-2.051h-3.805a6.181,6.181,0,0,1-1.034,2.1,7.026,7.026,0,0,1-2.086,1.612,15.8,15.8,0,0,1-4.1,1.14l-.141-.193a15.7,15.7,0,0,0,3.4-1.683,5.054,5.054,0,0,0,1.63-1.806A3.585,3.585,0,0,0,247.2,48.5h-1.315a10.629,10.629,0,0,0-2,.14l-.263-.824a9.926,9.926,0,0,0,2.262.21h1.42a12.372,12.372,0,0,0,.14-1.929c.684.141,1.228.246,1.613.316.7.14,1.07.3,1.07.438s-.141.263-.4.351c-.245.1-.385.228-.42.4-.035.158-.07.3-.106.421h3.524a3.354,3.354,0,0,1,.6-.614,1.2,1.2,0,0,1,.578-.35,1.029,1.029,0,0,1,.351.1,11.41,11.41,0,0,0,.6-1.332h-10.9c-.036.561-.07.964-.105,1.209a1.674,1.674,0,0,1-.509.964.751.751,0,0,1-.456.158,1.313,1.313,0,0,1-.964-.35.982.982,0,0,1-.351-.824c0-.141.176-.334.544-.544a2.944,2.944,0,0,0,.911-.719,2.983,2.983,0,0,0,.544-1.139l.4.07v.683h10.625c.21-.122.4-.227.561-.315a.223.223,0,0,0,.052-.035,6.191,6.191,0,0,1-.7-1.245,7.717,7.717,0,0,0-1.174-1.7.229.229,0,0,0-.053.123,4.58,4.58,0,0,1-1.332,1.753,7.642,7.642,0,0,1-2.157,1.158l-.14-.281a7.194,7.194,0,0,0,1.437-1.385,5.589,5.589,0,0,0,.877-1.806,10.916,10.916,0,0,0,.3-2.349c0-.789-.035-1.455-.07-2,.491.07.964.14,1.438.245.683.141,1.034.264,1.034.386,0,.141-.123.246-.333.351-.246.1-.351.228-.351.333-.052.631-.123,1.175-.192,1.631.157-.14.3-.3.438-.439a6.424,6.424,0,0,0,1.245-1.613c.49.316.964.614,1.384.877.4.281.614.491.614.631a.186.186,0,0,1-.21.211l-.894-.071A15.616,15.616,0,0,1,253.649,40.924Zm-9.012-2.086a16.781,16.781,0,0,1-.123,2.419,1.786,1.786,0,0,1-.508,1,.737.737,0,0,1-.456.14,1.345,1.345,0,0,1-.912-.315.9.9,0,0,1-.333-.772c0-.158.176-.35.544-.578a2.858,2.858,0,0,0,.911-.772,3.011,3.011,0,0,0,.544-1.192Zm2.034,2.209c-.035.123-.07.228-.105.333a9.058,9.058,0,0,1,1.472.562,3.332,3.332,0,0,1,1.052.841,1.347,1.347,0,0,1,.281.789.994.994,0,0,1-.3.719.847.847,0,0,1-.667.368c-.14,0-.42-.386-.823-1.175a7.935,7.935,0,0,0-1.228-1.525.961.961,0,0,0-.07.123,4.709,4.709,0,0,1-1.438,1.7,7.811,7.811,0,0,1-2.331,1.087l-.14-.28a6.584,6.584,0,0,0,1.63-1.315,4.8,4.8,0,0,0,1-1.7,8.349,8.349,0,0,0,.316-2.244c0-.789-.035-1.455-.07-2,.491.07.964.141,1.455.246.666.14,1.017.263,1.017.386,0,.14-.123.245-.333.35-.246.1-.351.228-.351.333-.07.631-.14,1.193-.21,1.666.14-.14.262-.3.4-.456a7.943,7.943,0,0,0,1.174-1.7c.492.316.965.614,1.386.877.385.281.6.491.6.631s-.071.211-.193.211L249.3,39.8A13.243,13.243,0,0,1,246.671,41.047Zm4.751-2.209a14.73,14.73,0,0,1-.14,2.472,1.731,1.731,0,0,1-.579,1,.956.956,0,0,1-.508.157,1.343,1.343,0,0,1-.912-.315.9.9,0,0,1-.333-.772c0-.157.193-.35.578-.6a3.231,3.231,0,0,0,.982-.789,3.474,3.474,0,0,0,.561-1.227Z" fill="#1a1311"/>
      <path id="Path_4047" data-name="Path 4047" d="M266.395,38.979v1.577h.964a5.028,5.028,0,0,0,.526-.648c.386-.474.632-.719.7-.719.193,0,.526.245.981.7.439.491.667.771.667.877a.246.246,0,0,1-.281.263h-3.559v1.315h.684c.228-.246.456-.474.666-.667a.638.638,0,0,1,.421-.228,2.806,2.806,0,0,1,.894.421c.544.351.824.6.824.737a.69.69,0,0,1-.28.473.671.671,0,0,0-.193.491V45.08c0,.49.017,1.139.07,1.981,0,.228-.281.385-.842.491a4.228,4.228,0,0,1-.526.052c-.333,0-.49-.158-.49-.473h-1.228v1.648h1.228a3.4,3.4,0,0,0,.421-.491c.3-.35.473-.543.543-.543.158,0,.42.193.771.561s.526.6.526.666c0,.193-.07.281-.21.281h-3.279v1.4q1.736-.157,3.314-.368c.018-.035.035-.053.052-.088a11,11,0,0,0,1.07-3.454,37.661,37.661,0,0,0,.263-4.751,7.656,7.656,0,0,0-1.35.14l-.263-.824a9.731,9.731,0,0,0,1.613.193c0-.508.017-1.052.017-1.63a25.026,25.026,0,0,0-.192-2.665c.6.1,1.209.21,1.823.333.789.14,1.192.3,1.192.473,0,.158-.158.3-.473.4-.263.106-.4.211-.421.351,0,1.052-.017,1.964-.017,2.753h.911a4.707,4.707,0,0,1,.456-.579c.263-.3.473-.456.631-.456a2.635,2.635,0,0,1,1.052.614c.526.421.806.718.806.894q0,.157-.315.368a.862.862,0,0,0-.315.526c-.053,1.893-.158,3.8-.334,5.733a13.679,13.679,0,0,1-.543,2.875,2.252,2.252,0,0,1-1.14,1.333,4.191,4.191,0,0,1-1.262.333c-.14,0-.245-.211-.316-.6a2.485,2.485,0,0,0-1.4-1.6l.07-.281a11.124,11.124,0,0,0,1.718.281.61.61,0,0,0,.6-.439,15.231,15.231,0,0,0,.438-3.4c.123-1.789.193-3.489.193-5.137h-1.244a33.943,33.943,0,0,1-.211,3.8,10.666,10.666,0,0,1-.771,3.174,9.2,9.2,0,0,1-1.526,2.332,10.42,10.42,0,0,1-2.682,2l-.141-.28a12.838,12.838,0,0,0,1.771-2.315,34.822,34.822,0,0,1-6.82,1.807c-.28.017-.42.069-.42.157a.606.606,0,0,0-.071.211q-.078.21-.21.21c-.21,0-.438-.368-.719-1.087-.07-.211-.21-.509-.386-.964,1.3-.053,2.56-.123,3.77-.228v-1.56H263.59c-1.017,0-1.718.034-2.121.069l-.281-.683a14.037,14.037,0,0,0,2.4.14h1.017V47.131H263.45v.351c0,.228-.28.385-.824.49a4.509,4.509,0,0,1-.544.053.475.475,0,0,1-.543-.543q.053-.9.052-1.789V43.9c0-.841-.052-1.648-.122-2.455a15.1,15.1,0,0,1,2.4.9h.736V41.03h-1.368c-1,0-1.7.035-2.121.07l-.281-.684a14.178,14.178,0,0,0,2.4.14h1.368V39.048c-.982.036-2.016.071-3.138.071l-.141-.351a34.371,34.371,0,0,0,3.945-.6,13.245,13.245,0,0,0,2.63-.912c.491.351.859.6,1.1.754.492.351.737.6.737.754,0,.14-.123.211-.333.211l-.754-.141C267.973,38.908,267.219,38.943,266.395,38.979ZM264.607,44.4V42.818H263.45V44.4Zm0,2.261V44.869H263.45v1.788Zm1.788-2.261h1.228V42.818h-1.228Zm0,2.261h1.228V44.869h-1.228Z" fill="#1a1311"/>
      <path id="Path_4048" data-name="Path 4048" d="M283.49,41.713h2.525c.035-.543.052-1.1.07-1.7,0-1.017-.035-1.859-.07-2.542.649.087,1.28.193,1.893.333.877.175,1.333.333,1.333.491,0,.175-.14.333-.421.456-.316.14-.473.3-.473.438-.071.929-.14,1.771-.228,2.524h3.857a3.4,3.4,0,0,1,.561-.666c.3-.368.544-.561.737-.561a2.9,2.9,0,0,1,1.209.719c.614.526.929.877.929,1.07,0,.1-.122.245-.333.42a.945.945,0,0,0-.35.6c-.071,1.841-.193,3.682-.4,5.541a10.4,10.4,0,0,1-.666,2.805,2.339,2.339,0,0,1-1.332,1.279,5.458,5.458,0,0,1-1.508.317c-.228,0-.4-.229-.508-.667-.141-.666-.9-1.262-2.227-1.806l.07-.351a21.059,21.059,0,0,0,2.735.351.741.741,0,0,0,.737-.4,12.9,12.9,0,0,0,.525-3.244c.158-1.718.246-3.348.246-4.909h-4.331a20.2,20.2,0,0,1-1,4.769A10,10,0,0,1,284.6,50.76a12.949,12.949,0,0,1-3.98,2.473l-.14-.351a15.361,15.361,0,0,0,3.086-3.209,12.6,12.6,0,0,0,1.91-4.19,21.372,21.372,0,0,0,.509-3.279h-2.49a8.252,8.252,0,0,0-1.858.141l-.263-.824A10.28,10.28,0,0,0,283.49,41.713Z" fill="#1a1311"/>
      <path id="Path_4049" data-name="Path 4049" d="M303.32,38.154H306.2c.281-.28.508-.508.666-.649.194-.192.333-.3.439-.3.175,0,.579.28,1.175.841.525.6.806.947.806,1.07,0,.175-.246.28-.7.315-.246.035-.439.07-.544.088a7.618,7.618,0,0,0,.964.6,8.277,8.277,0,0,0,.983-1.1,5.914,5.914,0,0,0,.946-1.683c.473.281.894.509,1.245.7.49.263.736.473.736.613s-.123.228-.35.246q-.422,0-.474.157a8.125,8.125,0,0,1-1.122.79,6.694,6.694,0,0,1-1.35.6,13.274,13.274,0,0,0,1.473.666,8.45,8.45,0,0,0,1.034-.877,5.194,5.194,0,0,0,1.07-1.455c.473.28.894.508,1.245.7.49.263.736.473.736.614s-.123.228-.351.245q-.42,0-.473.158a9.094,9.094,0,0,1-1.244.6,9.349,9.349,0,0,1-1.036.316,1.934,1.934,0,0,0,.474.123,13.4,13.4,0,0,0,3.033.333l-.07.421a1.76,1.76,0,0,0-.981,1.122c-.106.3-.211.438-.317.438a.829.829,0,0,1-.21-.018l.018.3a1.127,1.127,0,0,0,.315.7q.422.367.421.525c0,.316-.21.544-.614.667a5.11,5.11,0,0,1-1.577.228,4.09,4.09,0,0,1-1.614-.141c-.421-.1-.63-.543-.63-1.3V43.5h-.964a5.7,5.7,0,0,1-.282,1.718,2.332,2.332,0,0,1-.929,1.087,6.055,6.055,0,0,1-1.665.684l-.14-.263a4.153,4.153,0,0,0,.7-.649,2.168,2.168,0,0,0,.333-.7,5.808,5.808,0,0,0,.122-1.123,15.765,15.765,0,0,0-.122-1.98,17.443,17.443,0,0,1,2.192.753h.544a5.673,5.673,0,0,1,.49-.561,8.054,8.054,0,0,1-1.105-.754,12,12,0,0,1-1.911-1.875,16.622,16.622,0,0,1-2.42,1.875,14.358,14.358,0,0,1-2.12,1.1h1.507c.193-.246.352-.473.491-.649a.566.566,0,0,1,.4-.245,2.292,2.292,0,0,1,.983.526c.525.368.806.631.806.771,0,.123-.122.246-.369.351-.228.122-.35.228-.385.333v2.262c0,.21-.263.35-.789.438a4.074,4.074,0,0,1-.509.052c-.332,0-.49-.14-.49-.42v-.211H303l-.578,1.859h1.788c.245-.175.4-.316.509-.4a1.887,1.887,0,0,1,.578-.281,2.427,2.427,0,0,1,.982.578q.736.579.737.789c0,.158-.141.3-.421.421s-.4.228-.4.333a15.038,15.038,0,0,1-.912,2.893,1.785,1.785,0,0,1-.877.771,2.659,2.659,0,0,1-.946.247c-.14,0-.263-.194-.368-.58-.14-.456-.684-.928-1.613-1.419V50.9a10.067,10.067,0,0,0,1.63.21.686.686,0,0,0,.666-.333,11.817,11.817,0,0,0,.719-2.419h-2.226l-.105.351c0,.21-.3.316-.894.333-.6,0-.894-.1-.894-.333a14.207,14.207,0,0,0,.894-4.05,13.405,13.405,0,0,1,1.823.894h1.6V43.291h-2.736v-.052a15.183,15.183,0,0,1-2.261.666l-.21-.263a21.178,21.178,0,0,0,3.348-1.946.355.355,0,0,1-.123.017c-.263,0-.491-.192-.666-.613a4.752,4.752,0,0,0-1.245-1.7l.123-.28a10.337,10.337,0,0,1,2.315.648.968.968,0,0,1,.56.789,1.043,1.043,0,0,1-.158.561,15.837,15.837,0,0,0,2.631-2.472H303.32c-.929,0-1.63.035-2.122.07l-.333-.7A21.863,21.863,0,0,0,303.32,38.154Zm5.417,9.117h2.122a3.4,3.4,0,0,1,.438-.438c.246-.245.438-.386.578-.386a3.342,3.342,0,0,1,1.035.666c.631.491.965.807.965.982,0,.14-.158.263-.439.368-.35.1-.561.229-.6.386a7.689,7.689,0,0,1-1.42,1.736.181.181,0,0,0,.088.035,12.536,12.536,0,0,0,3.453.823l-.14.351a1.289,1.289,0,0,0-.877.9c-.1.35-.21.544-.28.544a4.027,4.027,0,0,1-1.578-.474,7.875,7.875,0,0,1-2-1.21.507.507,0,0,0-.141.088,19.759,19.759,0,0,1-4.365,1.665l-.141-.21a17.333,17.333,0,0,0,2.717-1.6,8.555,8.555,0,0,0,1.035-.893,5.313,5.313,0,0,1-.491-.807,9.092,9.092,0,0,1-.788-2.034c-.527.017-.859.035-1.035.053l-.263-.684A17.284,17.284,0,0,0,308.737,47.271Zm.982,2.227a1.159,1.159,0,0,0,.211.21A5.974,5.974,0,0,0,311,47.745c-1.122,0-2.016.017-2.665.017A6.947,6.947,0,0,0,309.719,49.5Zm2.6-5.628c-.3.14-.44.28-.44.456v.21c0,.228.035.351.141.386a.976.976,0,0,0,.544.087l.35-.052c.176,0,.316-.14.421-.438.069-.211.14-.474.245-.789a7.852,7.852,0,0,1-.877-.3C312.7,43.572,312.56,43.712,312.315,43.87Z" fill="#1a1311"/>
      <path id="Path_4050" data-name="Path 4050" d="M332.88,37.979c.6.4.894.684.894.859,0,.141-.123.263-.368.386a.855.855,0,0,0-.386.368V41.17c0,.21-.28.351-.824.438a3.672,3.672,0,0,1-.544.035c-.332,0-.49-.122-.49-.4v-.07H322.2v2.612c0,1.017-.035,1.929-.105,2.77a18.085,18.085,0,0,0,2.226.105h.4V44.115c-1,0-1.7.035-2.122.071l-.262-.684a13.793,13.793,0,0,0,2.384.14v-.614a8.366,8.366,0,0,0-.14-1.437c.736.07,1.455.158,2.156.28.438.035.666.14.666.333,0,.071-.14.175-.4.3-.28.14-.421.28-.421.455v.684h1.98V43.1a9.064,9.064,0,0,0-.139-1.507c.754.07,1.49.158,2.209.28.438.035.667.14.667.333,0,.088-.141.193-.387.316-.3.14-.437.316-.437.508v.614h.49a6.489,6.489,0,0,0,.526-.614c.386-.456.631-.683.7-.683.193,0,.509.227.929.666a3.012,3.012,0,0,1,.649.824.25.25,0,0,1-.28.28h-3.015v2.542h1.034a6.365,6.365,0,0,0,.578-.7c.4-.526.649-.806.72-.806.209,0,.56.263,1.05.771.492.526.737.824.737.929,0,.193-.122.281-.35.281h-6.066a5.017,5.017,0,0,0,.718,1.209,5.527,5.527,0,0,0,1,1.088,9.492,9.492,0,0,0,.772-.684,6.344,6.344,0,0,0,1.175-1.4q.814.527,1.525.947c.438.316.666.544.666.684s-.088.21-.263.21l-.963-.07a16.144,16.144,0,0,1-2.455.666.017.017,0,0,0,.017.018,6.289,6.289,0,0,0,1.823.876,15.388,15.388,0,0,0,2.665.632l-.07.421a1.438,1.438,0,0,0-1.122.893c-.157.4-.28.615-.368.615a4.378,4.378,0,0,1-1.227-.421,8.674,8.674,0,0,1-1.965-1.3A5.957,5.957,0,0,1,328.6,49.6a12.517,12.517,0,0,1-.929-2.472h-1.911v3.436c.912-.1,1.771-.21,2.6-.351l.07.193a16.856,16.856,0,0,1-4.927,2.157c-.193.017-.28.07-.28.175-.018.071-.035.141-.053.245-.035.159-.069.247-.14.247-.246,0-.526-.421-.859-1.228-.105-.228-.246-.579-.456-1.1.719-.035,1.42-.087,2.122-.158V47.131c-.771.018-1.315.035-1.631.07l-.123-.316c-.035.369-.088.719-.123,1.035a10.072,10.072,0,0,1-1.087,2.98,11.719,11.719,0,0,1-1.823,2.192l-.351-.141a14.442,14.442,0,0,0,1.193-3.365,33.43,33.43,0,0,0,.385-5.8c0-2.91-.07-5.014-.192-6.311a15.666,15.666,0,0,1,2.331.894h8.346c.21-.263.4-.491.561-.7a.6.6,0,0,1,.473-.264A2.462,2.462,0,0,1,332.88,37.979ZM322.2,40.7h8.959V38.838H322.2Zm6.363,3.419h-1.98v2.542h1.98Z" fill="#1a1311"/>
      <path id="Path_4051" data-name="Path 4051" d="M342.032,43.432h1.718v-.4a8.264,8.264,0,0,0-.14-1.437c.737.07,1.456.158,2.157.28.421.035.649.14.649.333,0,.071-.141.175-.4.3-.279.14-.42.28-.42.455v.474h.964a3.627,3.627,0,0,0,.509-.579c.35-.421.578-.649.648-.649.176,0,.456.228.842.649.262.3.437.508.543.649.631-.491,1.28-1.017,1.911-1.578.561.421,1,.754,1.35.981.508.386.772.649.772.807,0,.14-.106.193-.281.193l-.9-.07c-1.226.7-2.436,1.332-3.594,1.858h2.508a6.791,6.791,0,0,0,.578-.684c.4-.49.649-.754.719-.754.211,0,.561.246,1.018.737a3.039,3.039,0,0,1,.7.911c0,.176-.123.264-.352.264h-6.206a37.114,37.114,0,0,1-3.8,1.437h5.627a10.04,10.04,0,0,1,.754-.736.756.756,0,0,1,.492-.28,3.3,3.3,0,0,1,1,.49c.6.421.912.719.912.877,0,.175-.141.333-.4.508a.663.663,0,0,0-.28.509v1.385c0,.543.018,1.28.07,2.244,0,.228-.316.4-.912.508a5.248,5.248,0,0,1-.6.053c-.334,0-.493-.193-.493-.561v-.333h-6.907V52.6c0,.228-.315.385-.911.491-.281.035-.474.07-.6.07a.489.489,0,0,1-.544-.561l.071-3.068V48.34a19.6,19.6,0,0,1-2.541.439l-.141-.421a39.361,39.361,0,0,0,6.486-2.191h-4.085c-1,0-1.7.035-2.121.07l-.28-.684a14.158,14.158,0,0,0,2.4.14h3.226V43.9h-1.718c-1.016,0-1.717.035-2.121.07l-.28-.684A14.025,14.025,0,0,0,342.032,43.432Zm-.946-5.278h9.239c.193-.228.368-.42.509-.578a.631.631,0,0,1,.438-.246,2.507,2.507,0,0,1,1.052.561c.578.386.877.649.877.824,0,.123-.123.246-.334.369a.82.82,0,0,0-.35.368V41.38c0,.193-.3.333-.876.421a5.091,5.091,0,0,1-.562.053c-.315,0-.473-.123-.473-.4H341v.263c0,.229-.3.386-.877.491a2.778,2.778,0,0,1-.56.071c-.369,0-.543-.176-.543-.562a9.685,9.685,0,0,0,.069-1.086V38.908c0-.421-.035-.911-.069-1.508A14.906,14.906,0,0,1,341.086,38.154Zm-.088.491V40.96h1.929V38.645Zm8.7,11.028V48.1h-6.976v1.578Zm0,2.121V50.147h-6.959l.035,1.647Zm-4.925-13.149V40.96h2.05V38.645Zm.894,6.978a19.5,19.5,0,0,0,2.875-1.718h-2.945v1.753C345.609,45.658,345.627,45.641,345.662,45.623Zm4.926-6.978h-1.91V40.96h1.91Z" fill="#1a1311"/>
      <path id="Path_4052" data-name="Path 4052" d="M361.459,38.575h7.328a5.152,5.152,0,0,0,.527-.649c.385-.473.63-.718.7-.718.21,0,.526.245.981.7a3.317,3.317,0,0,1,.666.859.249.249,0,0,1-.279.28h-5.208v1.228h4.313c.21-.175.385-.316.543-.438a.906.906,0,0,1,.492-.316,3,3,0,0,1,1.069.736c.508.438.771.737.771.912,0,.14-.14.245-.4.28a1.218,1.218,0,0,0-.544.071,15.954,15.954,0,0,1-1.683.648,1.708,1.708,0,0,1,.175.3.25.25,0,0,1-.279.281h-2.192a13.6,13.6,0,0,0-1.508.07l-.263-.684a7.7,7.7,0,0,0,1.771.141c.035-.018.174-.211.456-.562.315-.4.507-.613.578-.613.176,0,.438.193.789.561a6.821,6.821,0,0,0,.438-.894h-4.523V45.08c0,.228-.316.385-.911.49a5.255,5.255,0,0,1-.6.053.476.476,0,0,1-.544-.543,23.066,23.066,0,0,0,.141-2.876V40.767H359.32a6.918,6.918,0,0,1-.123,1.35.076.076,0,0,1-.017.052,16.21,16.21,0,0,0,2.068.106,5.5,5.5,0,0,0,.439-.562c.333-.4.526-.613.6-.613.175,0,.455.21.842.613a3.084,3.084,0,0,1,.6.754.251.251,0,0,1-.281.281h-2.192c-.964,0-1.647.035-2.051.07l-.123-.3a1.171,1.171,0,0,1-.385.561.737.737,0,0,1-.456.14,1.339,1.339,0,0,1-.912-.316.93.93,0,0,1-.315-.771c0-.14.176-.333.543-.543a2.924,2.924,0,0,0,.894-.719,2.966,2.966,0,0,0,.543-1.14l.352.07v.474h4.926V39.048h-2.8c-1.018,0-1.719.036-2.121.071l-.281-.684A14.029,14.029,0,0,0,361.459,38.575Zm-1.367,9.45H369.8a5.889,5.889,0,0,0,.6-.736c.439-.561.7-.842.772-.842.227,0,.6.281,1.1.807a3.324,3.324,0,0,1,.754.964c0,.193-.123.281-.35.281h-7.925a30.233,30.233,0,0,1-2.314,2.366c1.963-.035,3.979-.088,6.013-.193a9.6,9.6,0,0,0-1.1-1.279l.193-.421a9.809,9.809,0,0,1,2.174.876,3.356,3.356,0,0,1,1.139,1.052,1.63,1.63,0,0,1,.316.964,1.2,1.2,0,0,1-.368.86.972.972,0,0,1-.789.438c-.157,0-.456-.491-.894-1.437-.088-.158-.176-.316-.263-.456a52.26,52.26,0,0,1-8.5,1.472c-.071,0-.123.106-.159.351-.051.263-.139.4-.245.4-.281,0-.509-.333-.7-.964-.141-.351-.351-.894-.6-1.631.737,0,1.491,0,2.245-.017a22.816,22.816,0,0,0,1.4-2.384h-2.209c-1.018,0-1.719.034-2.122.069l-.28-.683A14.021,14.021,0,0,0,360.092,48.025Zm1.156-3.7c.035-.018.193-.211.509-.579.368-.421.579-.649.649-.649.175,0,.473.228.859.649s.579.684.579.789a.233.233,0,0,1-.264.263h-2.332c-1.069,0-1.822.035-2.262.07l-.262-.683A15.284,15.284,0,0,0,361.248,44.326Zm.544,1.841h6.031a7.437,7.437,0,0,0,.544-.632c.385-.49.614-.736.684-.736.21,0,.525.246.981.719.439.473.666.754.666.859a.249.249,0,0,1-.28.28h-8.626c-1,0-1.7.035-2.122.071l-.262-.7A13.772,13.772,0,0,0,361.792,46.167Zm7.136-1.981a3.539,3.539,0,0,0,.508-.579c.351-.421.579-.649.649-.649.175,0,.456.228.841.649s.6.684.6.789a.246.246,0,0,1-.281.263h-2.314c-.947,0-1.613.035-2,.07l-.263-.684A12.347,12.347,0,0,0,368.928,44.186Z" fill="#1a1311"/>
      <path id="Path_4053" data-name="Path 4053" d="M379.149,48.709a11.352,11.352,0,0,0,.088-1.368c.474.053.947.123,1.4.211.667.105,1,.227,1,.333,0,.14-.122.245-.332.315-.246.071-.369.14-.369.228-.018.1-.036.211-.053.281h1.3a3.6,3.6,0,0,1,.456-.456,1.088,1.088,0,0,1,.631-.368,2.372,2.372,0,0,1,1.017.578c.508.421.772.7.772.859,0,.106-.106.211-.3.333-.211.193-.316.351-.316.492a9.331,9.331,0,0,1-.262,1.682,2.314,2.314,0,0,1-.421.842,1.635,1.635,0,0,1-.877.386,6.481,6.481,0,0,1-.982.1c-.14,0-.228-.176-.3-.509-.087-.507-.543-.963-1.35-1.349l.07-.194a13.031,13.031,0,0,0,1.649.194.3.3,0,0,0,.262-.106,2.155,2.155,0,0,0,.193-.806,9.757,9.757,0,0,0,.088-1.21H380.8a5.906,5.906,0,0,1-.684,1.842,4.093,4.093,0,0,1-1.314,1.314,8.748,8.748,0,0,1-2.174.964l-.07-.21a9.934,9.934,0,0,0,1.472-1.332,4.245,4.245,0,0,0,.772-1.385,7.891,7.891,0,0,0,.281-1.193,7.619,7.619,0,0,0-1.771.14l-.264-.823A10.22,10.22,0,0,0,379.149,48.709Zm3.91-3.367c.281.141.422.316.422.492a1.2,1.2,0,0,1-.37.823c-.035.035-.07.071-.087.071h2.227a9.786,9.786,0,0,0,.562-1.788c.472.175.946.333,1.4.49.42.176.648.351.648.544,0,.088-.123.14-.334.157-.21.036-.332.071-.349.106a8.849,8.849,0,0,1-1.088.491h3.559a5.246,5.246,0,0,0,.527-.649c.385-.491.631-.737.7-.737.192,0,.525.246.981.72.439.473.667.754.667.859a.25.25,0,0,1-.281.28H379.027c-1,0-1.7.035-2.122.07l-.28-.683a14.27,14.27,0,0,0,2.4.14h3.138a.649.649,0,0,1-.14-.264,3.693,3.693,0,0,0-.806-1.244l.139-.28A8.642,8.642,0,0,1,383.059,45.342ZM379.5,38.768h3.981a9.511,9.511,0,0,0-.141-1.56,23.036,23.036,0,0,1,2.314.315c.455.035.7.158.7.368,0,.071-.141.176-.421.3-.316.122-.474.28-.474.455v.123h3.84a6.1,6.1,0,0,0,.578-.7c.4-.526.648-.807.719-.807.211,0,.561.263,1.052.772q.736.789.737.947c0,.192-.123.28-.352.28h-6.574v1.508h2.683a6.848,6.848,0,0,0,.526-.614c.385-.456.631-.7.7-.7.193,0,.508.228.93.683a3.04,3.04,0,0,1,.648.825.25.25,0,0,1-.281.28h-9.993c-1.017,0-1.718.035-2.122.07l-.279-.683a14.009,14.009,0,0,0,2.4.14h2.806V39.259H379.5c-1,0-1.7.035-2.121.07l-.264-.684A16.276,16.276,0,0,0,379.5,38.768Zm9.713,3.138c.561.351.842.614.842.772,0,.122-.106.245-.3.35a.558.558,0,0,0-.315.333V44.8c0,.228-.316.386-.912.491a5.388,5.388,0,0,1-.6.052.418.418,0,0,1-.474-.473v-.14h-6.452v.07c0,.21-.263.351-.789.438a3.911,3.911,0,0,1-.508.053c-.369,0-.544-.158-.544-.491a8.43,8.43,0,0,0,.07-1.017v-.964c0-.386-.035-.842-.07-1.368a13.427,13.427,0,0,1,2.052.754h6.031c.192-.228.367-.421.525-.6a.641.641,0,0,1,.439-.228A2.419,2.419,0,0,1,389.213,41.906Zm-8.205,2.349h6.452V42.678h-6.452Zm6.68,4.1h1.21a8.353,8.353,0,0,1,.7-.684.658.658,0,0,1,.456-.263,3.076,3.076,0,0,1,.965.456c.578.421.876.7.876.842,0,.158-.122.316-.351.473a.633.633,0,0,0-.264.491v.736c0,.491.018,1.158.071,2,0,.21-.281.386-.825.492a4.562,4.562,0,0,1-.543.051.417.417,0,0,1-.472-.472v-.562h-2.193v.562c0,.21-.262.385-.788.49a4.132,4.132,0,0,1-.509.053.488.488,0,0,1-.561-.543c.035-.562.07-1.087.07-1.649v-.964a20.011,20.011,0,0,0-.14-2.332A15.809,15.809,0,0,1,387.688,48.358Zm1.824,3.085V48.849h-2.193v2.594Z" fill="#1a1311"/>
      <path id="Path_4054" data-name="Path 4054" d="M398.734,39.8h4.1a18.908,18.908,0,0,0-.21-2.594c.544.07,1.245.175,2.121.315.685.106,1.034.228,1.034.368,0,.193-.192.351-.56.491-.281.088-.4.246-.4.456V39.8h3.63a4.982,4.982,0,0,0,.666-.771c.473-.579.754-.877.842-.877.244,0,.613.281,1.139.842s.789.894.789,1.017c0,.175-.123.263-.351.263h-6.715v2h3.49c.175-.158.3-.281.4-.386.334-.281.562-.439.7-.439a3.13,3.13,0,0,1,1.157.632c.543.421.825.718.825.876,0,.123-.141.281-.387.491-.35.245-.508.456-.508.666v7.469a1.488,1.488,0,0,1-.93,1.35,2.919,2.919,0,0,1-1.261.368c-.123,0-.229-.228-.334-.666-.14-.526-.7-.982-1.648-1.332l.071-.333a11.177,11.177,0,0,0,1.911.192c.175,0,.28-.175.28-.543V42.748h-9.38v9.993c0,.21-.3.386-.877.509a4.974,4.974,0,0,1-.56.052.488.488,0,0,1-.543-.561c.034-.613.069-1.21.069-1.841V43.975a23.773,23.773,0,0,0-.14-2.525,17.113,17.113,0,0,1,2.349.825h3.331v-2h-4.383a16.7,16.7,0,0,0-2.332.14l-.28-.824A22.075,22.075,0,0,0,398.734,39.8Zm7.713,3.892c.457.246.7.421.7.561,0,.158-.123.246-.35.264-.281,0-.439.052-.474.14a5.252,5.252,0,0,1-.736.789,3.2,3.2,0,0,1-.842.578h1.245a2.327,2.327,0,0,0,.421-.438c.28-.333.456-.508.527-.508q.209,0,.736.526c.332.35.508.561.508.631,0,.193-.071.28-.211.28h-3.226c0,.7,0,1.333.018,1.911h1.157a3.03,3.03,0,0,0,.438-.543c.316-.4.509-.614.58-.614.174,0,.472.211.858.614.386.421.579.666.579.754,0,.193-.088.28-.264.28h-3.348c.017,1.42.052,2.49.123,3.209,0,.157-.175.28-.491.368a7.094,7.094,0,0,1-1.158.105.434.434,0,0,1-.473-.333c.035-.859.052-1.981.07-3.349h-.754c-1.016,0-1.718.018-2.121.053l-.28-.684a14.15,14.15,0,0,0,2.4.14h.754V46.517h-.473c-1.017,0-1.718.035-2.138.071l-.264-.685a16.532,16.532,0,0,0,2.4.123h1.7a9.952,9.952,0,0,0,.683-1.367,8.993,8.993,0,0,0,.491-1.631C405.693,43.291,406.1,43.519,406.447,43.694Zm-3.8.281a1.15,1.15,0,0,1,.473.894,1.118,1.118,0,0,1-.351.772.8.8,0,0,1-.614.262c-.211,0-.368-.21-.507-.648a5.935,5.935,0,0,0-1-1.753l.14-.281A6.124,6.124,0,0,1,402.644,43.975Z" fill="#1a1311"/>
      <path id="Path_4055" data-name="Path 4055" d="M421.035,39.294c.631.175.948.351.948.508,0,.176-.176.3-.527.333-.28.053-.456.123-.491.211a13.779,13.779,0,0,1-2.086,3.121,11,11,0,0,1-.859.929,8.933,8.933,0,0,0,1.7.14h5.066a3.735,3.735,0,0,1,.527-.649c.28-.35.526-.526.718-.526a2.753,2.753,0,0,1,1.122.666c.561.474.86.807.86.982,0,.106-.123.246-.369.386-.262.228-.385.421-.385.579-.053,1.332-.158,2.682-.3,4.05a7.757,7.757,0,0,1-.508,2.034,1.645,1.645,0,0,1-1,.928,4.129,4.129,0,0,1-1.138.247c-.211,0-.37-.229-.475-.65-.14-.666-.823-1.226-2.068-1.753l.07-.28a18.425,18.425,0,0,0,2.543.35.4.4,0,0,0,.367-.28,11.674,11.674,0,0,0,.264-2.227c.07-1.175.123-2.3.123-3.384h-2.631a11.7,11.7,0,0,1-.649,3.437,8.416,8.416,0,0,1-1.069,1.929,6.3,6.3,0,0,1-1.753,1.454,16.111,16.111,0,0,1-3.086,1.4l-.193-.421a8.682,8.682,0,0,0,1.842-1.228,7.912,7.912,0,0,0,1.543-1.77,6.349,6.349,0,0,0,.876-1.964,12.016,12.016,0,0,0,.385-2.841h-.683a8.081,8.081,0,0,0-1.842.141l-.157-.456a20.849,20.849,0,0,1-2.1,1.683l-.209-.281a19.8,19.8,0,0,0,2.192-3.173,20.481,20.481,0,0,0,1.717-4.155C419.966,38.979,420.545,39.154,421.035,39.294Zm3.489-.579a6.488,6.488,0,0,1,.492-.666c.262-.28.49-.438.666-.438a2.448,2.448,0,0,1,1,.6c.526.4.789.7.789.912,0,.175-.263.368-.754.561q-.631.21-.632.473a3.492,3.492,0,0,0,1.229,1.49,6.279,6.279,0,0,0,1.822,1.017,9.962,9.962,0,0,0,2.034.631l-.14.491a1.229,1.229,0,0,0-.789.965c-.1.543-.211.806-.316.806a3.083,3.083,0,0,1-1.455-.772,6.406,6.406,0,0,1-1.84-1.876,12.26,12.26,0,0,1-1.421-3.716c-1.385,0-2.384.035-3.016.07l-.28-.684C422.964,38.68,423.84,38.715,424.524,38.715Z" fill="#1a1311"/>
      <path id="Path_4056" data-name="Path 4056" d="M438.463,43.432h1.719v-.4a8.268,8.268,0,0,0-.141-1.437c.736.07,1.455.158,2.156.28.421.035.649.14.649.333,0,.071-.14.175-.4.3-.281.14-.421.28-.421.455v.474h.964a3.454,3.454,0,0,0,.509-.579c.351-.421.578-.649.649-.649.174,0,.456.228.841.649.263.3.439.508.544.649.631-.491,1.28-1.017,1.911-1.578.56.421,1,.754,1.349.981.509.386.772.649.772.807,0,.14-.105.193-.28.193l-.894-.07c-1.228.7-2.438,1.332-3.594,1.858H447.3a6.865,6.865,0,0,0,.579-.684c.4-.49.649-.754.719-.754.21,0,.561.246,1.016.737a3.033,3.033,0,0,1,.7.911c0,.176-.123.264-.35.264h-6.207a37.04,37.04,0,0,1-3.8,1.437h5.628a9.853,9.853,0,0,1,.754-.736.752.752,0,0,1,.491-.28,3.281,3.281,0,0,1,1,.49c.6.421.911.719.911.877,0,.175-.139.333-.4.508a.662.662,0,0,0-.281.509v1.385c0,.543.017,1.28.07,2.244,0,.228-.315.4-.911.508a5.236,5.236,0,0,1-.6.053c-.332,0-.49-.193-.49-.561v-.333h-6.908V52.6c0,.228-.316.385-.912.491-.28.035-.473.07-.6.07a.488.488,0,0,1-.543-.561l.07-3.068V48.34a19.6,19.6,0,0,1-2.543.439l-.14-.421a39.326,39.326,0,0,0,6.488-2.191h-4.086c-1,0-1.7.035-2.121.07l-.281-.684a14.164,14.164,0,0,0,2.4.14h3.227V43.9h-1.719c-1.017,0-1.718.035-2.121.07l-.281-.684A14.039,14.039,0,0,0,438.463,43.432Zm-.947-5.278h9.24c.193-.228.368-.42.508-.578a.631.631,0,0,1,.439-.246,2.506,2.506,0,0,1,1.051.561c.579.386.877.649.877.824,0,.123-.123.246-.333.369a.829.829,0,0,0-.351.368V41.38c0,.193-.3.333-.877.421a5.026,5.026,0,0,1-.56.053c-.316,0-.473-.123-.473-.4h-9.608v.263c0,.229-.3.386-.876.491a2.81,2.81,0,0,1-.562.071c-.368,0-.544-.176-.544-.562a9.19,9.19,0,0,0,.071-1.086V38.908c0-.421-.035-.911-.071-1.508A14.869,14.869,0,0,1,437.516,38.154Zm-.087.491V40.96h1.929V38.645Zm8.7,11.028V48.1h-6.978v1.578Zm0,2.121V50.147h-6.961l.035,1.647ZM441.2,38.645V40.96h2.052V38.645Zm.894,6.978a19.458,19.458,0,0,0,2.876-1.718h-2.946v1.753C442.039,45.658,442.057,45.641,442.092,45.623Zm4.928-6.978h-1.912V40.96h1.912Z" fill="#1a1311"/>
    </g>
    <g id="Group_2042" data-name="Group 2042">
      <path id="Path_4057" data-name="Path 4057" d="M186.367,58h1.646v.129h-.091a.7.7,0,0,0-.264.08,1.053,1.053,0,0,0-.317.23,3.089,3.089,0,0,0-.351.487l-1.138,1.792V61.9a.935.935,0,0,0,.1.543.537.537,0,0,0,.417.146h.153v.129h-2v-.129h.167a.482.482,0,0,0,.425-.181,1.056,1.056,0,0,0,.076-.508V60.786l-1.294-1.975a4.316,4.316,0,0,0-.311-.436,1.236,1.236,0,0,0-.339-.208.47.47,0,0,0-.2-.035V58h2.018v.129h-.1a.6.6,0,0,0-.3.077.248.248,0,0,0-.137.23,1.108,1.108,0,0,0,.212.452l.985,1.52.925-1.455a1.079,1.079,0,0,0,.209-.486.311.311,0,0,0-.05-.174.326.326,0,0,0-.145-.12.7.7,0,0,0-.282-.044Z" fill="#1a1311"/>
      <path id="Path_4058" data-name="Path 4058" d="M191.133,59.534v1.931a4.685,4.685,0,0,0,.027.677.3.3,0,0,0,.083.172.2.2,0,0,0,.134.048.627.627,0,0,0,.244-.058l.049.121-.954.393h-.156v-.674a2.872,2.872,0,0,1-.627.559.946.946,0,0,1-.455.115.725.725,0,0,1-.465-.155.792.792,0,0,1-.273-.4,2.411,2.411,0,0,1-.076-.689V60.153a.712.712,0,0,0-.049-.313.326.326,0,0,0-.145-.134.843.843,0,0,0-.346-.043v-.129h1.117v2.133a.8.8,0,0,0,.155.584.539.539,0,0,0,.374.14.774.774,0,0,0,.339-.095,1.852,1.852,0,0,0,.451-.358V60.133a.513.513,0,0,0-.1-.367.634.634,0,0,0-.413-.1v-.129Z" fill="#1a1311"/>
      <path id="Path_4059" data-name="Path 4059" d="M192.831,60.115a1.5,1.5,0,0,1,1.068-.674.773.773,0,0,1,.449.129.885.885,0,0,1,.3.43,2.028,2.028,0,0,1,.076.641V62a1.132,1.132,0,0,0,.049.41.28.28,0,0,0,.123.136.707.707,0,0,0,.315.049v.125h-1.576V62.6h.066a.523.523,0,0,0,.311-.069.349.349,0,0,0,.124-.2A2.042,2.042,0,0,0,194.15,62V60.7a1.325,1.325,0,0,0-.113-.631.4.4,0,0,0-.381-.2,1.15,1.15,0,0,0-.825.452V62a1.17,1.17,0,0,0,.039.4.32.32,0,0,0,.133.149.84.84,0,0,0,.347.047v.125h-1.576V62.6h.069a.374.374,0,0,0,.329-.124.9.9,0,0,0,.085-.471V60.817a5.05,5.05,0,0,0-.026-.7.3.3,0,0,0-.08-.17.218.218,0,0,0-.144-.046.664.664,0,0,0-.233.053l-.053-.125.961-.389h.149Z" fill="#1a1311"/>
      <path id="Path_4060" data-name="Path 4060" d="M196.56,57.774V62a1.16,1.16,0,0,0,.044.4.3.3,0,0,0,.134.147.761.761,0,0,0,.337.051v.125h-1.562V62.6a.673.673,0,0,0,.3-.046.294.294,0,0,0,.126-.15,1.165,1.165,0,0,0,.045-.4V59.107a5.1,5.1,0,0,0-.024-.664.293.293,0,0,0-.079-.168.2.2,0,0,0-.137-.045.648.648,0,0,0-.23.055l-.059-.122.95-.389Z" fill="#1a1311"/>
      <path id="Path_4061" data-name="Path 4061" d="M198.544,59.441V62a1.175,1.175,0,0,0,.043.4.3.3,0,0,0,.129.148.7.7,0,0,0,.311.049v.125h-1.548V62.6a.719.719,0,0,0,.313-.046.3.3,0,0,0,.128-.15,1.133,1.133,0,0,0,.046-.4V60.773a4.346,4.346,0,0,0-.031-.672.272.272,0,0,0-.077-.155.213.213,0,0,0-.142-.044.7.7,0,0,0-.237.053l-.049-.125.961-.389Zm-.289-1.667a.352.352,0,0,1,.249.6.335.335,0,0,1-.249.1.357.357,0,0,1-.355-.355.336.336,0,0,1,.1-.249A.342.342,0,0,1,198.255,57.774Z" fill="#1a1311"/>
      <path id="Path_4062" data-name="Path 4062" d="M200.353,60.115a1.5,1.5,0,0,1,1.068-.674.776.776,0,0,1,.449.129.884.884,0,0,1,.3.43,2,2,0,0,1,.076.641V62a1.132,1.132,0,0,0,.049.41.282.282,0,0,0,.124.136.7.7,0,0,0,.315.049v.125h-1.577V62.6h.067a.523.523,0,0,0,.311-.069.348.348,0,0,0,.123-.2,1.916,1.916,0,0,0,.014-.326V60.7a1.325,1.325,0,0,0-.113-.631.4.4,0,0,0-.381-.2,1.148,1.148,0,0,0-.824.452V62a1.181,1.181,0,0,0,.038.4.317.317,0,0,0,.134.149.834.834,0,0,0,.346.047v.125h-1.576V62.6h.07a.371.371,0,0,0,.328-.124.885.885,0,0,0,.086-.471V60.817a5.228,5.228,0,0,0-.026-.7.3.3,0,0,0-.081-.17.216.216,0,0,0-.144-.046.669.669,0,0,0-.233.053l-.052-.125.96-.389h.15Z" fill="#1a1311"/>
      <path id="Path_4063" data-name="Path 4063" d="M203.052,60.859h1.8v.526h-1.8Z" fill="#1a1311"/>
      <path id="Path_4064" data-name="Path 4064" d="M209.426,57.9l.108,1.6h-.108a2.02,2.02,0,0,0-.616-1.036,1.494,1.494,0,0,0-.96-.317,1.487,1.487,0,0,0-1.446,1,3.379,3.379,0,0,0-.217,1.3,2.756,2.756,0,0,0,.205,1.11,1.539,1.539,0,0,0,.618.72,1.775,1.775,0,0,0,.941.251,1.63,1.63,0,0,0,.81-.2,2.663,2.663,0,0,0,.773-.781l.108.069a2.476,2.476,0,0,1-.828.922,2.087,2.087,0,0,1-1.124.292,2.125,2.125,0,0,1-1.816-.869,2.488,2.488,0,0,1-.48-1.524,2.689,2.689,0,0,1,.317-1.3,2.279,2.279,0,0,1,.871-.917,2.353,2.353,0,0,1,1.212-.325,2.222,2.222,0,0,1,1.009.25.548.548,0,0,0,.209.077.23.23,0,0,0,.163-.067.545.545,0,0,0,.129-.26Z" fill="#1a1311"/>
      <path id="Path_4065" data-name="Path 4065" d="M211.047,57.774V60.1a2.611,2.611,0,0,1,.612-.544.959.959,0,0,1,.452-.12.745.745,0,0,1,.467.149.878.878,0,0,1,.288.47,3.325,3.325,0,0,1,.066.813V62a1.166,1.166,0,0,0,.049.414.27.27,0,0,0,.118.132.673.673,0,0,0,.306.049v.125H211.84V62.6h.073a.515.515,0,0,0,.31-.069.356.356,0,0,0,.121-.2,2.667,2.667,0,0,0,.011-.326V60.873a2.685,2.685,0,0,0-.054-.684.46.46,0,0,0-.173-.247.5.5,0,0,0-.285-.081.825.825,0,0,0-.355.09,1.721,1.721,0,0,0-.441.366V62a1.315,1.315,0,0,0,.036.406.3.3,0,0,0,.136.135.789.789,0,0,0,.343.054v.125h-1.58V62.6a.7.7,0,0,0,.334-.067.25.25,0,0,0,.111-.131,1.2,1.2,0,0,0,.042-.4V59.116a4.7,4.7,0,0,0-.026-.671.293.293,0,0,0-.08-.17.212.212,0,0,0-.144-.045.845.845,0,0,0-.237.055l-.048-.122.953-.389Z" fill="#1a1311"/>
      <path id="Path_4066" data-name="Path 4066" d="M214.773,59.441V62a1.176,1.176,0,0,0,.043.4.3.3,0,0,0,.129.148.7.7,0,0,0,.311.049v.125h-1.548V62.6a.719.719,0,0,0,.313-.046.3.3,0,0,0,.128-.15,1.133,1.133,0,0,0,.046-.4V60.773a4.346,4.346,0,0,0-.031-.672.272.272,0,0,0-.077-.155.213.213,0,0,0-.142-.044.7.7,0,0,0-.237.053l-.049-.125.961-.389Zm-.289-1.667a.352.352,0,0,1,.249.6.335.335,0,0,1-.249.1.357.357,0,0,1-.355-.355.336.336,0,0,1,.1-.249A.342.342,0,0,1,214.484,57.774Z" fill="#1a1311"/>
      <path id="Path_4067" data-name="Path 4067" d="M217.459,62.262a5.413,5.413,0,0,1-.616.438.946.946,0,0,1-.4.087.716.716,0,0,1-.544-.226.829.829,0,0,1-.214-.6.751.751,0,0,1,.1-.4,1.37,1.37,0,0,1,.495-.446,7.8,7.8,0,0,1,1.175-.508v-.125a1.036,1.036,0,0,0-.152-.654.544.544,0,0,0-.44-.178.5.5,0,0,0-.348.119.356.356,0,0,0-.132.271l.007.2a.34.34,0,0,1-.082.246.277.277,0,0,1-.214.088.267.267,0,0,1-.21-.091.351.351,0,0,1-.082-.247.711.711,0,0,1,.306-.549,1.322,1.322,0,0,1,.859-.25,1.481,1.481,0,0,1,.7.142.652.652,0,0,1,.3.337,1.9,1.9,0,0,1,.062.612v1.082a4.794,4.794,0,0,0,.018.559.241.241,0,0,0,.058.138.139.139,0,0,0,.091.034.186.186,0,0,0,.1-.025,2.1,2.1,0,0,0,.282-.253v.195q-.39.521-.745.521a.338.338,0,0,1-.271-.118A.637.637,0,0,1,217.459,62.262Zm0-.227V60.821a6.743,6.743,0,0,0-.679.3,1.166,1.166,0,0,0-.393.32.617.617,0,0,0-.118.366.592.592,0,0,0,.149.415.455.455,0,0,0,.345.165A1.257,1.257,0,0,0,217.459,62.035Z" fill="#1a1311"/>
      <path id="Path_4068" data-name="Path 4068" d="M218.634,59.534h1.486v.129h-.073a.351.351,0,0,0-.235.068.212.212,0,0,0-.078.169.953.953,0,0,0,.115.375l.776,1.607.713-1.76a.743.743,0,0,0,.059-.282.155.155,0,0,0-.024-.094.185.185,0,0,0-.087-.06.636.636,0,0,0-.209-.023v-.129h1.036v.129a.492.492,0,0,0-.2.056.579.579,0,0,0-.153.156,2.15,2.15,0,0,0-.118.268l-1.3,3.179a1.641,1.641,0,0,1-.492.7.965.965,0,0,1-.586.237.489.489,0,0,1-.338-.119.354.354,0,0,1-.132-.271.305.305,0,0,1,.1-.235.371.371,0,0,1,.262-.089.913.913,0,0,1,.313.077.778.778,0,0,0,.175.052.363.363,0,0,0,.227-.107,1.128,1.128,0,0,0,.249-.418l.226-.553-1.144-2.4a1.951,1.951,0,0,0-.167-.268.806.806,0,0,0-.143-.164.8.8,0,0,0-.258-.1Z" fill="#1a1311"/>
      <path id="Path_4069" data-name="Path 4069" d="M223.477,59.441V62a1.168,1.168,0,0,0,.044.4.307.307,0,0,0,.128.148.7.7,0,0,0,.312.049v.125h-1.548V62.6a.723.723,0,0,0,.313-.046.3.3,0,0,0,.127-.15,1.126,1.126,0,0,0,.047-.4V60.773a4.484,4.484,0,0,0-.031-.672.278.278,0,0,0-.077-.155.216.216,0,0,0-.143-.044.693.693,0,0,0-.236.053l-.049-.125.96-.389Zm-.288-1.667a.353.353,0,0,1,.249.6.337.337,0,0,1-.249.1.357.357,0,0,1-.355-.355.336.336,0,0,1,.1-.249A.342.342,0,0,1,223.189,57.774Z" fill="#1a1311"/>
      <path id="Path_4070" data-name="Path 4070" d="M224.423,60.859h1.8v.526h-1.8Z" fill="#1a1311"/>
      <path id="Path_4071" data-name="Path 4071" d="M230.63,58l.052,1.106h-.132a1.319,1.319,0,0,0-.1-.417.691.691,0,0,0-.286-.3,1,1,0,0,0-.472-.1h-.664v3.6a.963.963,0,0,0,.094.543.522.522,0,0,0,.407.146h.163v.129h-2v-.129h.167a.48.48,0,0,0,.424-.181,1.052,1.052,0,0,0,.077-.508V58.3h-.567a1.6,1.6,0,0,0-.47.049.646.646,0,0,0-.31.254,1.034,1.034,0,0,0-.153.507h-.132L226.779,58Z" fill="#1a1311"/>
      <path id="Path_4072" data-name="Path 4072" d="M232.888,62.262a5.226,5.226,0,0,1-.616.438.941.941,0,0,1-.4.087.717.717,0,0,1-.545-.226.833.833,0,0,1-.214-.6.751.751,0,0,1,.1-.4,1.37,1.37,0,0,1,.495-.446,7.8,7.8,0,0,1,1.175-.508v-.125a1.036,1.036,0,0,0-.152-.654.544.544,0,0,0-.44-.178.5.5,0,0,0-.348.119.356.356,0,0,0-.132.271l.007.2a.34.34,0,0,1-.082.246.277.277,0,0,1-.214.088.267.267,0,0,1-.21-.091.351.351,0,0,1-.082-.247.711.711,0,0,1,.306-.549,1.322,1.322,0,0,1,.859-.25,1.475,1.475,0,0,1,.7.142.652.652,0,0,1,.3.337,1.892,1.892,0,0,1,.063.612v1.082a4.9,4.9,0,0,0,.017.559.241.241,0,0,0,.058.138.139.139,0,0,0,.091.034.183.183,0,0,0,.1-.025,2.1,2.1,0,0,0,.282-.253v.195q-.39.521-.745.521a.338.338,0,0,1-.271-.118A.637.637,0,0,1,232.888,62.262Zm0-.227V60.821a6.854,6.854,0,0,0-.679.3,1.166,1.166,0,0,0-.393.32.617.617,0,0,0-.118.366.6.6,0,0,0,.149.415.455.455,0,0,0,.345.165A1.257,1.257,0,0,0,232.888,62.035Z" fill="#1a1311"/>
      <path id="Path_4073" data-name="Path 4073" d="M235.343,59.441V62a1.168,1.168,0,0,0,.044.4.3.3,0,0,0,.129.148.69.69,0,0,0,.311.049v.125h-1.548V62.6a.719.719,0,0,0,.313-.046.3.3,0,0,0,.127-.15,1.1,1.1,0,0,0,.047-.4V60.773a4.483,4.483,0,0,0-.031-.672.278.278,0,0,0-.077-.155.213.213,0,0,0-.142-.044.7.7,0,0,0-.237.053l-.049-.125.961-.389Zm-.288-1.667a.353.353,0,0,1,.249.6.337.337,0,0,1-.249.1.357.357,0,0,1-.355-.355.336.336,0,0,1,.1-.249A.342.342,0,0,1,235.055,57.774Z" fill="#1a1311"/>
      <path id="Path_4074" data-name="Path 4074" d="M237.152,60.115a1.5,1.5,0,0,1,1.069-.674.776.776,0,0,1,.449.129.884.884,0,0,1,.3.43,2,2,0,0,1,.076.641V62a1.132,1.132,0,0,0,.049.41.285.285,0,0,0,.123.136.707.707,0,0,0,.315.049v.125h-1.576V62.6h.067a.527.527,0,0,0,.311-.069.348.348,0,0,0,.123-.2,2.042,2.042,0,0,0,.014-.326V60.7a1.325,1.325,0,0,0-.113-.631.4.4,0,0,0-.381-.2,1.15,1.15,0,0,0-.825.452V62a1.17,1.17,0,0,0,.039.4.317.317,0,0,0,.134.149.831.831,0,0,0,.346.047v.125H236.1V62.6h.07a.371.371,0,0,0,.328-.124.9.9,0,0,0,.086-.471V60.817a4.976,4.976,0,0,0-.027-.7.3.3,0,0,0-.08-.17.216.216,0,0,0-.144-.046.669.669,0,0,0-.233.053l-.052-.125.96-.389h.149Z" fill="#1a1311"/>
      <path id="Path_4075" data-name="Path 4075" d="M241.592,62.262a5.226,5.226,0,0,1-.616.438.941.941,0,0,1-.4.087.718.718,0,0,1-.545-.226.833.833,0,0,1-.214-.6.752.752,0,0,1,.1-.4,1.365,1.365,0,0,1,.5-.446,7.778,7.778,0,0,1,1.174-.508v-.125a1.037,1.037,0,0,0-.151-.654.546.546,0,0,0-.44-.178.5.5,0,0,0-.349.119.359.359,0,0,0-.132.271l.007.2a.34.34,0,0,1-.082.246.276.276,0,0,1-.213.088.269.269,0,0,1-.211-.091.351.351,0,0,1-.082-.247.711.711,0,0,1,.306-.549,1.323,1.323,0,0,1,.86-.25,1.474,1.474,0,0,1,.7.142.648.648,0,0,1,.3.337,1.891,1.891,0,0,1,.063.612v1.082a4.9,4.9,0,0,0,.017.559.241.241,0,0,0,.058.138.139.139,0,0,0,.092.034.182.182,0,0,0,.1-.025,2.1,2.1,0,0,0,.282-.253v.195q-.39.521-.745.521a.338.338,0,0,1-.271-.118A.637.637,0,0,1,241.592,62.262Zm0-.227V60.821a6.856,6.856,0,0,0-.679.3,1.166,1.166,0,0,0-.393.32.617.617,0,0,0-.118.366.6.6,0,0,0,.149.415.455.455,0,0,0,.345.165A1.257,1.257,0,0,0,241.592,62.035Z" fill="#1a1311"/>
      <path id="Path_4076" data-name="Path 4076" d="M243.878,60.115a1.5,1.5,0,0,1,1.068-.674.776.776,0,0,1,.449.129.884.884,0,0,1,.3.43,2,2,0,0,1,.076.641V62a1.132,1.132,0,0,0,.049.41.285.285,0,0,0,.123.136.707.707,0,0,0,.315.049v.125h-1.576V62.6h.067a.523.523,0,0,0,.311-.069.348.348,0,0,0,.123-.2A2.044,2.044,0,0,0,245.2,62V60.7a1.324,1.324,0,0,0-.113-.631.4.4,0,0,0-.381-.2,1.146,1.146,0,0,0-.824.452V62a1.181,1.181,0,0,0,.038.4.317.317,0,0,0,.134.149.834.834,0,0,0,.346.047v.125H242.82V62.6h.07a.371.371,0,0,0,.328-.124A.9.9,0,0,0,243.3,62V60.817a4.975,4.975,0,0,0-.027-.7.3.3,0,0,0-.08-.17.216.216,0,0,0-.144-.046.669.669,0,0,0-.233.053l-.052-.125.96-.389h.15Z" fill="#1a1311"/>
      <path id="Path_4077" data-name="Path 4077" d="M252.885,62.721h-1.259l-1.6-2.206c-.118.005-.214.008-.288.008l-.1,0-.107-.006v1.371a.963.963,0,0,0,.1.553.5.5,0,0,0,.4.153h.185v.129h-2.022v-.129h.178a.477.477,0,0,0,.428-.194,1.1,1.1,0,0,0,.073-.512V58.838a.974.974,0,0,0-.1-.553.514.514,0,0,0-.4-.153h-.178V58h1.719a4.087,4.087,0,0,1,1.108.11,1.262,1.262,0,0,1,.606.4,1.048,1.048,0,0,1,.249.7,1.1,1.1,0,0,1-.284.755,1.6,1.6,0,0,1-.878.452l.974,1.353a2.447,2.447,0,0,0,.573.62,1.459,1.459,0,0,0,.627.194Zm-3.35-2.425.114,0,.081,0a1.531,1.531,0,0,0,1.017-.293.933.933,0,0,0,.342-.744.971.971,0,0,0-.276-.719.989.989,0,0,0-.732-.276,3.062,3.062,0,0,0-.546.066Z" fill="#1a1311"/>
      <path id="Path_4078" data-name="Path 4078" d="M253.58,60.734a1.642,1.642,0,0,0,.345,1.114,1.052,1.052,0,0,0,.817.4.894.894,0,0,0,.545-.172,1.268,1.268,0,0,0,.387-.59l.108.07a1.654,1.654,0,0,1-.424.868,1.133,1.133,0,0,1-.88.391,1.286,1.286,0,0,1-.983-.447,1.709,1.709,0,0,1-.409-1.2,1.815,1.815,0,0,1,.419-1.274,1.366,1.366,0,0,1,1.053-.458,1.177,1.177,0,0,1,.88.353,1.291,1.291,0,0,1,.344.944Zm0-.2h1.475a1.386,1.386,0,0,0-.072-.431.7.7,0,0,0-.26-.306.656.656,0,0,0-.36-.111.72.72,0,0,0-.517.224A.977.977,0,0,0,253.58,60.532Z" fill="#1a1311"/>
      <path id="Path_4079" data-name="Path 4079" d="M257.06,61.559a1.045,1.045,0,0,1-.606-.964,1.087,1.087,0,0,1,.357-.814,1.266,1.266,0,0,1,.913-.34,1.4,1.4,0,0,1,.79.222h.675a.849.849,0,0,1,.173.009.065.065,0,0,1,.036.029.227.227,0,0,1,.02.112.326.326,0,0,1-.017.125.086.086,0,0,1-.037.028.774.774,0,0,1-.175.01h-.415a1.012,1.012,0,0,1,.2.64,1,1,0,0,1-.341.762,1.29,1.29,0,0,1-.915.316,1.794,1.794,0,0,1-.483-.069.9.9,0,0,0-.207.232.365.365,0,0,0-.054.168.161.161,0,0,0,.057.115.431.431,0,0,0,.225.08c.065.01.227.017.487.024q.715.018.929.049a.87.87,0,0,1,.516.24.654.654,0,0,1,.194.48,1.008,1.008,0,0,1-.369.737,1.988,1.988,0,0,1-1.416.509,2.032,2.032,0,0,1-1.134-.3q-.261-.174-.261-.362a.406.406,0,0,1,.038-.167,1.951,1.951,0,0,1,.244-.359q.024-.03.354-.375a1.083,1.083,0,0,1-.255-.193.284.284,0,0,1-.075-.193.573.573,0,0,1,.1-.285A2.221,2.221,0,0,1,257.06,61.559Zm-.036,1.162a1.762,1.762,0,0,0-.247.33.6.6,0,0,0-.083.282.351.351,0,0,0,.2.292,1.919,1.919,0,0,0,1.005.216,1.549,1.549,0,0,0,.924-.221.605.605,0,0,0,.3-.471.261.261,0,0,0-.178-.257,2.278,2.278,0,0,0-.716-.091A11.631,11.631,0,0,1,257.024,62.721Zm.641-3.113a.543.543,0,0,0-.432.2.954.954,0,0,0-.173.629,1.35,1.35,0,0,0,.236.852.563.563,0,0,0,.459.231.548.548,0,0,0,.435-.2.938.938,0,0,0,.17-.622,1.4,1.4,0,0,0-.239-.866A.553.553,0,0,0,257.665,59.608Z" fill="#1a1311"/>
      <path id="Path_4080" data-name="Path 4080" d="M260.869,59.441V62a1.142,1.142,0,0,0,.044.4.3.3,0,0,0,.128.148.7.7,0,0,0,.312.049v.125H259.8V62.6a.716.716,0,0,0,.313-.046.3.3,0,0,0,.128-.15,1.126,1.126,0,0,0,.047-.4V60.773a4.3,4.3,0,0,0-.032-.672.278.278,0,0,0-.076-.155.218.218,0,0,0-.143-.044.7.7,0,0,0-.237.053l-.049-.125.961-.389Zm-.289-1.667a.34.34,0,0,1,.249.1.336.336,0,0,1,.1.249.34.34,0,0,1-.1.25.335.335,0,0,1-.249.1.359.359,0,0,1-.355-.355.336.336,0,0,1,.1-.249A.346.346,0,0,1,260.58,57.774Z" fill="#1a1311"/>
      <path id="Path_4081" data-name="Path 4081" d="M263.308,59.441a1.414,1.414,0,0,1,1.162.548,1.692,1.692,0,0,1,.372,1.079,2.028,2.028,0,0,1-.205.867,1.457,1.457,0,0,1-1.367.883,1.349,1.349,0,0,1-1.145-.574,1.777,1.777,0,0,1-.358-1.086,1.924,1.924,0,0,1,.217-.871,1.451,1.451,0,0,1,1.324-.846Zm-.108.225a.736.736,0,0,0-.371.109.778.778,0,0,0-.3.385,1.865,1.865,0,0,0-.114.706,2.467,2.467,0,0,0,.276,1.2.824.824,0,0,0,.729.5.678.678,0,0,0,.557-.278,1.583,1.583,0,0,0,.219-.957A2.187,2.187,0,0,0,263.83,60,.753.753,0,0,0,263.2,59.666Z" fill="#1a1311"/>
      <path id="Path_4082" data-name="Path 4082" d="M266.24,60.115a1.5,1.5,0,0,1,1.069-.674.77.77,0,0,1,.448.129.885.885,0,0,1,.3.43,2,2,0,0,1,.076.641V62a1.131,1.131,0,0,0,.049.41.285.285,0,0,0,.123.136.707.707,0,0,0,.315.049v.125h-1.576V62.6h.066a.523.523,0,0,0,.311-.069.344.344,0,0,0,.124-.2,2.047,2.047,0,0,0,.014-.326V60.7a1.325,1.325,0,0,0-.113-.631.4.4,0,0,0-.381-.2,1.15,1.15,0,0,0-.825.452V62a1.17,1.17,0,0,0,.039.4.317.317,0,0,0,.134.149.831.831,0,0,0,.346.047v.125h-1.576V62.6h.07a.372.372,0,0,0,.328-.124.9.9,0,0,0,.086-.471V60.817a4.983,4.983,0,0,0-.027-.7.3.3,0,0,0-.08-.17.218.218,0,0,0-.144-.046.669.669,0,0,0-.233.053l-.053-.125.961-.389h.149Z" fill="#1a1311"/>
      <path id="Path_4083" data-name="Path 4083" d="M270.679,62.262a5.345,5.345,0,0,1-.615.438.946.946,0,0,1-.4.087.715.715,0,0,1-.544-.226.829.829,0,0,1-.214-.6.76.76,0,0,1,.1-.4,1.382,1.382,0,0,1,.5-.446,7.777,7.777,0,0,1,1.174-.508v-.125a1.037,1.037,0,0,0-.151-.654.545.545,0,0,0-.44-.178.493.493,0,0,0-.348.119.356.356,0,0,0-.132.271l.007.2a.344.344,0,0,1-.082.246.277.277,0,0,1-.214.088.27.27,0,0,1-.211-.091.356.356,0,0,1-.082-.247.71.71,0,0,1,.307-.549,1.32,1.32,0,0,1,.859-.25,1.481,1.481,0,0,1,.7.142.652.652,0,0,1,.3.337,1.9,1.9,0,0,1,.062.612v1.082a4.8,4.8,0,0,0,.018.559.235.235,0,0,0,.057.138.141.141,0,0,0,.092.034.186.186,0,0,0,.1-.025,2.189,2.189,0,0,0,.281-.253v.195q-.389.521-.744.521a.336.336,0,0,1-.271-.118A.631.631,0,0,1,270.679,62.262Zm0-.227V60.821a6.8,6.8,0,0,0-.678.3,1.156,1.156,0,0,0-.393.32.618.618,0,0,0-.119.366.593.593,0,0,0,.15.415.455.455,0,0,0,.344.165A1.252,1.252,0,0,0,270.679,62.035Z" fill="#1a1311"/>
      <path id="Path_4084" data-name="Path 4084" d="M273.132,57.774V62a1.2,1.2,0,0,0,.043.4.311.311,0,0,0,.135.147.761.761,0,0,0,.337.051v.125h-1.562V62.6a.673.673,0,0,0,.3-.046.288.288,0,0,0,.125-.15,1.133,1.133,0,0,0,.046-.4V59.107a5.028,5.028,0,0,0-.025-.664.286.286,0,0,0-.078-.168.2.2,0,0,0-.137-.045.648.648,0,0,0-.23.055l-.059-.122.95-.389Z" fill="#1a1311"/>
      <path id="Path_4085" data-name="Path 4085" d="M278.865,60.314a1.507,1.507,0,0,1,.735.334,1.036,1.036,0,0,1,.337.782,1.166,1.166,0,0,1-.223.674,1.277,1.277,0,0,1-.61.469,3.535,3.535,0,0,1-1.185.148h-2.227v-.129h.178a.479.479,0,0,0,.425-.188,1.088,1.088,0,0,0,.08-.518V58.838a.956.956,0,0,0-.1-.553.514.514,0,0,0-.4-.153h-.178V58h2.039a4,4,0,0,1,.915.084,1.467,1.467,0,0,1,.8.443,1.089,1.089,0,0,1,.275.733,1.014,1.014,0,0,1-.216.635A1.274,1.274,0,0,1,278.865,60.314Zm-1.822-.189a2.4,2.4,0,0,0,.294.037c.109.008.231.012.363.012a2.03,2.03,0,0,0,.763-.109.82.82,0,0,0,.392-.336.95.95,0,0,0,.136-.495.906.906,0,0,0-.338-.706,1.467,1.467,0,0,0-.984-.292,2.358,2.358,0,0,0-.626.077Zm0,2.255a3.536,3.536,0,0,0,.8.094,1.44,1.44,0,0,0,.96-.283.889.889,0,0,0,.331-.7,1.029,1.029,0,0,0-.15-.529,1,1,0,0,0-.487-.4,2.092,2.092,0,0,0-.835-.147c-.144,0-.266,0-.368.007a2.058,2.058,0,0,0-.247.024Z" fill="#1a1311"/>
      <path id="Path_4086" data-name="Path 4086" d="M281.482,59.441v.715q.4-.715.821-.715a.443.443,0,0,1,.316.116.358.358,0,0,1,.126.269.321.321,0,0,1-.091.23.29.29,0,0,1-.215.094.457.457,0,0,1-.273-.121.456.456,0,0,0-.225-.119.206.206,0,0,0-.136.07,1.669,1.669,0,0,0-.323.469v1.528a.944.944,0,0,0,.066.4.357.357,0,0,0,.16.157.71.71,0,0,0,.33.063v.125h-1.631V62.6a.679.679,0,0,0,.362-.077.3.3,0,0,0,.121-.177,1.74,1.74,0,0,0,.018-.338V60.769a5.106,5.106,0,0,0-.023-.662.263.263,0,0,0-.083-.156.239.239,0,0,0-.152-.049.681.681,0,0,0-.243.053l-.035-.125.964-.389Z" fill="#1a1311"/>
      <path id="Path_4087" data-name="Path 4087" d="M284.728,62.262a5.411,5.411,0,0,1-.616.438.944.944,0,0,1-.4.087.717.717,0,0,1-.545-.226.829.829,0,0,1-.214-.6.751.751,0,0,1,.105-.4,1.369,1.369,0,0,1,.495-.446,7.8,7.8,0,0,1,1.175-.508v-.125a1.036,1.036,0,0,0-.152-.654.544.544,0,0,0-.44-.178.5.5,0,0,0-.348.119.356.356,0,0,0-.132.271l.007.2a.34.34,0,0,1-.082.246.277.277,0,0,1-.214.088.267.267,0,0,1-.21-.091.351.351,0,0,1-.082-.247.711.711,0,0,1,.306-.549,1.322,1.322,0,0,1,.859-.25,1.478,1.478,0,0,1,.7.142.652.652,0,0,1,.3.337,1.9,1.9,0,0,1,.062.612v1.082a4.8,4.8,0,0,0,.018.559.241.241,0,0,0,.058.138.139.139,0,0,0,.091.034.186.186,0,0,0,.1-.025,2.105,2.105,0,0,0,.282-.253v.195q-.39.521-.745.521a.338.338,0,0,1-.271-.118A.638.638,0,0,1,284.728,62.262Zm0-.227V60.821a6.852,6.852,0,0,0-.679.3,1.166,1.166,0,0,0-.393.32.617.617,0,0,0-.118.366.592.592,0,0,0,.149.415.455.455,0,0,0,.345.165A1.257,1.257,0,0,0,284.728,62.035Z" fill="#1a1311"/>
      <path id="Path_4088" data-name="Path 4088" d="M287.013,60.115a1.5,1.5,0,0,1,1.068-.674.776.776,0,0,1,.449.129.884.884,0,0,1,.3.43,2,2,0,0,1,.076.641V62a1.131,1.131,0,0,0,.049.41.287.287,0,0,0,.124.136.7.7,0,0,0,.315.049v.125h-1.577V62.6h.067a.523.523,0,0,0,.311-.069.343.343,0,0,0,.123-.2,1.865,1.865,0,0,0,.015-.326V60.7a1.31,1.31,0,0,0-.114-.631.4.4,0,0,0-.381-.2,1.15,1.15,0,0,0-.824.452V62a1.181,1.181,0,0,0,.038.4.322.322,0,0,0,.134.149.837.837,0,0,0,.346.047v.125h-1.576V62.6h.07a.374.374,0,0,0,.329-.124.9.9,0,0,0,.085-.471V60.817a5.228,5.228,0,0,0-.026-.7.3.3,0,0,0-.08-.17.218.218,0,0,0-.144-.046.674.674,0,0,0-.234.053l-.052-.125.96-.389h.15Z" fill="#1a1311"/>
      <path id="Path_4089" data-name="Path 4089" d="M292.353,61.51a1.729,1.729,0,0,1-.5.969,1.2,1.2,0,0,1-1.778-.117,1.786,1.786,0,0,1-.4-1.231,1.7,1.7,0,0,1,.446-1.221,1.431,1.431,0,0,1,1.074-.469,1.18,1.18,0,0,1,.772.248.686.686,0,0,1,.3.516.281.281,0,0,1-.086.214.326.326,0,0,1-.238.082.372.372,0,0,1-.31-.132.556.556,0,0,1-.078-.278.454.454,0,0,0-.141-.314.5.5,0,0,0-.337-.1.689.689,0,0,0-.56.258,1.367,1.367,0,0,0-.282.9,1.822,1.822,0,0,0,.28,1.007.86.86,0,0,0,.757.436.917.917,0,0,0,.612-.233,1.576,1.576,0,0,0,.373-.581Z" fill="#1a1311"/>
      <path id="Path_4090" data-name="Path 4090" d="M293.745,57.774V60.1a2.63,2.63,0,0,1,.613-.544.953.953,0,0,1,.452-.12.742.742,0,0,1,.466.149.885.885,0,0,1,.289.47,3.393,3.393,0,0,1,.065.813V62a1.19,1.19,0,0,0,.049.414.27.27,0,0,0,.118.132.675.675,0,0,0,.307.049v.125h-1.566V62.6h.073a.515.515,0,0,0,.31-.069.352.352,0,0,0,.122-.2,3.031,3.031,0,0,0,.01-.326V60.873a2.684,2.684,0,0,0-.054-.684.464.464,0,0,0-.172-.247.5.5,0,0,0-.285-.081.822.822,0,0,0-.355.09,1.722,1.722,0,0,0-.442.366V62a1.314,1.314,0,0,0,.036.406.3.3,0,0,0,.136.135.792.792,0,0,0,.343.054v.125h-1.58V62.6a.7.7,0,0,0,.334-.067.247.247,0,0,0,.112-.131,1.232,1.232,0,0,0,.042-.4V59.116a4.637,4.637,0,0,0-.027-.671.3.3,0,0,0-.079-.17.217.217,0,0,0-.145-.045.853.853,0,0,0-.237.055l-.048-.122.953-.389Z" fill="#1a1311"/>
      <path id="Path_4091" data-name="Path 4091" d="M296.531,63.907v-.153a1.139,1.139,0,0,0,.555-.367.839.839,0,0,0,.2-.528.2.2,0,0,0-.031-.111.07.07,0,0,0-.049-.031.5.5,0,0,0-.167.07.292.292,0,0,1-.133.031.368.368,0,0,1-.271-.1.375.375,0,0,1-.1-.278.385.385,0,0,1,.131-.292.45.45,0,0,1,.318-.122.54.54,0,0,1,.409.2.769.769,0,0,1,.179.531,1.039,1.039,0,0,1-.249.666A1.642,1.642,0,0,1,296.531,63.907Z" fill="#1a1311"/>
      <path id="Path_4092" data-name="Path 4092" d="M306.38,58v.129a.6.6,0,0,0-.3.066.656.656,0,0,0-.22.247,4.168,4.168,0,0,0-.218.581l-1.315,3.8h-.139l-1.076-3.015-1.068,3.015h-.125l-1.4-3.917q-.156-.438-.2-.518a.459.459,0,0,0-.19-.2.69.69,0,0,0-.325-.064V58h1.746v.129h-.083a.42.42,0,0,0-.282.084.257.257,0,0,0-.1.2,2.43,2.43,0,0,0,.154.561l.928,2.647.783-2.251-.139-.4-.111-.317a1.718,1.718,0,0,0-.163-.306.459.459,0,0,0-.112-.112.629.629,0,0,0-.174-.09.748.748,0,0,0-.209-.021V58h1.838v.129h-.126a.406.406,0,0,0-.285.084.291.291,0,0,0-.091.226,2.274,2.274,0,0,0,.156.619l.9,2.564.9-2.6a2.23,2.23,0,0,0,.153-.6.241.241,0,0,0-.051-.15.265.265,0,0,0-.126-.1,1.027,1.027,0,0,0-.345-.049V58Z" fill="#1a1311"/>
      <path id="Path_4093" data-name="Path 4093" d="M308.217,59.441a1.412,1.412,0,0,1,1.162.548,1.692,1.692,0,0,1,.373,1.079,2.028,2.028,0,0,1-.205.867,1.458,1.458,0,0,1-1.367.883,1.351,1.351,0,0,1-1.146-.574,1.777,1.777,0,0,1-.358-1.086,1.913,1.913,0,0,1,.218-.871,1.472,1.472,0,0,1,.572-.639A1.457,1.457,0,0,1,308.217,59.441Zm-.108.225a.739.739,0,0,0-.371.109.783.783,0,0,0-.3.385,1.844,1.844,0,0,0-.115.706,2.467,2.467,0,0,0,.277,1.2.822.822,0,0,0,.728.5.677.677,0,0,0,.557-.278,1.583,1.583,0,0,0,.22-.957A2.181,2.181,0,0,0,308.739,60,.752.752,0,0,0,308.109,59.666Z" fill="#1a1311"/>
      <path id="Path_4094" data-name="Path 4094" d="M311.153,59.441v.715c.267-.477.54-.715.822-.715a.445.445,0,0,1,.316.116.357.357,0,0,1,.125.269.316.316,0,0,1-.09.23.292.292,0,0,1-.216.094.457.457,0,0,1-.272-.121.46.46,0,0,0-.225-.119.2.2,0,0,0-.136.07,1.689,1.689,0,0,0-.324.469v1.528a.941.941,0,0,0,.067.4.357.357,0,0,0,.16.157.707.707,0,0,0,.33.063v.125h-1.632V62.6a.686.686,0,0,0,.363-.077.3.3,0,0,0,.122-.177A1.871,1.871,0,0,0,310.58,62V60.769a5.106,5.106,0,0,0-.023-.662.263.263,0,0,0-.083-.156.239.239,0,0,0-.152-.049.69.69,0,0,0-.244.053l-.034-.125.964-.389Z" fill="#1a1311"/>
      <path id="Path_4095" data-name="Path 4095" d="M313.537,57.774v3.169l.811-.738a2.7,2.7,0,0,0,.3-.3.152.152,0,0,0,.027-.084.156.156,0,0,0-.057-.119.305.305,0,0,0-.189-.057v-.112h1.385v.112a1.28,1.28,0,0,0-.476.087,1.513,1.513,0,0,0-.415.285l-.818.755.818,1.033q.34.427.459.543a.971.971,0,0,0,.292.212.912.912,0,0,0,.3.035v.125h-1.547V62.6a.335.335,0,0,0,.179-.04.124.124,0,0,0,.046-.1.529.529,0,0,0-.139-.258l-.977-1.249V62a1.2,1.2,0,0,0,.043.407.274.274,0,0,0,.123.139.944.944,0,0,0,.348.046v.125H312.43V62.6a.852.852,0,0,0,.365-.06.241.241,0,0,0,.111-.118,1.045,1.045,0,0,0,.053-.4v-2.9a5.267,5.267,0,0,0-.024-.677.3.3,0,0,0-.08-.17.216.216,0,0,0-.146-.047.673.673,0,0,0-.22.059l-.059-.122.947-.389Z" fill="#1a1311"/>
      <path id="Path_4096" data-name="Path 4096" d="M317.4,59.784v2.1a1.021,1.021,0,0,0,.1.563.425.425,0,0,0,.345.154h.289v.125h-1.9V62.6h.142a.485.485,0,0,0,.254-.07.353.353,0,0,0,.158-.188,1.562,1.562,0,0,0,.044-.459v-2.1h-.619v-.25h.619v-.209a1.907,1.907,0,0,1,.153-.806,1.246,1.246,0,0,1,.468-.535,1.279,1.279,0,0,1,.707-.2,1.068,1.068,0,0,1,.672.238.438.438,0,0,1,.2.35.279.279,0,0,1-.089.2.272.272,0,0,1-.2.091.313.313,0,0,1-.168-.057.909.909,0,0,1-.218-.247.875.875,0,0,0-.236-.255.471.471,0,0,0-.512.018.486.486,0,0,0-.16.265,5.03,5.03,0,0,0-.048.924v.229h.821v.25Z" fill="#1a1311"/>
      <path id="Path_4097" data-name="Path 4097" d="M320.088,59.441a1.414,1.414,0,0,1,1.162.548,1.691,1.691,0,0,1,.371,1.079,2.028,2.028,0,0,1-.205.867,1.452,1.452,0,0,1-1.367.883,1.35,1.35,0,0,1-1.145-.574,1.782,1.782,0,0,1-.357-1.086,1.924,1.924,0,0,1,.217-.871,1.472,1.472,0,0,1,.572-.639A1.455,1.455,0,0,1,320.088,59.441Zm-.108.225a.736.736,0,0,0-.371.109.766.766,0,0,0-.3.385,1.843,1.843,0,0,0-.116.706,2.456,2.456,0,0,0,.277,1.2.823.823,0,0,0,.729.5.679.679,0,0,0,.557-.278,1.591,1.591,0,0,0,.219-.957A2.181,2.181,0,0,0,320.609,60,.753.753,0,0,0,319.98,59.666Z" fill="#1a1311"/>
      <path id="Path_4098" data-name="Path 4098" d="M323.024,59.441v.715q.4-.715.821-.715a.442.442,0,0,1,.316.116.362.362,0,0,1,.126.269.321.321,0,0,1-.091.23.289.289,0,0,1-.215.094.465.465,0,0,1-.274-.121.454.454,0,0,0-.224-.119.2.2,0,0,0-.135.07,1.629,1.629,0,0,0-.324.469v1.528a.944.944,0,0,0,.066.4.362.362,0,0,0,.16.157.71.71,0,0,0,.33.063v.125h-1.631V62.6a.679.679,0,0,0,.362-.077.3.3,0,0,0,.121-.177,1.874,1.874,0,0,0,.017-.338V60.769a5.756,5.756,0,0,0-.021-.662.264.264,0,0,0-.084-.156.241.241,0,0,0-.152-.049.681.681,0,0,0-.243.053l-.035-.125.963-.389Z" fill="#1a1311"/>
      <path id="Path_4099" data-name="Path 4099" d="M327.17,61.51a1.729,1.729,0,0,1-.5.969,1.212,1.212,0,0,1-.832.339,1.226,1.226,0,0,1-.945-.456,1.782,1.782,0,0,1-.4-1.231,1.7,1.7,0,0,1,.448-1.221,1.431,1.431,0,0,1,1.073-.469,1.178,1.178,0,0,1,.772.248.686.686,0,0,1,.3.516.277.277,0,0,1-.086.214.326.326,0,0,1-.238.082.37.37,0,0,1-.309-.132.536.536,0,0,1-.078-.278.462.462,0,0,0-.141-.314.5.5,0,0,0-.337-.1.69.69,0,0,0-.561.258,1.372,1.372,0,0,0-.281.9,1.83,1.83,0,0,0,.279,1.007.862.862,0,0,0,.757.436.913.913,0,0,0,.612-.233,1.576,1.576,0,0,0,.373-.581Z" fill="#1a1311"/>
      <path id="Path_4100" data-name="Path 4100" d="M328.162,60.734a1.637,1.637,0,0,0,.344,1.114,1.054,1.054,0,0,0,.818.4.891.891,0,0,0,.544-.172,1.261,1.261,0,0,0,.388-.59l.107.07a1.645,1.645,0,0,1-.423.868,1.135,1.135,0,0,1-.881.391,1.289,1.289,0,0,1-.983-.447,1.713,1.713,0,0,1-.408-1.2,1.815,1.815,0,0,1,.419-1.274,1.363,1.363,0,0,1,1.052-.458,1.181,1.181,0,0,1,.881.353,1.3,1.3,0,0,1,.343.944Zm0-.2h1.475a1.417,1.417,0,0,0-.072-.431.7.7,0,0,0-.26-.306.656.656,0,0,0-.361-.111.719.719,0,0,0-.516.224A.972.972,0,0,0,328.162,60.532Z" fill="#1a1311"/>
      <path id="Path_4101" data-name="Path 4101" d="M332.469,62.721v-.129h.178a.465.465,0,0,0,.423-.192,1.081,1.081,0,0,0,.078-.514V58.838a.972.972,0,0,0-.1-.553.513.513,0,0,0-.4-.153h-.178V58h1.92a4.192,4.192,0,0,1,1.609.24,1.915,1.915,0,0,1,.887.8,2.472,2.472,0,0,1,.336,1.3,2.362,2.362,0,0,1-.6,1.646,2.635,2.635,0,0,1-2.046.737Zm1.347-.341a3.615,3.615,0,0,0,.741.1,1.761,1.761,0,0,0,1.339-.568,2.493,2.493,0,0,0,0-3.079,1.8,1.8,0,0,0-1.368-.563,3,3,0,0,0-.712.1Z" fill="#1a1311"/>
      <path id="Path_4102" data-name="Path 4102" d="M338.25,60.734a1.637,1.637,0,0,0,.346,1.114,1.05,1.05,0,0,0,.816.4.892.892,0,0,0,.545-.172,1.276,1.276,0,0,0,.388-.59l.108.07a1.656,1.656,0,0,1-.425.868,1.132,1.132,0,0,1-.879.391,1.285,1.285,0,0,1-.983-.447,1.71,1.71,0,0,1-.41-1.2,1.816,1.816,0,0,1,.42-1.274,1.365,1.365,0,0,1,1.053-.458,1.175,1.175,0,0,1,.879.353,1.292,1.292,0,0,1,.345.944Zm0-.2h1.476a1.345,1.345,0,0,0-.074-.431.685.685,0,0,0-.258-.306.659.659,0,0,0-.361-.111.718.718,0,0,0-.516.224A.972.972,0,0,0,338.25,60.532Z" fill="#1a1311"/>
      <path id="Path_4103" data-name="Path 4103" d="M340.714,59.534h1.5v.129h-.1a.293.293,0,0,0-.206.066.228.228,0,0,0-.071.177.733.733,0,0,0,.072.289l.742,1.76.745-1.826a.9.9,0,0,0,.08-.3.117.117,0,0,0-.029-.08.188.188,0,0,0-.1-.071.95.95,0,0,0-.241-.019v-.129h1.04v.129a.456.456,0,0,0-.251.072.892.892,0,0,0-.218.349l-1.131,2.734h-.143l-1.137-2.689a1.066,1.066,0,0,0-.146-.27.578.578,0,0,0-.178-.137.879.879,0,0,0-.233-.059Z" fill="#1a1311"/>
      <path id="Path_4104" data-name="Path 4104" d="M344.976,60.734a1.637,1.637,0,0,0,.344,1.114,1.054,1.054,0,0,0,.818.4.893.893,0,0,0,.544-.172,1.269,1.269,0,0,0,.388-.59l.108.07a1.662,1.662,0,0,1-.424.868,1.133,1.133,0,0,1-.881.391,1.283,1.283,0,0,1-.982-.447,1.7,1.7,0,0,1-.409-1.2A1.815,1.815,0,0,1,344.9,59.9a1.367,1.367,0,0,1,1.053-.458,1.179,1.179,0,0,1,.881.353,1.3,1.3,0,0,1,.344.944Zm0-.2h1.475a1.379,1.379,0,0,0-.073-.431.693.693,0,0,0-.259-.306.656.656,0,0,0-.361-.111.719.719,0,0,0-.516.224A.972.972,0,0,0,344.976,60.532Z" fill="#1a1311"/>
      <path id="Path_4105" data-name="Path 4105" d="M348.7,57.774V62a1.188,1.188,0,0,0,.044.4.314.314,0,0,0,.134.147.769.769,0,0,0,.338.051v.125H347.65V62.6a.667.667,0,0,0,.3-.046.285.285,0,0,0,.126-.15,1.134,1.134,0,0,0,.046-.4V59.107a5.028,5.028,0,0,0-.025-.664.287.287,0,0,0-.078-.168.2.2,0,0,0-.137-.045.658.658,0,0,0-.231.055l-.058-.122.949-.389Z" fill="#1a1311"/>
      <path id="Path_4106" data-name="Path 4106" d="M351.141,59.441a1.414,1.414,0,0,1,1.162.548,1.691,1.691,0,0,1,.371,1.079,2.028,2.028,0,0,1-.205.867,1.455,1.455,0,0,1-1.367.883,1.349,1.349,0,0,1-1.145-.574,1.782,1.782,0,0,1-.357-1.086,1.936,1.936,0,0,1,.216-.871,1.474,1.474,0,0,1,.573-.639A1.455,1.455,0,0,1,351.141,59.441Zm-.109.225a.73.73,0,0,0-.37.109.773.773,0,0,0-.3.385,1.844,1.844,0,0,0-.115.706,2.456,2.456,0,0,0,.277,1.2.821.821,0,0,0,.729.5.679.679,0,0,0,.557-.278,1.591,1.591,0,0,0,.218-.957A2.187,2.187,0,0,0,351.662,60,.753.753,0,0,0,351.032,59.666Z" fill="#1a1311"/>
      <path id="Path_4107" data-name="Path 4107" d="M352.914,59.851l.982-.4h.131V60.2a1.818,1.818,0,0,1,.5-.589.91.91,0,0,1,.523-.168,1.012,1.012,0,0,1,.8.375,1.781,1.781,0,0,1,.392,1.2,2,2,0,0,1-.472,1.363,1.254,1.254,0,0,1-.982.442,1.217,1.217,0,0,1-.445-.073,1.049,1.049,0,0,1-.314-.209v.971a1.278,1.278,0,0,0,.041.416.3.3,0,0,0,.139.141.853.853,0,0,0,.359.052v.128H352.9v-.128h.087a.635.635,0,0,0,.327-.073.248.248,0,0,0,.1-.124,1.5,1.5,0,0,0,.036-.433V60.474a1.618,1.618,0,0,0-.028-.394.238.238,0,0,0-.088-.125.289.289,0,0,0-.166-.042.646.646,0,0,0-.212.049Zm1.113.552v1.191a2.527,2.527,0,0,0,.032.508.651.651,0,0,0,.238.354.733.733,0,0,0,.478.153.688.688,0,0,0,.565-.271,1.572,1.572,0,0,0,.281-1,1.742,1.742,0,0,0-.32-1.124.666.666,0,0,0-.529-.272.732.732,0,0,0-.331.084A1.978,1.978,0,0,0,354.027,60.4Z" fill="#1a1311"/>
      <path id="Path_4108" data-name="Path 4108" d="M357.652,60.118c.233-.231.37-.365.412-.4a1.227,1.227,0,0,1,.336-.206.975.975,0,0,1,.36-.072.791.791,0,0,1,.514.173.868.868,0,0,1,.289.5,2.384,2.384,0,0,1,.605-.548,1.083,1.083,0,0,1,.508-.129.8.8,0,0,1,.451.129.873.873,0,0,1,.311.427,1.944,1.944,0,0,1,.077.633V62a1.223,1.223,0,0,0,.045.41.3.3,0,0,0,.129.131.655.655,0,0,0,.3.054v.125h-1.572V62.6h.066a.566.566,0,0,0,.321-.08.317.317,0,0,0,.114-.178,2.188,2.188,0,0,0,.015-.337V60.63a1.154,1.154,0,0,0-.1-.55.472.472,0,0,0-.435-.222.84.84,0,0,0-.371.092,2.028,2.028,0,0,0-.45.342l-.007.039.007.15V62a1.35,1.35,0,0,0,.036.406.3.3,0,0,0,.139.135.794.794,0,0,0,.344.054v.125h-1.612V62.6a.746.746,0,0,0,.364-.063.324.324,0,0,0,.138-.188,1.782,1.782,0,0,0,.018-.344V60.63a1.047,1.047,0,0,0-.115-.561.492.492,0,0,0-.428-.222.775.775,0,0,0-.373.1,1.469,1.469,0,0,0-.446.344V62a1.2,1.2,0,0,0,.044.406.294.294,0,0,0,.129.142.836.836,0,0,0,.347.047v.125H356.6V62.6a.7.7,0,0,0,.3-.047.292.292,0,0,0,.132-.15,1.133,1.133,0,0,0,.045-.4V60.783a4.407,4.407,0,0,0-.031-.678.278.278,0,0,0-.076-.159.216.216,0,0,0-.143-.044.664.664,0,0,0-.232.053l-.053-.125.961-.389h.148Z" fill="#1a1311"/>
      <path id="Path_4109" data-name="Path 4109" d="M362.784,60.734a1.637,1.637,0,0,0,.345,1.114,1.052,1.052,0,0,0,.817.4.891.891,0,0,0,.544-.172,1.269,1.269,0,0,0,.389-.59l.107.07a1.652,1.652,0,0,1-.423.868,1.136,1.136,0,0,1-.881.391,1.286,1.286,0,0,1-.983-.447,1.709,1.709,0,0,1-.409-1.2,1.815,1.815,0,0,1,.419-1.274,1.365,1.365,0,0,1,1.053-.458,1.182,1.182,0,0,1,.881.353,1.3,1.3,0,0,1,.343.944Zm0-.2h1.476a1.412,1.412,0,0,0-.073-.431.694.694,0,0,0-.259-.306.66.66,0,0,0-.362-.111.717.717,0,0,0-.515.224A.978.978,0,0,0,362.784,60.532Z" fill="#1a1311"/>
      <path id="Path_4110" data-name="Path 4110" d="M366.34,60.115a1.5,1.5,0,0,1,1.068-.674.779.779,0,0,1,.45.129.876.876,0,0,1,.3.43,1.994,1.994,0,0,1,.077.641V62a1.138,1.138,0,0,0,.048.41.29.29,0,0,0,.123.136.71.71,0,0,0,.316.049v.125h-1.576V62.6h.066a.528.528,0,0,0,.312-.069.358.358,0,0,0,.123-.2,2.1,2.1,0,0,0,.013-.326V60.7a1.313,1.313,0,0,0-.113-.631.4.4,0,0,0-.381-.2,1.148,1.148,0,0,0-.824.452V62a1.17,1.17,0,0,0,.039.4.31.31,0,0,0,.133.149.834.834,0,0,0,.346.047v.125h-1.576V62.6h.07a.374.374,0,0,0,.329-.124.9.9,0,0,0,.085-.471V60.817a5.048,5.048,0,0,0-.026-.7.306.306,0,0,0-.08-.17.218.218,0,0,0-.144-.046.674.674,0,0,0-.234.053l-.051-.125.96-.389h.149Z" fill="#1a1311"/>
      <path id="Path_4111" data-name="Path 4111" d="M369.9,58.486v1.048h.744v.243H369.9v2.067a.7.7,0,0,0,.088.418.286.286,0,0,0,.228.107.4.4,0,0,0,.223-.071.458.458,0,0,0,.168-.21h.134a1.093,1.093,0,0,1-.343.513.744.744,0,0,1-.459.172.634.634,0,0,1-.315-.088.545.545,0,0,1-.225-.254,1.331,1.331,0,0,1-.074-.51V59.777h-.5v-.114a1.341,1.341,0,0,0,.391-.26,2.006,2.006,0,0,0,.357-.432,4.138,4.138,0,0,0,.223-.485Z" fill="#1a1311"/>
      <path id="Path_4112" data-name="Path 4112" d="M375.772,61.142h-1.828l-.319.744a1.158,1.158,0,0,0-.119.41.24.24,0,0,0,.1.19.9.9,0,0,0,.444.106v.129h-1.487v-.129a.781.781,0,0,0,.383-.136,2.112,2.112,0,0,0,.394-.678L375,57.9h.122l1.642,3.923a1.8,1.8,0,0,0,.36.615.745.745,0,0,0,.45.158v.129h-1.861v-.129a.689.689,0,0,0,.381-.094.243.243,0,0,0,.1-.194,1.456,1.456,0,0,0-.138-.485Zm-.1-.258-.8-1.906-.82,1.906Z" fill="#1a1311"/>
      <path id="Path_4113" data-name="Path 4113" d="M378.733,61.559a1.044,1.044,0,0,1-.45-.4,1.061,1.061,0,0,1-.156-.565,1.086,1.086,0,0,1,.356-.814,1.269,1.269,0,0,1,.914-.34,1.394,1.394,0,0,1,.789.222h.675a.855.855,0,0,1,.174.009.06.06,0,0,1,.035.029.216.216,0,0,1,.02.112.326.326,0,0,1-.017.125.082.082,0,0,1-.036.028.779.779,0,0,1-.176.01h-.414a1.018,1.018,0,0,1,.2.64,1.007,1.007,0,0,1-.341.762,1.292,1.292,0,0,1-.915.316,1.8,1.8,0,0,1-.484-.069.921.921,0,0,0-.207.232.365.365,0,0,0-.054.168.159.159,0,0,0,.058.115.423.423,0,0,0,.224.08c.065.01.227.017.487.024.478.012.787.028.929.049a.872.872,0,0,1,.517.24.657.657,0,0,1,.193.48,1,1,0,0,1-.369.737,1.988,1.988,0,0,1-1.416.509,2.034,2.034,0,0,1-1.134-.3q-.261-.174-.261-.362a.405.405,0,0,1,.038-.167,1.987,1.987,0,0,1,.243-.359c.017-.02.135-.145.356-.375a1.093,1.093,0,0,1-.256-.193.283.283,0,0,1-.074-.193.57.57,0,0,1,.1-.285A2.207,2.207,0,0,1,378.733,61.559Zm-.036,1.162a1.773,1.773,0,0,0-.248.33.614.614,0,0,0-.083.282.353.353,0,0,0,.2.292,1.923,1.923,0,0,0,1.006.216,1.548,1.548,0,0,0,.923-.221.608.608,0,0,0,.3-.471.261.261,0,0,0-.178-.257,2.281,2.281,0,0,0-.717-.091A11.605,11.605,0,0,1,378.7,62.721Zm.64-3.113a.543.543,0,0,0-.431.2.949.949,0,0,0-.173.629,1.35,1.35,0,0,0,.236.852.56.56,0,0,0,.459.231.546.546,0,0,0,.434-.2.932.932,0,0,0,.171-.622,1.391,1.391,0,0,0-.24-.866A.552.552,0,0,0,379.337,59.608Z" fill="#1a1311"/>
      <path id="Path_4114" data-name="Path 4114" d="M381.978,60.734a1.637,1.637,0,0,0,.344,1.114,1.054,1.054,0,0,0,.818.4.893.893,0,0,0,.544-.172,1.268,1.268,0,0,0,.388-.59l.108.07a1.662,1.662,0,0,1-.424.868,1.133,1.133,0,0,1-.881.391,1.283,1.283,0,0,1-.982-.447,1.7,1.7,0,0,1-.41-1.2A1.815,1.815,0,0,1,381.9,59.9a1.366,1.366,0,0,1,1.053-.458,1.179,1.179,0,0,1,.881.353,1.3,1.3,0,0,1,.344.944Zm0-.2h1.475a1.411,1.411,0,0,0-.073-.431.694.694,0,0,0-.259-.306.656.656,0,0,0-.361-.111.719.719,0,0,0-.516.224A.972.972,0,0,0,381.978,60.532Z" fill="#1a1311"/>
      <path id="Path_4115" data-name="Path 4115" d="M385.533,60.115a1.5,1.5,0,0,1,1.069-.674.778.778,0,0,1,.449.129.884.884,0,0,1,.3.43,2.029,2.029,0,0,1,.076.641V62a1.11,1.11,0,0,0,.049.41.28.28,0,0,0,.123.136.7.7,0,0,0,.315.049v.125h-1.576V62.6h.066a.528.528,0,0,0,.312-.069.348.348,0,0,0,.123-.2,1.922,1.922,0,0,0,.014-.326V60.7a1.3,1.3,0,0,0-.114-.631.4.4,0,0,0-.38-.2,1.15,1.15,0,0,0-.825.452V62a1.17,1.17,0,0,0,.039.4.32.32,0,0,0,.133.149.84.84,0,0,0,.347.047v.125h-1.576V62.6h.069a.374.374,0,0,0,.329-.124.887.887,0,0,0,.085-.471V60.817a5.305,5.305,0,0,0-.025-.7.313.313,0,0,0-.08-.17.221.221,0,0,0-.145-.046.669.669,0,0,0-.233.053l-.052-.125.96-.389h.149Z" fill="#1a1311"/>
      <path id="Path_4116" data-name="Path 4116" d="M390.873,61.51a1.729,1.729,0,0,1-.5.969,1.215,1.215,0,0,1-.832.339,1.228,1.228,0,0,1-.946-.456,1.786,1.786,0,0,1-.4-1.231,1.694,1.694,0,0,1,.447-1.221,1.427,1.427,0,0,1,1.072-.469,1.184,1.184,0,0,1,.774.248.688.688,0,0,1,.3.516.281.281,0,0,1-.086.214.326.326,0,0,1-.238.082.372.372,0,0,1-.31-.132.546.546,0,0,1-.078-.278.454.454,0,0,0-.141-.314.5.5,0,0,0-.337-.1.689.689,0,0,0-.56.258,1.367,1.367,0,0,0-.282.9,1.822,1.822,0,0,0,.28,1.007.86.86,0,0,0,.756.436.915.915,0,0,0,.613-.233,1.576,1.576,0,0,0,.373-.581Z" fill="#1a1311"/>
      <path id="Path_4117" data-name="Path 4117" d="M391.149,59.534h1.485v.129h-.073a.351.351,0,0,0-.235.068.212.212,0,0,0-.078.169.948.948,0,0,0,.114.375l.777,1.607.713-1.76a.741.741,0,0,0,.058-.282.163.163,0,0,0-.023-.094.194.194,0,0,0-.088-.06.629.629,0,0,0-.209-.023v-.129h1.037v.129a.482.482,0,0,0-.2.056.6.6,0,0,0-.154.156,2.213,2.213,0,0,0-.117.268l-1.3,3.179a1.641,1.641,0,0,1-.492.7.965.965,0,0,1-.586.237.491.491,0,0,1-.338-.119.356.356,0,0,1-.131-.271.308.308,0,0,1,.1-.235.374.374,0,0,1,.263-.089.913.913,0,0,1,.313.077.792.792,0,0,0,.174.052.363.363,0,0,0,.228-.107,1.142,1.142,0,0,0,.249-.418l.225-.553-1.144-2.4a1.837,1.837,0,0,0-.166-.268.839.839,0,0,0-.143-.164.8.8,0,0,0-.257-.1Z" fill="#1a1311"/>
      <path id="Path_4118" data-name="Path 4118" d="M395.052,63.907v-.153a1.139,1.139,0,0,0,.555-.367.844.844,0,0,0,.2-.528.191.191,0,0,0-.031-.111.068.068,0,0,0-.049-.031.5.5,0,0,0-.166.07.3.3,0,0,1-.133.031.372.372,0,0,1-.272-.1.378.378,0,0,1-.1-.278.387.387,0,0,1,.13-.292.452.452,0,0,1,.318-.122.54.54,0,0,1,.409.2.764.764,0,0,1,.179.531,1.038,1.038,0,0,1-.248.666A1.647,1.647,0,0,1,395.052,63.907Z" fill="#1a1311"/>
      <path id="Path_4119" data-name="Path 4119" d="M401.147,62.721l-1.823-3.97V61.9a.972.972,0,0,0,.094.543.516.516,0,0,0,.406.146h.168v.129H398.35v-.129h.167a.479.479,0,0,0,.424-.181,1.052,1.052,0,0,0,.077-.508V58.82a1.085,1.085,0,0,0-.07-.452.389.389,0,0,0-.178-.168.957.957,0,0,0-.42-.068V58h1.336l1.712,3.691L403.081,58h1.336v.129h-.163a.482.482,0,0,0-.428.181,1.04,1.04,0,0,0-.077.507V61.9a.927.927,0,0,0,.1.543.515.515,0,0,0,.407.146h.163v.129h-2v-.129h.167a.474.474,0,0,0,.424-.181,1.04,1.04,0,0,0,.077-.508V58.751l-1.819,3.97Z" fill="#1a1311"/>
      <path id="Path_4120" data-name="Path 4120" d="M405.889,59.441V62a1.15,1.15,0,0,0,.043.4.3.3,0,0,0,.129.148.69.69,0,0,0,.311.049v.125h-1.548V62.6a.719.719,0,0,0,.313-.046.3.3,0,0,0,.127-.15,1.126,1.126,0,0,0,.047-.4V60.773a4.17,4.17,0,0,0-.032-.672.265.265,0,0,0-.076-.155.215.215,0,0,0-.142-.044.693.693,0,0,0-.237.053l-.049-.125.96-.389Zm-.289-1.667a.344.344,0,0,1,.249.1.339.339,0,0,1,.1.249.343.343,0,0,1-.1.25.349.349,0,0,1-.5,0,.349.349,0,0,1,0-.5A.342.342,0,0,1,405.6,57.774Z" fill="#1a1311"/>
      <path id="Path_4121" data-name="Path 4121" d="M407.7,60.115a1.5,1.5,0,0,1,1.069-.674.776.776,0,0,1,.449.129.877.877,0,0,1,.3.43,2,2,0,0,1,.076.641V62a1.131,1.131,0,0,0,.049.41.28.28,0,0,0,.123.136.7.7,0,0,0,.315.049v.125H408.5V62.6h.066a.528.528,0,0,0,.312-.069.348.348,0,0,0,.123-.2,1.922,1.922,0,0,0,.014-.326V60.7a1.3,1.3,0,0,0-.114-.631.4.4,0,0,0-.38-.2,1.15,1.15,0,0,0-.825.452V62a1.17,1.17,0,0,0,.039.4.32.32,0,0,0,.133.149.84.84,0,0,0,.347.047v.125H406.64V62.6h.069a.373.373,0,0,0,.329-.124.887.887,0,0,0,.085-.471V60.817a5.308,5.308,0,0,0-.025-.7.313.313,0,0,0-.08-.17.219.219,0,0,0-.145-.046.674.674,0,0,0-.233.053l-.052-.125.96-.389h.149Z" fill="#1a1311"/>
      <path id="Path_4122" data-name="Path 4122" d="M411.43,59.441V62a1.135,1.135,0,0,0,.045.4.3.3,0,0,0,.128.148.693.693,0,0,0,.311.049v.125h-1.549V62.6a.722.722,0,0,0,.314-.046.307.307,0,0,0,.128-.15,1.126,1.126,0,0,0,.047-.4V60.773a4.43,4.43,0,0,0-.032-.672.284.284,0,0,0-.077-.155.215.215,0,0,0-.142-.044.7.7,0,0,0-.238.053l-.049-.125.961-.389Zm-.288-1.667a.353.353,0,0,1,.249.6.337.337,0,0,1-.249.1.357.357,0,0,1-.355-.355.332.332,0,0,1,.1-.249A.342.342,0,0,1,411.142,57.774Z" fill="#1a1311"/>
      <path id="Path_4123" data-name="Path 4123" d="M414.37,59.441v1.084h-.114a1.41,1.41,0,0,0-.34-.695.763.763,0,0,0-.527-.184.582.582,0,0,0-.393.129.372.372,0,0,0-.15.285.519.519,0,0,0,.111.334,1.261,1.261,0,0,0,.44.3l.507.247a1.033,1.033,0,0,1,.706.908.858.858,0,0,1-.329.7,1.136,1.136,0,0,1-.736.266,2.561,2.561,0,0,1-.668-.1.684.684,0,0,0-.187-.035.138.138,0,0,0-.125.091h-.116V61.632h.116a1.293,1.293,0,0,0,.372.734.9.9,0,0,0,.616.247.545.545,0,0,0,.39-.141.445.445,0,0,0,.153-.339.539.539,0,0,0-.169-.4,2.906,2.906,0,0,0-.673-.414,2.008,2.008,0,0,1-.662-.453.785.785,0,0,1-.156-.5.885.885,0,0,1,.269-.658.954.954,0,0,1,.7-.263,1.621,1.621,0,0,1,.457.08,1.09,1.09,0,0,0,.237.051.131.131,0,0,0,.086-.024.345.345,0,0,0,.074-.107Z" fill="#1a1311"/>
      <path id="Path_4124" data-name="Path 4124" d="M416.009,58.486v1.048h.745v.243h-.745v2.067a.7.7,0,0,0,.089.418.282.282,0,0,0,.228.107.4.4,0,0,0,.223-.071.455.455,0,0,0,.166-.21h.136a1.1,1.1,0,0,1-.345.513.74.74,0,0,1-.459.172.629.629,0,0,1-.313-.088.547.547,0,0,1-.226-.254,1.338,1.338,0,0,1-.072-.51V59.777h-.506v-.114a1.319,1.319,0,0,0,.392-.26,2.032,2.032,0,0,0,.356-.432,3.465,3.465,0,0,0,.222-.485Z" fill="#1a1311"/>
      <path id="Path_4125" data-name="Path 4125" d="M417.995,59.441v.715q.4-.715.821-.715a.448.448,0,0,1,.317.116.357.357,0,0,1,.125.269.316.316,0,0,1-.09.23.292.292,0,0,1-.216.094.455.455,0,0,1-.272-.121.46.46,0,0,0-.225-.119.206.206,0,0,0-.137.07,1.712,1.712,0,0,0-.323.469v1.528a.941.941,0,0,0,.067.4.357.357,0,0,0,.16.157.708.708,0,0,0,.33.063v.125H416.92V62.6a.679.679,0,0,0,.362-.077.3.3,0,0,0,.122-.177,1.739,1.739,0,0,0,.018-.338V60.769a5.1,5.1,0,0,0-.023-.662.263.263,0,0,0-.083-.156.241.241,0,0,0-.152-.049.69.69,0,0,0-.244.053l-.034-.125.964-.389Z" fill="#1a1311"/>
      <path id="Path_4126" data-name="Path 4126" d="M419.254,59.534h1.486v.129h-.073a.352.352,0,0,0-.235.068.212.212,0,0,0-.078.169.97.97,0,0,0,.115.375l.775,1.607.714-1.76a.745.745,0,0,0,.06-.282.148.148,0,0,0-.026-.094.173.173,0,0,0-.086-.06.633.633,0,0,0-.209-.023v-.129h1.036v.129a.5.5,0,0,0-.2.056.55.55,0,0,0-.152.156,1.948,1.948,0,0,0-.119.268l-1.3,3.179a1.658,1.658,0,0,1-.492.7.968.968,0,0,1-.587.237.485.485,0,0,1-.337-.119.355.355,0,0,1-.133-.271.305.305,0,0,1,.1-.235.371.371,0,0,1,.262-.089.917.917,0,0,1,.314.077.762.762,0,0,0,.174.052.363.363,0,0,0,.227-.107,1.141,1.141,0,0,0,.249-.418l.227-.553-1.145-2.4a1.791,1.791,0,0,0-.168-.268.778.778,0,0,0-.142-.164.786.786,0,0,0-.258-.1Z" fill="#1a1311"/>
      <path id="Path_4127" data-name="Path 4127" d="M426.338,59.441a1.414,1.414,0,0,1,1.162.548,1.692,1.692,0,0,1,.372,1.079,2.028,2.028,0,0,1-.205.867,1.455,1.455,0,0,1-1.367.883,1.352,1.352,0,0,1-1.146-.574,1.782,1.782,0,0,1-.357-1.086,1.924,1.924,0,0,1,.217-.871,1.478,1.478,0,0,1,.572-.639A1.457,1.457,0,0,1,426.338,59.441Zm-.107.225a.74.74,0,0,0-.372.109.772.772,0,0,0-.3.385,1.862,1.862,0,0,0-.116.706,2.456,2.456,0,0,0,.278,1.2.821.821,0,0,0,.728.5.679.679,0,0,0,.557-.278,1.583,1.583,0,0,0,.219-.957A2.174,2.174,0,0,0,426.859,60,.75.75,0,0,0,426.231,59.666Z" fill="#1a1311"/>
      <path id="Path_4128" data-name="Path 4128" d="M429.588,59.784v2.1a1.012,1.012,0,0,0,.1.563.424.424,0,0,0,.344.154h.289v.125h-1.9V62.6h.143a.49.49,0,0,0,.254-.07.357.357,0,0,0,.158-.188,1.6,1.6,0,0,0,.044-.459v-2.1h-.619v-.25h.619v-.209a1.923,1.923,0,0,1,.152-.806,1.255,1.255,0,0,1,.469-.535,1.277,1.277,0,0,1,.707-.2,1.068,1.068,0,0,1,.672.238.438.438,0,0,1,.2.35.276.276,0,0,1-.09.2.27.27,0,0,1-.2.091.31.31,0,0,1-.168-.057.893.893,0,0,1-.218-.247.889.889,0,0,0-.236-.255.449.449,0,0,0-.241-.067.438.438,0,0,0-.271.085.48.48,0,0,0-.16.265,5.035,5.035,0,0,0-.048.924v.229h.82v.25Z" fill="#1a1311"/>
      <path id="Path_4129" data-name="Path 4129" d="M436.358,61.416l.115.025-.4,1.28h-3.652v-.129h.177a.477.477,0,0,0,.429-.194,1.146,1.146,0,0,0,.072-.516V58.838a.963.963,0,0,0-.1-.553.509.509,0,0,0-.4-.153h-.177V58h2.136v.129a1.329,1.329,0,0,0-.528.069.437.437,0,0,0-.207.185,1.527,1.527,0,0,0-.055.532v2.964a.97.97,0,0,0,.055.4.266.266,0,0,0,.129.108,2.272,2.272,0,0,0,.543.035h.345a2.515,2.515,0,0,0,.762-.08,1.01,1.01,0,0,0,.4-.284A2.386,2.386,0,0,0,436.358,61.416Z" fill="#1a1311"/>
      <path id="Path_4130" data-name="Path 4130" d="M438.653,62.262a5.227,5.227,0,0,1-.616.438.938.938,0,0,1-.4.087.715.715,0,0,1-.544-.226.829.829,0,0,1-.214-.6.76.76,0,0,1,.1-.4,1.374,1.374,0,0,1,.5-.446,7.824,7.824,0,0,1,1.174-.508v-.125a1.031,1.031,0,0,0-.151-.654.546.546,0,0,0-.439-.178.5.5,0,0,0-.349.119.356.356,0,0,0-.132.271l.007.2a.34.34,0,0,1-.082.246.277.277,0,0,1-.214.088.27.27,0,0,1-.211-.091A.351.351,0,0,1,437,60.24a.713.713,0,0,1,.307-.549,1.32,1.32,0,0,1,.859-.25,1.471,1.471,0,0,1,.7.142.644.644,0,0,1,.3.337,1.863,1.863,0,0,1,.063.612v1.082a5.174,5.174,0,0,0,.017.559.234.234,0,0,0,.059.138.136.136,0,0,0,.092.034.182.182,0,0,0,.1-.025,2.105,2.105,0,0,0,.282-.253v.195q-.39.521-.745.521a.336.336,0,0,1-.271-.118A.637.637,0,0,1,438.653,62.262Zm0-.227V60.821a6.685,6.685,0,0,0-.678.3,1.146,1.146,0,0,0-.393.32.618.618,0,0,0-.119.366.6.6,0,0,0,.15.415.455.455,0,0,0,.344.165A1.255,1.255,0,0,0,438.653,62.035Z" fill="#1a1311"/>
      <path id="Path_4131" data-name="Path 4131" d="M440.883,60.084a1.268,1.268,0,0,1,1-.643,1.1,1.1,0,0,1,.856.418,1.686,1.686,0,0,1,.366,1.147,1.774,1.774,0,0,1-.564,1.367,1.551,1.551,0,0,1-1.078.445,1.7,1.7,0,0,1-.566-.1,2.577,2.577,0,0,1-.586-.3v-3.3a4.669,4.669,0,0,0-.026-.668.287.287,0,0,0-.082-.17.208.208,0,0,0-.138-.045.718.718,0,0,0-.245.055l-.048-.122.957-.389h.156Zm0,.223v1.906a1.361,1.361,0,0,0,.367.263.927.927,0,0,0,.388.089.764.764,0,0,0,.59-.349A1.612,1.612,0,0,0,442.5,61.2a1.438,1.438,0,0,0-.272-.941.8.8,0,0,0-.621-.329.815.815,0,0,0-.369.094A1.569,1.569,0,0,0,440.883,60.307Z" fill="#1a1311"/>
      <path id="Path_4132" data-name="Path 4132" d="M445.131,59.441a1.414,1.414,0,0,1,1.162.548,1.692,1.692,0,0,1,.372,1.079,2.028,2.028,0,0,1-.205.867,1.455,1.455,0,0,1-1.367.883,1.352,1.352,0,0,1-1.146-.574,1.782,1.782,0,0,1-.357-1.086,1.924,1.924,0,0,1,.217-.871,1.478,1.478,0,0,1,.572-.639A1.457,1.457,0,0,1,445.131,59.441Zm-.107.225a.737.737,0,0,0-.372.109.772.772,0,0,0-.3.385,1.843,1.843,0,0,0-.116.706,2.456,2.456,0,0,0,.278,1.2.821.821,0,0,0,.728.5.679.679,0,0,0,.557-.278,1.583,1.583,0,0,0,.219-.957A2.174,2.174,0,0,0,445.652,60,.75.75,0,0,0,445.024,59.666Z" fill="#1a1311"/>
      <path id="Path_4133" data-name="Path 4133" d="M448.066,59.441v.715q.4-.715.823-.715a.445.445,0,0,1,.316.116.361.361,0,0,1,.125.269.32.32,0,0,1-.09.23.291.291,0,0,1-.216.094.46.46,0,0,1-.273-.121.456.456,0,0,0-.225-.119.2.2,0,0,0-.135.07,1.668,1.668,0,0,0-.325.469v1.528a.958.958,0,0,0,.067.4.368.368,0,0,0,.16.157.713.713,0,0,0,.33.063v.125h-1.631V62.6a.679.679,0,0,0,.362-.077.3.3,0,0,0,.122-.177,1.874,1.874,0,0,0,.017-.338V60.769a5.414,5.414,0,0,0-.022-.662.264.264,0,0,0-.084-.156.238.238,0,0,0-.151-.049.686.686,0,0,0-.244.053l-.035-.125.964-.389Z" fill="#1a1311"/>
    </g>
  </g>
</svg>
