<svg xmlns="http://www.w3.org/2000/svg" width="379.728" height="110.942" viewBox="0 0 379.728 110.942">
  <g id="logo-top" transform="translate(-9.637 -332.547)">
    <g id="Group_17" data-name="Group 17">
      <g id="Group_16" data-name="Group 16">
        <g id="Group_15" data-name="Group 15">
          <path id="Path_96" data-name="Path 96" d="M115.591,430.925a11.564,11.564,0,1,1-11.564-11.563A11.564,11.564,0,0,1,115.591,430.925Z" fill="#fff"/>
          <g id="Group_14" data-name="Group 14">
            <g id="Group_12" data-name="Group 12">
              <path id="Path_97" data-name="Path 97" d="M102.889,432.835c-3.531-1.439-8.035-.062-9.177.333a10.423,10.423,0,0,0,.393,1.357c1.769-.515,5.418-1.294,8.384-.084,5.851,2.384,9.661,1.278,11.261.531a10.362,10.362,0,0,0,.54-1.675C112.783,434.042,108.925,435.3,102.889,432.835Z" fill="#139e64"/>
              <path id="Path_98" data-name="Path 98" d="M102.889,435.8c-2.866-1.169-6.373-.482-8.2.03a10.227,10.227,0,0,0,.822,1.307,12.4,12.4,0,0,1,6.981.27,16.18,16.18,0,0,0,8.625,1.3,10.661,10.661,0,0,0,1.621-1.868C110.732,437.395,107.427,437.648,102.889,435.8Z" fill="#139e64"/>
              <path id="Path_99" data-name="Path 99" d="M96.558,438.364a10.559,10.559,0,0,0,12.456,1.829,18.326,18.326,0,0,1-6.125-1.435A11.844,11.844,0,0,0,96.558,438.364Z" fill="#139e64"/>
            </g>
            <g id="Group_13" data-name="Group 13">
              <path id="Path_100" data-name="Path 100" d="M104.728,429.122a1.72,1.72,0,0,0,1.116-3.036,2.291,2.291,0,0,1,.049.451,2.119,2.119,0,0,1-.383,1.219,3.862,3.862,0,0,1-1.388,1.251A1.678,1.678,0,0,0,104.728,429.122Zm-.7-8.722a10.553,10.553,0,0,0-10.552,10.552c0,.328.019.653.047.974,1.385-.726,5.309-2.164,11.562.383,4.074,1.663,9.446-.429,9.451-.429.026-.306.042-.617.042-.928A10.551,10.551,0,0,0,104.027,420.4Zm.225,9.711a2.8,2.8,0,0,1-2.8-2.8c0-1.544,2.994-4.738,2.863-4.869-.061-.061,2.731,3.506,2.731,4.869A2.8,2.8,0,0,1,104.252,430.111Z" fill="#1c9fd6"/>
            </g>
          </g>
        </g>
      </g>
    </g>
    <g id="Group_18" data-name="Group 18">
      <path id="Path_101" data-name="Path 101" d="M104.068,355.372h11.318v14.843h-2.537l-.866-1.894a11.945,11.945,0,0,1-7.029,2.357q-6.1,0-9.475-3.656t-3.374-10.3q0-6.464,3.575-10.462a11.953,11.953,0,0,1,9.355-4q7.612,0,9.264,7.773l-3.746,1.711v-.664l-.06-1.49q-.384-4.854-4.492-4.854a4.1,4.1,0,0,0-4.128,2.578q-1.108,2.578-1.108,9.606,0,6.567.9,8.922a3.364,3.364,0,0,0,3.413,2.357q2.961,0,2.961-3.3v-6.766h-3.968Z" fill="#fff"/>
      <path id="Path_102" data-name="Path 102" d="M128.114,349.391q10.069,0,10.07,10.632t-10.07,10.634q-10.089,0-10.09-10.634T128.114,349.391Zm-.02,1.793q-2.437,0-2.437,8.839t2.437,8.842q2.457,0,2.457-8.842T128.094,351.184Z" fill="#fff"/>
      <path id="Path_103" data-name="Path 103" d="M150.428,349.391q10.07,0,10.07,10.632t-10.07,10.634q-10.089,0-10.09-10.634T150.428,349.391Zm-.02,1.793q-2.437,0-2.437,8.839t2.437,8.842q2.457,0,2.457-8.842T150.408,351.184Z" fill="#fff"/>
      <path id="Path_104" data-name="Path 104" d="M181.8,342.3v27.913h-7.35v-1.752a6.134,6.134,0,0,1-4.955,2.215q-6.848,0-6.847-10.513,0-10.815,7.25-10.815a5.233,5.233,0,0,1,4.552,2.517v-9.142A70.853,70.853,0,0,0,181.8,342.3Zm-9.526,10.009q-1.853,0-1.852,3.4l-.141,4.308.08,3.928q0,3.767,2.094,3.766,2.034,0,2.035-3.705l.1-4.955-.161-3.383Q174.111,352.311,172.279,352.311Z" fill="#fff"/>
      <path id="Path_105" data-name="Path 105" d="M228.607,342.725l-7.49,27.49h-5.2l-3.826-15-3.887,15h-5.2l-7.09-27.49h8.015l4.17,16.675,4.168-16.675h4.694l4.107,16.735,4.391-16.735Z" fill="#fff"/>
      <path id="Path_106" data-name="Path 106" d="M250.842,369.489a14.472,14.472,0,0,1-5.257,1.048q-3.785,0-4.672-2.357a6.182,6.182,0,0,1-5.276,2.457q-6.424,0-6.425-5.961,0-4.531,5.881-6.363,5.4-1.692,5.4-4.069,0-3.121-3.1-3.121-3.585,0-3.585,3.021a7.765,7.765,0,0,0,.564,2.5l-3.645-.7a12.056,12.056,0,0,1-.141-1.772q0-4.834,8.82-4.834,8.379,0,8.378,4.512v12.324q0,1.895,1.229,1.894a2.64,2.64,0,0,0,1.128-.423ZM240.43,358.01a6.217,6.217,0,0,1-1.591,1.309,4.757,4.757,0,0,0-2.276,4.471q0,4.029,1.571,4.028,2.295,0,2.3-3.988Z" fill="#fff"/>
      <path id="Path_107" data-name="Path 107" d="M263.167,349.975v2.275H259.9v14.359q0,1.352.867,1.35c.416,0,.665-.3.745-.906l2.094.2q-.865,3.182-5.518,3.182-5.54,0-5.538-4.713V352.25H250.1v-2.275h2.457V346.39a33.124,33.124,0,0,0,7.35-3.021v6.606Z" fill="#fff"/>
      <path id="Path_108" data-name="Path 108" d="M280.043,362.783l2.961.865q-.465,7.03-8.3,7.03-10.15,0-10.149-10.131a11.922,11.922,0,0,1,2.7-8.055,8.7,8.7,0,0,1,6.908-3.142q8.8,0,8.8,11.359H272.249q0,7.974,4.048,7.975,3.786,0,3.787-4.511Q280.084,363.568,280.043,362.783Zm-7.814-4.349h4.39q0-7.09-2.135-7.09-1.932,0-2.174,5.256Z" fill="#fff"/>
      <path id="Path_109" data-name="Path 109" d="M300.706,357.285h-5.034a15.511,15.511,0,0,1,.463-1.752,4.693,4.693,0,0,0,.282-1.49q0-1.289-.927-1.289-.7,0-1.349,1.7a10.066,10.066,0,0,0-.645,3.6v12.164h-7.35v-20.3l1.429.02a37.963,37.963,0,0,0,5.921-.543v3.342q1.793-3.342,4.391-3.342,3.545,0,3.545,3.906a9.6,9.6,0,0,1-.343,2.357C301.008,356.016,300.881,356.561,300.706,357.285Z" fill="#fff"/>
      <path id="Path_110" data-name="Path 110" d="M111.52,398.459l3.4.886q.081,1.047.081,1.812a7.888,7.888,0,0,1-2.9,6.4,11.824,11.824,0,0,1-7.774,2.4q-12.225,0-12.225-13.755,0-6.523,3.565-10.583a11.773,11.773,0,0,1,9.284-4.057q8.922,0,8.922,8.579l-3.424,1.571q.061-1.211.061-1.873,0-6.082-4.874-6.082-5.155,0-5.156,12.909,0,11.1,5.76,11.1a4.95,4.95,0,0,0,3.958-1.893,7.138,7.138,0,0,0,1.58-4.732A20.064,20.064,0,0,0,111.52,398.459Z" fill="#fff"/>
      <path id="Path_111" data-name="Path 111" d="M126.825,388.672q10.069,0,10.07,10.633t-10.07,10.633q-10.089,0-10.09-10.633T126.825,388.672Zm-.02,1.792q-2.437,0-2.437,8.841t2.437,8.841q2.457,0,2.457-8.841T126.805,390.464Z" fill="#fff"/>
      <path id="Path_112" data-name="Path 112" d="M169.742,409.495h-7.351V394.25q0-1.995-1.168-1.994-2.7,0-2.7,5.74v11.5h-7.35V394.572q0-2.275-1.048-2.275-2.739,0-2.738,5.719v11.479h-7.351v-20.36a53.322,53.322,0,0,0,7.351-.5v3.5a7.75,7.75,0,0,1,6.4-3.484,5.019,5.019,0,0,1,4.732,3.283,7.385,7.385,0,0,1,6.143-3.323q5.074,0,5.075,5.135Z" fill="#fff"/>
      <path id="Path_113" data-name="Path 113" d="M188.411,402.063l2.961.867q-.465,7.027-8.3,7.028-10.15,0-10.15-10.13a11.92,11.92,0,0,1,2.7-8.055,8.693,8.693,0,0,1,6.907-3.142q8.8,0,8.8,11.358H180.617q0,7.977,4.048,7.976,3.786,0,3.786-4.512Q188.451,402.85,188.411,402.063Zm-7.814-4.349h4.39q0-7.089-2.134-7.089-1.935,0-2.176,5.256Z" fill="#fff"/>
      <path id="Path_114" data-name="Path 114" d="M210.322,394.411l-3.564.624q0-4.551-4.23-4.551-2.6,0-2.6,2.135,0,1.57,4.47,3.383,6.848,2.8,6.847,7.109,0,6.867-8.72,6.868-9.224,0-9.223-6.868l3.786-.765a10.346,10.346,0,0,0-.081,1.249,4,4,0,0,0,1.48,3.081,5.1,5.1,0,0,0,3.494,1.308q2.66,0,2.659-2.255,0-1.511-4.289-3.343-6.467-2.779-6.465-7.129a5.647,5.647,0,0,1,2.477-4.723,10.385,10.385,0,0,1,6.363-1.843Q209.638,388.691,210.322,394.411Z" fill="#fff"/>
      <path id="Path_115" data-name="Path 115" d="M237.127,389.2v2.276h-2.9v18.024h-7.351V391.471H224.3V389.2h2.578v-1.812a5.443,5.443,0,0,1,1.763-4.149,6.207,6.207,0,0,1,4.42-1.652q5.317,0,5.316,3.988,0,.3-.02.765l-3.484,1.228a6.735,6.735,0,0,0,.282-1.651q0-2.134-1.49-2.135-1.288,0-1.289,1.873,0,1.149,1.853,3.545Z" fill="#fff"/>
      <path id="Path_116" data-name="Path 116" d="M254.145,396.565H249.11a15.512,15.512,0,0,1,.463-1.752,4.65,4.65,0,0,0,.282-1.49q0-1.287-.926-1.288-.705,0-1.35,1.7a10.06,10.06,0,0,0-.644,3.6v12.164h-7.351V389.2l1.43.02a38.1,38.1,0,0,0,5.921-.543v3.342q1.793-3.344,4.39-3.342,3.545,0,3.545,3.906a9.546,9.546,0,0,1-.343,2.357Q254.406,395.478,254.145,396.565Z" fill="#fff"/>
      <path id="Path_117" data-name="Path 117" d="M266.328,388.672q10.069,0,10.07,10.633t-10.07,10.633q-10.088,0-10.089-10.633T266.328,388.672Zm-.019,1.792q-2.437,0-2.437,8.841t2.437,8.841q2.456,0,2.457-8.841T266.309,390.464Z" fill="#fff"/>
      <path id="Path_118" data-name="Path 118" d="M309.245,409.495h-7.35V394.25q0-1.995-1.168-1.994-2.7,0-2.7,5.74v11.5h-7.351V394.572q0-2.275-1.047-2.275-2.739,0-2.739,5.719v11.479H279.54v-20.36a53.321,53.321,0,0,0,7.351-.5v3.5a7.751,7.751,0,0,1,6.4-3.484,5.02,5.02,0,0,1,4.733,3.283,7.384,7.384,0,0,1,6.142-3.323q5.076,0,5.075,5.135Z" fill="#fff"/>
      <path id="Path_119" data-name="Path 119" d="M345.294,382.006l-6.706,17.339v10.15h-7.976v-10.15L323.2,382.006h8.278l5.6,13.251,5.035-13.251Z" fill="#fff"/>
      <path id="Path_120" data-name="Path 120" d="M355.907,388.672q10.069,0,10.071,10.633t-10.071,10.633q-10.088,0-10.089-10.633T355.907,388.672Zm-.019,1.792q-2.437,0-2.437,8.841t2.437,8.841q2.455,0,2.457-8.841T355.888,390.464Z" fill="#fff"/>
      <path id="Path_121" data-name="Path 121" d="M388.372,388.672v20.823h-7.351v-3.242a7.671,7.671,0,0,1-6.525,3.625q-5.376,0-5.377-5.236V389.2q3.707-.16,7.351-.523V404.46q0,2.055,1.249,2.055,3.3,0,3.3-7.089V389.2Q384.708,389.035,388.372,388.672Z" fill="#fff"/>
    </g>
    <g id="Group_19" data-name="Group 19">
      <path id="Path_122" data-name="Path 122" d="M126.94,428.289H123.6v-1.245h8.119v1.245h-3.357v10.07H126.94Z" fill="#fff"/>
      <path id="Path_123" data-name="Path 123" d="M137.672,436.413a14.247,14.247,0,0,0,.117,1.946H136.5l-.126-1.017h-.048a2.6,2.6,0,0,1-.93.831,3.166,3.166,0,0,1-1.479.375,2.315,2.315,0,0,1-2.41-2.333q.031-3,4.74-3.021v-.165q0-.273-.032-.612a2.05,2.05,0,0,0-.247-.612,1.28,1.28,0,0,0-.541-.505,2,2,0,0,0-.979-.174,3.778,3.778,0,0,0-2.069.612l-.326-.994a4.755,4.755,0,0,1,2.607-.7,3.656,3.656,0,0,1,1.51.271,2.277,2.277,0,0,1,.913.773,2.819,2.819,0,0,1,.47,1.059,6.273,6.273,0,0,1,.119,1.233Zm-1.394-2.2a6.822,6.822,0,0,0-1.163.032,4.135,4.135,0,0,0-1.092.273,2.186,2.186,0,0,0-.78.56,1.464,1.464,0,0,0-.311.973,1.307,1.307,0,0,0,1.339,1.419,1.88,1.88,0,0,0,1.291-.438,1.994,1.994,0,0,0,.652-.923,1.832,1.832,0,0,0,.064-.478Z" fill="#fff"/>
      <path id="Path_124" data-name="Path 124" d="M140.907,428.724a.742.742,0,0,1-.636-.3.894.894,0,0,1-.262-.65.883.883,0,0,1,.262-.667.85.85,0,0,1,.668-.267.866.866,0,0,1,.668.267.932.932,0,0,1,.239.667.946.946,0,0,1-.239.65.836.836,0,0,1-.684.3Zm-.683,9.635v-8.126h1.424v8.126Z" fill="#fff"/>
      <path id="Path_125" data-name="Path 125" d="M144.151,432.882q0-1.525-.068-2.649h1.286l.08,1.389h.031a2.983,2.983,0,0,1,2.788-1.577,3.032,3.032,0,0,1,2.406,1.132,5.369,5.369,0,0,1-.152,6.272,3.309,3.309,0,0,1-2.489,1.1,2.713,2.713,0,0,1-2.425-1.263h-.032v4.4h-1.425Zm1.425,2.177a2.813,2.813,0,0,0,.064.6,2.446,2.446,0,0,0,.78,1.253,2.066,2.066,0,0,0,1.353.486,2.035,2.035,0,0,0,1.776-.874,3.833,3.833,0,0,0,.621-2.283,3.722,3.722,0,0,0-.589-2.144,2,2,0,0,0-1.744-.891,2.039,2.039,0,0,0-1.337.487,2.608,2.608,0,0,0-.844,1.335,2.553,2.553,0,0,0-.08.611Z" fill="#fff"/>
      <path id="Path_126" data-name="Path 126" d="M154.522,434.546a2.916,2.916,0,0,0,.828,2.155,2.732,2.732,0,0,0,1.862.675,4.92,4.92,0,0,0,.716-.049q.327-.033.589-.083a6.913,6.913,0,0,0,.876-.271l.262,1.038a4.257,4.257,0,0,1-1.025.334,7.272,7.272,0,0,1-1.613.178,3.653,3.653,0,0,1-2.83-1.139,4.138,4.138,0,0,1-1.041-2.952,4.772,4.772,0,0,1,1.009-3.141,3.287,3.287,0,0,1,2.7-1.263,3.048,3.048,0,0,1,1.59.369,2.892,2.892,0,0,1,.993.976,4.629,4.629,0,0,1,.524,1.23,6.747,6.747,0,0,1,.127,1.254,4.147,4.147,0,0,1-.047.706Zm4.192-1.049a2.907,2.907,0,0,0-.374-1.569,1.756,1.756,0,0,0-.606-.612,1.883,1.883,0,0,0-1-.239,1.827,1.827,0,0,0-1.594.818,2.823,2.823,0,0,0-.406.777,3.474,3.474,0,0,0-.12.4c-.032.138-.058.278-.079.421Z" fill="#fff"/>
      <path id="Path_127" data-name="Path 127" d="M162.817,428.724a.744.744,0,0,1-.636-.3.894.894,0,0,1-.262-.65.883.883,0,0,1,.262-.667.85.85,0,0,1,.668-.267.864.864,0,0,1,.668.267.932.932,0,0,1,.239.667.946.946,0,0,1-.239.65.834.834,0,0,1-.684.3Zm-.683,9.635v-8.126h1.425v8.126Z" fill="#fff"/>
      <path id="Path_128" data-name="Path 128" d="M170.849,438.359l-2.779-11.315h1.493l1.3,5.728q.5,2.2.81,3.916h.032q.311-1.716.9-3.932l1.461-5.712h1.485l1.335,5.745q.484,2.068.762,3.882h.032q.357-1.83.881-3.915l1.445-5.712h1.446l-3.105,11.315h-1.477l-1.382-5.884a36.621,36.621,0,0,1-.723-3.71h-.032a28.466,28.466,0,0,1-.841,3.693l-1.565,5.9Z" fill="#fff"/>
      <path id="Path_129" data-name="Path 129" d="M188.183,436.413a14.407,14.407,0,0,0,.117,1.946h-1.288l-.127-1.017h-.048a2.6,2.6,0,0,1-.93.831,3.166,3.166,0,0,1-1.479.375,2.315,2.315,0,0,1-2.41-2.333q.033-3,4.74-3.021v-.165q0-.273-.032-.612a2.024,2.024,0,0,0-.247-.612,1.274,1.274,0,0,0-.541-.505,2,2,0,0,0-.979-.174,3.774,3.774,0,0,0-2.068.612l-.327-.994a4.755,4.755,0,0,1,2.607-.7,3.653,3.653,0,0,1,1.51.271,2.287,2.287,0,0,1,.914.773,2.833,2.833,0,0,1,.469,1.059,6.273,6.273,0,0,1,.119,1.233Zm-1.393-2.2a6.83,6.83,0,0,0-1.164.032,4.128,4.128,0,0,0-1.091.273,2.181,2.181,0,0,0-.781.56,1.464,1.464,0,0,0-.311.973,1.308,1.308,0,0,0,1.339,1.419,1.88,1.88,0,0,0,1.291-.438,2,2,0,0,0,.653-.923,1.875,1.875,0,0,0,.064-.478Z" fill="#fff"/>
      <path id="Path_130" data-name="Path 130" d="M192.389,428.282v1.951h2.055v1.115h-2.055v4.406q-.041,1.564,1.076,1.581a2.621,2.621,0,0,0,.828-.1l.064,1.11a3.709,3.709,0,0,1-1.26.2,2.049,2.049,0,0,1-1.546-.624,3.253,3.253,0,0,1-.554-2.135v-4.441h-1.223v-1.115H191v-1.492Z" fill="#fff"/>
      <path id="Path_131" data-name="Path 131" d="M196.932,434.546a2.912,2.912,0,0,0,.828,2.155,2.732,2.732,0,0,0,1.862.675,4.931,4.931,0,0,0,.716-.049q.327-.033.589-.083a6.965,6.965,0,0,0,.876-.271l.261,1.038a4.262,4.262,0,0,1-1.024.334,7.286,7.286,0,0,1-1.613.178,3.653,3.653,0,0,1-2.83-1.139,4.134,4.134,0,0,1-1.041-2.952,4.772,4.772,0,0,1,1.009-3.141,3.286,3.286,0,0,1,2.7-1.263,3.042,3.042,0,0,1,1.588.369,2.887,2.887,0,0,1,.994.976,4.629,4.629,0,0,1,.524,1.23,6.834,6.834,0,0,1,.127,1.254,4.029,4.029,0,0,1-.048.706Zm4.192-1.049a2.908,2.908,0,0,0-.375-1.569,1.753,1.753,0,0,0-.6-.612,1.885,1.885,0,0,0-1-.239,1.827,1.827,0,0,0-1.593.818,2.854,2.854,0,0,0-.407.777,3.917,3.917,0,0,0-.12.4c-.031.138-.057.278-.079.421Z" fill="#fff"/>
      <path id="Path_132" data-name="Path 132" d="M204.56,432.764c0-.951-.024-1.793-.07-2.531h1.255l.064,1.585h.047a2.653,2.653,0,0,1,.882-1.3,2.091,2.091,0,0,1,1.319-.474,1.53,1.53,0,0,1,.389.049v1.371a4.409,4.409,0,0,0-.509-.027,1.626,1.626,0,0,0-1.251.525,2.41,2.41,0,0,0-.669,1.361,4.631,4.631,0,0,0-.048.7v4.33h-1.431Z" fill="#fff"/>
      <path id="Path_133" data-name="Path 133" d="M222.874,433.395q-.166-2.595-.183-4.893h-.031q-.564,1.968-1.381,4.3l-1.937,5.5h-1.071l-1.786-5.4q-.777-2.394-1.254-4.4H215.2q-.047,2.265-.206,5l-.294,4.854H213.35l.762-11.315h1.8l1.873,5.474q.683,2.067,1.1,3.815h.032q.437-1.7,1.175-3.815l1.944-5.474h1.81l.682,11.315h-1.4Z" fill="#fff"/>
      <path id="Path_134" data-name="Path 134" d="M232.732,436.413a14.232,14.232,0,0,0,.118,1.946h-1.288l-.128-1.017h-.048a2.6,2.6,0,0,1-.93.831,3.162,3.162,0,0,1-1.479.375,2.317,2.317,0,0,1-2.41-2.333q.033-3,4.74-3.021v-.165c0-.182-.01-.386-.032-.612a1.974,1.974,0,0,0-.247-.612,1.274,1.274,0,0,0-.541-.505,1.992,1.992,0,0,0-.978-.174,3.775,3.775,0,0,0-2.069.612l-.326-.994a4.755,4.755,0,0,1,2.607-.7,3.651,3.651,0,0,1,1.509.271,2.29,2.29,0,0,1,.915.773,2.848,2.848,0,0,1,.468,1.059,6.274,6.274,0,0,1,.119,1.233Zm-1.393-2.2a6.816,6.816,0,0,0-1.163.032,4.125,4.125,0,0,0-1.092.273,2.186,2.186,0,0,0-.78.56,1.464,1.464,0,0,0-.311.973,1.307,1.307,0,0,0,1.338,1.419,1.878,1.878,0,0,0,1.291-.438,2,2,0,0,0,.653-.923,1.875,1.875,0,0,0,.064-.478Z" fill="#fff"/>
      <path id="Path_135" data-name="Path 135" d="M235.284,432.427q0-1.236-.068-2.194h1.27l.08,1.323h.032a2.711,2.711,0,0,1,.961-1.054,3.01,3.01,0,0,1,1.643-.457,3.216,3.216,0,0,1,.914.14,2.707,2.707,0,0,1,.89.532,2.632,2.632,0,0,1,.7,1.058,4.564,4.564,0,0,1,.278,1.73v4.854h-1.425v-4.693a3.51,3.51,0,0,0-.39-1.718,1.581,1.581,0,0,0-1.435-.707,1.9,1.9,0,0,0-1.194.436,2.2,2.2,0,0,0-.828,1.767v4.915h-1.426Z" fill="#fff"/>
      <path id="Path_136" data-name="Path 136" d="M250.149,436.413a14.235,14.235,0,0,0,.118,1.946h-1.288l-.128-1.017H248.8a2.6,2.6,0,0,1-.93.831,3.163,3.163,0,0,1-1.479.375,2.317,2.317,0,0,1-2.41-2.333q.033-3,4.74-3.021v-.165c0-.182-.01-.386-.032-.612a2,2,0,0,0-.247-.612,1.274,1.274,0,0,0-.541-.505,1.992,1.992,0,0,0-.978-.174,3.775,3.775,0,0,0-2.069.612l-.326-.994a4.755,4.755,0,0,1,2.607-.7,3.651,3.651,0,0,1,1.509.271,2.29,2.29,0,0,1,.915.773,2.847,2.847,0,0,1,.468,1.059,6.274,6.274,0,0,1,.119,1.233Zm-1.393-2.2a6.816,6.816,0,0,0-1.163.032,4.125,4.125,0,0,0-1.092.273,2.177,2.177,0,0,0-.78.56,1.464,1.464,0,0,0-.311.973,1.307,1.307,0,0,0,1.338,1.419,1.878,1.878,0,0,0,1.291-.438,2,2,0,0,0,.653-.923,1.876,1.876,0,0,0,.064-.478Z" fill="#fff"/>
      <path id="Path_137" data-name="Path 137" d="M259.431,437.18a8.414,8.414,0,0,1-.254,2.27,3.452,3.452,0,0,1-.867,1.438,3.53,3.53,0,0,1-1.352.735,5.125,5.125,0,0,1-1.526.237,5.425,5.425,0,0,1-1.423-.188,3.4,3.4,0,0,1-1.2-.481l.358-1.134a3.886,3.886,0,0,0,2.316.657,2.528,2.528,0,0,0,1.824-.672,2.954,2.954,0,0,0,.716-2.177v-.891h-.032a2.528,2.528,0,0,1-.947.953,2.889,2.889,0,0,1-1.56.4,2.956,2.956,0,0,1-2.394-1.156,4.227,4.227,0,0,1-.962-2.82,4.441,4.441,0,0,1,1.1-3.2,3.349,3.349,0,0,1,2.456-1.106,2.886,2.886,0,0,1,1.63.437,2.6,2.6,0,0,1,.835.941h.032l.047-1.193,1.264,0q-.064.786-.064,2.21Zm-1.425-3.764a2.6,2.6,0,0,0-.08-.659,2.471,2.471,0,0,0-.685-1.128,2.141,2.141,0,0,0-3,.37,3.508,3.508,0,0,0-.669,2.273,3.425,3.425,0,0,0,.606,2.059,2.1,2.1,0,0,0,2.972.461,2.219,2.219,0,0,0,.749-1.12,2.742,2.742,0,0,0,.111-.79Z" fill="#fff"/>
      <path id="Path_138" data-name="Path 138" d="M262.892,434.546a2.908,2.908,0,0,0,.827,2.155,2.73,2.73,0,0,0,1.862.675,4.93,4.93,0,0,0,.716-.049q.327-.033.589-.083a6.964,6.964,0,0,0,.876-.271l.261,1.038a4.262,4.262,0,0,1-1.024.334,7.287,7.287,0,0,1-1.613.178,3.648,3.648,0,0,1-2.829-1.139,4.13,4.13,0,0,1-1.041-2.952,4.771,4.771,0,0,1,1.008-3.141,3.286,3.286,0,0,1,2.7-1.263,3.042,3.042,0,0,1,1.588.369,2.887,2.887,0,0,1,.994.976,4.63,4.63,0,0,1,.524,1.23,6.835,6.835,0,0,1,.127,1.254,4.031,4.031,0,0,1-.048.706Zm4.191-1.049a2.908,2.908,0,0,0-.375-1.569,1.753,1.753,0,0,0-.605-.612,1.885,1.885,0,0,0-1-.239,1.827,1.827,0,0,0-1.593.818,2.855,2.855,0,0,0-.407.777,3.921,3.921,0,0,0-.12.4c-.031.138-.057.278-.079.421Z" fill="#fff"/>
      <path id="Path_139" data-name="Path 139" d="M270.345,432.427q0-1.236-.069-2.194h1.289l.065,1.306h.05a3.234,3.234,0,0,1,.954-1.054,2.875,2.875,0,0,1,1.606-.44,2.383,2.383,0,0,1,1.42.455,2.464,2.464,0,0,1,.848,1.161h.033a3.273,3.273,0,0,1,.922-1.051,2.763,2.763,0,0,1,.783-.427,3.141,3.141,0,0,1,.986-.138,2.923,2.923,0,0,1,.881.14,2.371,2.371,0,0,1,.873.548,2.866,2.866,0,0,1,.669,1.075,5.26,5.26,0,0,1,.253,1.762v4.789h-1.393v-4.611q0-2.473-1.788-2.507a1.8,1.8,0,0,0-1.106.387,2.379,2.379,0,0,0-.682.944,2.208,2.208,0,0,0-.116.741v5.046h-1.392v-4.882a2.868,2.868,0,0,0-.424-1.636,1.538,1.538,0,0,0-1.3-.6,1.776,1.776,0,0,0-1.172.452,2.342,2.342,0,0,0-.682,1.028,2.188,2.188,0,0,0-.116.723v4.915h-1.394Z" fill="#fff"/>
      <path id="Path_140" data-name="Path 140" d="M285.31,434.546a2.908,2.908,0,0,0,.827,2.155,2.73,2.73,0,0,0,1.862.675,4.93,4.93,0,0,0,.716-.049q.327-.033.589-.083a6.964,6.964,0,0,0,.876-.271l.261,1.038a4.262,4.262,0,0,1-1.024.334,7.287,7.287,0,0,1-1.613.178,3.648,3.648,0,0,1-2.829-1.139,4.13,4.13,0,0,1-1.041-2.952,4.771,4.771,0,0,1,1.008-3.141,3.286,3.286,0,0,1,2.7-1.263,3.042,3.042,0,0,1,1.588.369,2.887,2.887,0,0,1,.994.976,4.63,4.63,0,0,1,.524,1.23,6.833,6.833,0,0,1,.127,1.254,4.031,4.031,0,0,1-.048.706ZM289.5,433.5a2.908,2.908,0,0,0-.375-1.569,1.753,1.753,0,0,0-.605-.612,1.885,1.885,0,0,0-1-.239,1.827,1.827,0,0,0-1.593.818,2.855,2.855,0,0,0-.407.777,3.921,3.921,0,0,0-.12.4c-.031.138-.057.278-.079.421Z" fill="#fff"/>
      <path id="Path_141" data-name="Path 141" d="M292.92,432.427q0-1.236-.068-2.194h1.27l.08,1.323h.031a2.726,2.726,0,0,1,.961-1.054,3.014,3.014,0,0,1,1.644-.457,3.217,3.217,0,0,1,.914.14,2.728,2.728,0,0,1,.89.532,2.632,2.632,0,0,1,.7,1.058,4.584,4.584,0,0,1,.278,1.73v4.854h-1.426v-4.693a3.521,3.521,0,0,0-.389-1.718,1.581,1.581,0,0,0-1.435-.707,1.9,1.9,0,0,0-1.194.436,2.249,2.249,0,0,0-.733,1.077,2.289,2.289,0,0,0-.1.69v4.915H292.92Z" fill="#fff"/>
      <path id="Path_142" data-name="Path 142" d="M303.9,428.282v1.951h2.055v1.115H303.9v4.406q-.041,1.564,1.076,1.581a2.628,2.628,0,0,0,.829-.1l.063,1.11a3.709,3.709,0,0,1-1.26.2,2.047,2.047,0,0,1-1.545-.624,3.246,3.246,0,0,1-.555-2.135v-4.441h-1.223v-1.115h1.223v-1.492Z" fill="#fff"/>
      <path id="Path_143" data-name="Path 143" d="M315.614,438.548a4.556,4.556,0,0,1-3.543-1.6,6.1,6.1,0,0,1-1.382-4.149,6.294,6.294,0,0,1,1.447-4.329,4.612,4.612,0,0,1,3.631-1.616,4.489,4.489,0,0,1,3.606,1.6,7.221,7.221,0,0,1-.143,8.561,4.866,4.866,0,0,1-3.6,1.533Zm.065-1.18a2.979,2.979,0,0,0,2.607-1.4,5.774,5.774,0,0,0,.915-3.317,5.982,5.982,0,0,0-.851-3.169,3.028,3.028,0,0,0-2.656-1.448,2.97,2.97,0,0,0-2.632,1.432,5.924,5.924,0,0,0-.9,3.3,5.424,5.424,0,0,0,.93,3.184,2.947,2.947,0,0,0,2.568,1.416Z" fill="#fff"/>
      <path id="Path_144" data-name="Path 144" d="M323.269,438.359v-7.011h-1.09v-1.115h1.09v-.386a5.456,5.456,0,0,1,.229-1.621,2.611,2.611,0,0,1,2.6-1.978,3.031,3.031,0,0,1,1.222.235l-.182,1.126a2.156,2.156,0,0,0-.923-.18,1.238,1.238,0,0,0-1.208.709,3.556,3.556,0,0,0-.326,1.658v.437h1.909v1.115h-1.894v7.011Z" fill="#fff"/>
      <path id="Path_145" data-name="Path 145" d="M328.172,438.359v-7.011h-1.09v-1.115h1.09v-.386a5.455,5.455,0,0,1,.229-1.621,2.613,2.613,0,0,1,2.6-1.978,3.04,3.04,0,0,1,1.223.235l-.183,1.126a2.156,2.156,0,0,0-.923-.18,1.238,1.238,0,0,0-1.208.709,3.568,3.568,0,0,0-.326,1.658v.437h1.909v1.115H329.6v7.011Z" fill="#fff"/>
      <path id="Path_146" data-name="Path 146" d="M333.627,428.724a.744.744,0,0,1-.636-.3.894.894,0,0,1-.262-.65.883.883,0,0,1,.262-.667.85.85,0,0,1,.668-.267.864.864,0,0,1,.668.267.931.931,0,0,1,.238.667.945.945,0,0,1-.238.65.833.833,0,0,1-.683.3Zm-.684,9.635v-8.126h1.426v8.126Z" fill="#fff"/>
      <path id="Path_147" data-name="Path 147" d="M342.475,438.079a4.575,4.575,0,0,1-.867.283q-.287.064-.628.114c-.227.032-.485.056-.77.072a3.728,3.728,0,0,1-2.841-1.164,4.219,4.219,0,0,1-1.071-3,4.386,4.386,0,0,1,1.15-3.124,4.068,4.068,0,0,1,3.073-1.214,4.02,4.02,0,0,1,1.985.438l-.325,1.113a1.923,1.923,0,0,0-.653-.272,3.844,3.844,0,0,0-1.008-.116,2.564,2.564,0,0,0-2.066.891,3.442,3.442,0,0,0-.715,2.21,3.139,3.139,0,0,0,.779,2.234,2.557,2.557,0,0,0,1.954.825,3.62,3.62,0,0,0,1.041-.132,4.758,4.758,0,0,0,.715-.256Z" fill="#fff"/>
      <path id="Path_148" data-name="Path 148" d="M345.1,434.546a2.908,2.908,0,0,0,.827,2.155,2.734,2.734,0,0,0,1.862.675,4.93,4.93,0,0,0,.716-.049q.327-.033.589-.083a6.964,6.964,0,0,0,.876-.271l.262,1.038a4.287,4.287,0,0,1-1.025.334,7.279,7.279,0,0,1-1.613.178,3.65,3.65,0,0,1-2.829-1.139,4.13,4.13,0,0,1-1.041-2.952,4.766,4.766,0,0,1,1.009-3.141,3.283,3.283,0,0,1,2.7-1.263,3.049,3.049,0,0,1,1.589.369,2.892,2.892,0,0,1,.993.976,4.629,4.629,0,0,1,.524,1.23,6.835,6.835,0,0,1,.127,1.254,4.031,4.031,0,0,1-.048.706Zm4.191-1.049a2.908,2.908,0,0,0-.375-1.569,1.744,1.744,0,0,0-.605-.612,1.883,1.883,0,0,0-1-.239,1.827,1.827,0,0,0-1.594.818,2.823,2.823,0,0,0-.406.777,3.683,3.683,0,0,0-.121.4c-.031.138-.057.278-.079.421Z" fill="#fff"/>
      <path id="Path_149" data-name="Path 149" d="M351.459,440.441a25.731,25.731,0,0,0,.974-4.033l1.584-.164a22.251,22.251,0,0,1-1.552,4.082Z" fill="#fff"/>
      <path id="Path_150" data-name="Path 150" d="M359.495,438.359l-2.779-11.315h1.492l1.3,5.728q.5,2.2.809,3.916h.033q.309-1.716.9-3.932l1.461-5.712H364.2l1.334,5.745q.484,2.068.762,3.882h.032q.357-1.83.882-3.915l1.444-5.712H370.1l-3.105,11.315h-1.476l-1.382-5.884a36.63,36.63,0,0,1-.723-3.71h-.032a28.655,28.655,0,0,1-.842,3.693l-1.564,5.9Z" fill="#fff"/>
      <path id="Path_151" data-name="Path 151" d="M371.91,427.206a15.169,15.169,0,0,1,2.718-.244,4.508,4.508,0,0,1,3.186.934,2.85,2.85,0,0,1,.859,2.149,2.976,2.976,0,0,1-.6,1.837,3.09,3.09,0,0,1-1.462,1.033v.057a2.863,2.863,0,0,1,1.61,2.28,20.7,20.7,0,0,0,.833,3.107h-1.472a14.564,14.564,0,0,1-.715-2.706,3.141,3.141,0,0,0-.732-1.673,1.985,1.985,0,0,0-1.48-.525h-1.336v4.9H371.91Zm1.408,5.151h1.452q2.43-.048,2.478-2.157a1.978,1.978,0,0,0-.686-1.622,3.167,3.167,0,0,0-1.84-.485,5.869,5.869,0,0,0-1.4.132Z" fill="#fff"/>
      <path id="Path_152" data-name="Path 152" d="M382.8,434.8l-1.135,3.559H380.2l3.722-11.315h1.706l3.737,11.315h-1.507l-1.174-3.559Zm3.587-1.13L385.3,430.4q-.326-1.09-.548-2.066H384.7q-.095.492-.221.992-.151.525-.31,1.058L383.1,433.67Z" fill="#fff"/>
    </g>
    <g id="Group_21" data-name="Group 21">
      <path id="Path_153" data-name="Path 153" d="M42.071,411.947s7.068,2.2,12.312,1.722,9.965,5.561,12.724,5.825S64.67,412.3,60.229,411.3s-18.64-4.4-18.64-4.4Z" fill="#96dbea"/>
      <path id="Path_154" data-name="Path 154" d="M48.307,413.773s.791,8.723-3.4,14.505c0,0,4.43,1.814,5.654,4.4,0,0,12.711-6.72,15.82.25s-16.261,18.133-18.611,3.066c0,0-4.82-7.857-17.741-5.775s3.274-18.871,4.022-19.975C36.43,406.738,46.705,399.557,48.307,413.773Z" fill="#96dbea"/>
      <path id="Path_155" data-name="Path 155" d="M46.181,414.637s1.217,4.522.659,6.1-2.787,2.785-4.308,1.988A3.36,3.36,0,0,1,41.2,418.5C41.884,417.125,46.181,414.637,46.181,414.637Z" fill="#fff"/>
      <path id="Path_156" data-name="Path 156" d="M36.485,425.847c-1.859-2.828-7.759-2.786-12.087.846s-4.34,7.6-1.9,10.354,6.786,1.809,10.2-.854S38.391,428.749,36.485,425.847Z" fill="#96dbea"/>
      <path id="Path_157" data-name="Path 157" d="M61,332.547s-5.548,17.989,10.458,36.834,7.6,36.746-6.624,41.644c-11.663,4.018-42.122-2.985-34.761-38.44C36.353,342.348,61,332.547,61,332.547Z" fill="#96dbea"/>
      <path id="Path_158" data-name="Path 158" d="M39.374,389.963a6.326,6.326,0,0,0,5.413,7.1,6.045,6.045,0,1,0,2.146-11.847A6.327,6.327,0,0,0,39.374,389.963Z" fill="#036eae"/>
      <path id="Path_159" data-name="Path 159" d="M69.582,400.014a6.325,6.325,0,0,1,6.815-5.766,7.07,7.07,0,0,1,3.27.936,21.75,21.75,0,0,1-6.242,10.538A6.044,6.044,0,0,1,69.582,400.014Z" fill="#036eae"/>
      <path id="Path_160" data-name="Path 160" d="M59.47,398.159c-.308.968.521,2.092,1.848,2.513s2.655-.023,2.96-.991-.522-2.093-1.85-2.513S59.776,397.191,59.47,398.159Z" fill="#00294f"/>
      <path id="Path_161" data-name="Path 161" d="M41.927,388.318a1.864,1.864,0,1,0,1.73-1.99A1.864,1.864,0,0,0,41.927,388.318Z" fill="#fff"/>
      <path id="Path_162" data-name="Path 162" d="M72.713,397.213a1.864,1.864,0,1,0,1.731-1.989A1.865,1.865,0,0,0,72.713,397.213Z" fill="#fff"/>
      <path id="Path_163" data-name="Path 163" d="M60.807,403.794c.24,0,.272.128.331-.117l1.008-3.7a.533.533,0,0,0-1.037-.251l-.7,3.642c-.069.286-.017.343.271.411A.444.444,0,0,0,60.807,403.794Z" fill="#00294f"/>
      <path id="Path_164" data-name="Path 164" d="M64.7,404.4" fill="none" stroke="#000" stroke-miterlimit="10" stroke-width="1.37"/>
      <path id="Path_165" data-name="Path 165" d="M62.569,405.3l-1.734-1.733-2.5.813s-.4,2.3,1.645,2.65A2.3,2.3,0,0,0,62.569,405.3Z" fill="#b90d23"/>
      <path id="Path_166" data-name="Path 166" d="M52.8,441.3c.941,1.9,4.489,2.066,7.927.366s5.459-4.62,4.518-6.523-4.489-2.067-7.927-.367S51.855,439.4,52.8,441.3Z" fill="#80c4e2"/>
      <path id="Path_167" data-name="Path 167" d="M23.511,435.79c1.491,1.767,4.815,1.413,7.426-.79s3.517-5.423,2.025-7.189-4.816-1.413-7.427.79S22.019,434.023,23.511,435.79Z" fill="#80c4e2"/>
      <path id="Path_168" data-name="Path 168" d="M40.444,398.779c-.238.742,1.437,1.942,3.74,2.681s4.364.738,4.6,0-1.437-1.94-3.741-2.68S40.681,398.039,40.444,398.779Z" fill="#ffa7c2"/>
      <path id="Path_169" data-name="Path 169" d="M66.946,405.925c-.262.734.911,1.82,2.619,2.428s3.3.507,3.564-.226-.912-1.82-2.618-2.429S67.206,405.191,66.946,405.925Z" fill="#ffa7c2"/>
      <path id="Path_170" data-name="Path 170" d="M55.921,402.593c.146-.115,1.1,1.153,2.362,1.332a3.615,3.615,0,0,0,2.306-.715l.3-.281.22.346a3.007,3.007,0,0,0,1.979,1.58c.908.13,1.981-.606,2.1-.467s-.968,1.3-2.189,1.135a3.408,3.408,0,0,1-2.253-1.579,4.058,4.058,0,0,1-2.605.616C56.573,404.289,55.776,402.708,55.921,402.593Z" fill="#00294f"/>
      <path id="Path_171" data-name="Path 171" d="M63.408,411.422s-12.116,2.736-24.814-6.127C38.594,405.3,47.221,415.64,63.408,411.422Z" fill="#72b8ca"/>
      <path id="Path_172" data-name="Path 172" d="M25.182,426.086s6.137-3.787,9.678-1.262a5.175,5.175,0,0,1,2.083,5.211A4.773,4.773,0,0,0,35.4,424.6c-3.1-2.672-7.986-.513-10.5.7C24.06,425.707,25.182,426.086,25.182,426.086Z" fill="#72b8ca"/>
      <g id="Group_20" data-name="Group 20">
        <path id="Path_173" data-name="Path 173" d="M40.416,407.252s.4-2.014-4.988-4.237c-5.342-2.206-11.37-9.127-12.792-12.524s-8.217-19.58-10.481-18.956-1.966,3.692-.082,9.837c0,0-3.318.937-1.645,8.208,0,0-3.773,3.031,5.166,13.588s20.5,8.076,20.5,8.076S40.383,411.068,40.416,407.252Z" fill="#96dbea"/>
        <path id="Path_174" data-name="Path 174" d="M12.073,381.372a41.081,41.081,0,0,0,5.548,11.172S12.266,387.016,12.073,381.372Z" fill="#72b8ca"/>
        <path id="Path_175" data-name="Path 175" d="M10.428,389.58s3.285,7.283,6.331,9.406C16.759,398.986,11.94,396.848,10.428,389.58Z" fill="#72b8ca"/>
        <path id="Path_176" data-name="Path 176" d="M30.209,411.317s7.827,1.516,10.109-3.161C40.318,408.156,39.15,413.612,30.209,411.317Z" fill="#72b8ca"/>
      </g>
    </g>
  </g>
</svg>
