<svg xmlns="http://www.w3.org/2000/svg" xmlns:xlink="http://www.w3.org/1999/xlink" width="1220" height="624" viewBox="0 0 1220 624">
  <defs>
    <clipPath id="clip-path">
      <rect id="Rectangle_112" data-name="Rectangle 112" width="1220" height="624" transform="translate(-1287 366)" fill="#fff" stroke="#707070" stroke-width="1"/>
    </clipPath>
  </defs>
  <g id="main-bg" transform="translate(1287 -366)" clip-path="url(#clip-path)">
    <g id="Group_2110" data-name="Group 2110" transform="translate(-98.035 99.682)">
      <g id="圖層_4" data-name="圖層 4">
        <g id="Group_2089" data-name="Group 2089">
          <g id="Group_2111" data-name="Group 2111">
            <g id="Group_2087" data-name="Group 2087">
              <g id="Group_2072" data-name="Group 2072">
                <rect id="Rectangle_103" data-name="Rectangle 103" width="1318.167" height="32.403" transform="matrix(0.866, -0.5, 0.5, 0.866, -1210.838, 848.162)" fill="#f5b862"/>
              </g>
              <g id="Group_2073" data-name="Group 2073">
                <rect id="Rectangle_104" data-name="Rectangle 104" width="32.403" height="587.653" transform="translate(-465.033 448.137) rotate(-60)" fill="#f5b862"/>
              </g>
              <g id="Group_2074" data-name="Group 2074">
                <rect id="Rectangle_105" data-name="Rectangle 105" width="32.403" height="587.653" transform="translate(-1220.996 294.647) rotate(-60)" fill="#f5b862"/>
              </g>
              <g id="Group_2078" data-name="Group 2078">
                <g id="Group_2076" data-name="Group 2076">
                  <path id="Path_4213" data-name="Path 4213" d="M-897.166,686.7l-.81-1.4,7.007-4.046.81,1.4Zm16.817-9.71-.81-1.4,7.007-4.044.81,1.4Zm16.817-9.709-.81-1.4,7.006-4.045.811,1.4Zm16.817-9.71-.81-1.4,7.007-4.044.81,1.4Zm16.816-9.708-.81-1.4,7.007-4.046.81,1.4Zm16.818-9.71-.81-1.4,7.006-4.044.811,1.4Zm16.816-9.709-.81-1.4,7.007-4.046.81,1.4Zm16.817-9.71-.81-1.4,7.007-4.045.81,1.4Zm16.817-9.708-.81-1.4,7.007-4.045.81,1.4Zm16.817-9.71-.81-1.4,7.007-4.044.81,1.4ZM-729,589.61l-.811-1.4,7.008-4.046.81,1.4Zm16.817-9.71-.81-1.4,7.007-4.044.81,1.4Zm16.816-9.709-.81-1.4,7.008-4.045.81,1.4Zm16.818-9.71-.81-1.4,7.006-4.044.81,1.4Zm16.816-9.708-.81-1.4,7.007-4.046.811,1.4Zm16.817-9.71-.81-1.4,7.007-4.044.81,1.4Zm16.817-9.709-.81-1.4,7.007-4.046.81,1.4Zm16.817-9.71-.81-1.4,7.007-4.046.81,1.4Zm16.817-9.708-.81-1.4,7.007-4.046.81,1.4Zm16.817-9.71-.81-1.4,7.006-4.045.81,1.4Zm16.817-9.708-.81-1.4,7.007-4.046.81,1.4Zm16.816-9.71-.81-1.4,7.007-4.046.81,1.4Zm16.818-9.709-.811-1.4,7.007-4.045.811,1.4Zm16.816-9.71-.81-1.4,7.007-4.045.81,1.4Zm16.817-9.708-.81-1.4,7.007-4.046.81,1.4Zm16.817-9.709-.81-1.4,7.006-4.046.811,1.4Zm16.817-9.709-.81-1.4,7.007-4.046.81,1.4Zm16.817-9.709-.811-1.4,7.007-4.046.81,1.4Zm16.817-9.709-.81-1.4,7.007-4.045.81,1.4Zm16.816-9.709-.81-1.4,7.008-4.046.81,1.4Zm16.818-9.71-.811-1.4,7.007-4.046.81,1.4Zm16.816-9.709-.81-1.4,7.007-4.046.81,1.4Zm16.817-9.709-.81-1.4,7.007-4.046.81,1.4Zm16.817-9.709-.81-1.4,7.007-4.045.81,1.4Zm16.817-9.709-.81-1.4,7.007-4.046.81,1.4Zm16.816-9.71-.81-1.4,7.008-4.046.81,1.4Zm16.818-9.709-.81-1.4,7.006-4.046.81,1.4Zm16.816-9.71-.81-1.4,7.008-4.045.81,1.4Zm16.817-9.708-.81-1.4,7.007-4.045.81,1.4Zm16.817-9.71-.81-1.4,7.007-4.045.811,1.4Z" transform="translate(130 -75)" fill="#fff"/>
                </g>
                <g id="Group_2077" data-name="Group 2077">
                  <rect id="Rectangle_107" data-name="Rectangle 107" width="4.05" height="1.621" transform="translate(-225.301 296.93) rotate(-29.992)" fill="#fff"/>
                </g>
              </g>
              <g id="Group_2082" data-name="Group 2082">
                <g id="Group_2079" data-name="Group 2079">
                  <rect id="Rectangle_108" data-name="Rectangle 108" width="1.62" height="4.045" transform="translate(-445.019 441.92) rotate(-60.006)" fill="#fff"/>
                </g>
                <g id="Group_2080" data-name="Group 2080">
                  <path id="Path_4214" data-name="Path 4214" d="M38.744,721.219l-7.161-4.134.81-1.4,7.161,4.134Zm-17.19-9.925L14.4,707.163l.81-1.4,7.155,4.131ZM4.381,701.381l-7.151-4.129.811-1.4,7.15,4.129Zm-17.163-9.912-7.147-4.127.81-1.4,7.148,4.126Zm-17.157-9.906-7.147-4.125.81-1.4,7.147,4.125Zm-17.154-9.9-7.145-4.125.81-1.4,7.145,4.124Zm-17.151-9.9-7.144-4.125.81-1.4,7.144,4.125Zm-17.149-9.9-7.145-4.125.81-1.4,7.145,4.124Zm-17.148-9.9-7.144-4.124.81-1.4,7.144,4.125Zm-17.147-9.9-7.143-4.125.81-1.4,7.143,4.122Zm-17.147-9.9-7.142-4.123.81-1.4,7.142,4.123Zm-17.145-9.9-7.143-4.124.81-1.4,7.143,4.125Zm-17.145-9.9-7.143-4.123.81-1.4,7.143,4.123Zm-17.145-9.9-7.143-4.125.81-1.4,7.143,4.125Zm-17.145-9.9-7.163-4.136.81-1.4,7.163,4.136Zm-17.171-9.913-7.137-4.119.81-1.4,7.137,4.12Zm-17.112-9.882-7.142-4.123.81-1.4,7.143,4.123Zm-17.144-9.9-7.143-4.124.81-1.4,7.143,4.125Zm-17.147-9.9-7.143-4.124.81-1.4,7.143,4.124Zm-17.145-9.9-7.143-4.125.81-1.4,7.143,4.124Zm-17.147-9.9-7.143-4.124.81-1.4,7.143,4.125Zm-17.147-9.9-7.144-4.125.81-1.4,7.144,4.125Zm-17.15-9.9-7.145-4.125.811-1.4,7.144,4.125Zm-17.15-9.9-7.146-4.125.81-1.4,7.146,4.125Zm-17.153-9.9-7.147-4.126.81-1.4,7.147,4.126Zm-17.157-9.906-7.148-4.128.81-1.4,7.148,4.128Zm-17.163-9.906-7.15-4.13.81-1.4,7.15,4.13Zm-17.171-9.914-7.156-4.133.81-1.4,7.157,4.135Z" fill="#fff"/>
                </g>
                <g id="Group_2081" data-name="Group 2081">
                  <rect id="Rectangle_109" data-name="Rectangle 109" width="1.619" height="4.044" transform="matrix(0.5, -0.866, 0.866, 0.5, 48.084, 726.611)" fill="#fff"/>
                </g>
              </g>
              <g id="Group_2086" data-name="Group 2086">
                <g id="Group_2083" data-name="Group 2083">
                  <rect id="Rectangle_110" data-name="Rectangle 110" width="1.62" height="4.043" transform="matrix(0.5, -0.866, 0.866, 0.5, -1213.3, 281.318)" fill="#fff"/>
                </g>
                <g id="Group_2084" data-name="Group 2084">
                  <path id="Path_4215" data-name="Path 4215" d="M-732.515,558.9l-7.1-4.1.81-1.4,7.1,4.1Zm-17.058-9.851-7.107-4.1.81-1.4,7.107,4.1Zm-17.058-9.848-7.1-4.1.81-1.4,7.1,4.1Zm-17.052-9.846-7.1-4.1.81-1.4,7.1,4.1Zm-17.048-9.843-7.1-4.1.81-1.4,7.1,4.1Zm-17.047-9.84-7.1-4.1.81-1.4,7.1,4.1Zm-17.042-9.839-7.1-4.1.81-1.4,7.1,4.1Zm-17.044-9.84-7.1-4.1.81-1.4,7.1,4.1Zm-17.041-9.84-7.1-4.1.81-1.4,7.1,4.1Zm-17.041-9.838-7.1-4.1.81-1.4,7.1,4.1Zm-17.04-9.838-7.1-4.1.81-1.4,7.1,4.1Zm-17.04-9.838-7.1-4.1.81-1.4,7.1,4.1Zm-17.039-9.838-7.1-4.1.81-1.4,7.1,4.1Zm-17.04-9.837-7.122-4.112.81-1.4,7.122,4.112Zm-17.073-9.859-7.1-4.1.81-1.4,7.1,4.1Zm-17.019-9.824-7.072-4.083.81-1.4,7.073,4.083Zm-17.014-9.824-7.1-4.1.81-1.4,7.1,4.1Zm-17.039-9.838-7.1-4.1.81-1.4,7.1,4.1Zm-17.04-9.838-7.1-4.1.81-1.4,7.1,4.1Zm-17.042-9.839-7.1-4.1.81-1.4,7.1,4.1Zm-17.041-9.838-7.1-4.1.81-1.4,7.1,4.1Zm-17.044-9.841-7.1-4.1.81-1.4,7.1,4.1Zm-17.045-9.84-7.1-4.1.81-1.4,7.1,4.1Zm-17.047-9.842-7.1-4.1.811-1.4,7.1,4.1Zm-17.051-9.844-7.1-4.1.81-1.4,7.1,4.1Zm-17.053-9.847-7.106-4.1.81-1.4,7.106,4.1Zm-17.063-9.85-7.11-4.1.81-1.4,7.11,4.105Zm-17.075-9.858-7.122-4.112.811-1.4,7.121,4.112Z" fill="#fff"/>
                </g>
                <g id="Group_2085" data-name="Group 2085">
                  <rect id="Rectangle_111" data-name="Rectangle 111" width="1.619" height="4.044" transform="translate(-723.196 564.279) rotate(-60)" fill="#fff"/>
                </g>
              </g>
              <path id="Path_4352" data-name="Path 4352" d="M-897.166,686.7l-.81-1.4,7.007-4.046.81,1.4Zm16.817-9.71-.81-1.4,7.007-4.044.81,1.4Zm16.817-9.709-.81-1.4,7.006-4.045.811,1.4Zm16.817-9.71-.81-1.4,7.007-4.044.81,1.4Zm16.816-9.708-.81-1.4,7.007-4.046.81,1.4Zm16.818-9.71-.81-1.4,7.006-4.044.811,1.4Zm16.816-9.709-.81-1.4,7.007-4.046.81,1.4Zm16.817-9.71-.81-1.4,7.007-4.045.81,1.4Zm16.817-9.708-.81-1.4,7.007-4.045.81,1.4Zm16.817-9.71-.81-1.4,7.007-4.044.81,1.4ZM-729,589.61l-.811-1.4,7.008-4.046.81,1.4Zm16.817-9.71-.81-1.4,7.007-4.044.81,1.4Zm16.816-9.709-.81-1.4,7.008-4.045.81,1.4Zm16.818-9.71-.81-1.4,7.006-4.044.81,1.4Zm16.816-9.708-.81-1.4,7.007-4.046.811,1.4Zm16.817-9.71-.81-1.4,7.007-4.044.81,1.4Zm16.817-9.709-.81-1.4,7.007-4.046.81,1.4Zm16.817-9.71-.81-1.4,7.007-4.046.81,1.4Zm16.817-9.708-.81-1.4,7.007-4.046.81,1.4Zm16.817-9.71-.81-1.4,7.006-4.045.81,1.4Zm16.817-9.708-.81-1.4,7.007-4.046.81,1.4Zm16.816-9.71-.81-1.4,7.007-4.046.81,1.4Zm16.818-9.709-.811-1.4,7.007-4.045.811,1.4Zm16.816-9.71-.81-1.4,7.007-4.045.81,1.4Zm16.817-9.708-.81-1.4,7.007-4.046.81,1.4Zm16.817-9.709-.81-1.4,7.006-4.046.811,1.4Zm16.817-9.709-.81-1.4,7.007-4.046.81,1.4Zm16.817-9.709-.811-1.4,7.007-4.046.81,1.4Zm16.817-9.709-.81-1.4,7.007-4.045.81,1.4Zm16.816-9.709-.81-1.4,7.008-4.046.81,1.4Zm16.818-9.71-.811-1.4,7.007-4.046.81,1.4Zm16.816-9.709-.81-1.4,7.007-4.046.81,1.4Zm16.817-9.709-.81-1.4,7.007-4.046.81,1.4Zm16.817-9.709-.81-1.4,7.007-4.045.81,1.4Zm16.817-9.709-.81-1.4,7.007-4.046.81,1.4Zm16.816-9.71-.81-1.4,7.008-4.046.81,1.4Zm16.818-9.709-.81-1.4,7.006-4.046.81,1.4Zm16.816-9.71-.81-1.4,7.008-4.045.81,1.4Zm16.817-9.708-.81-1.4,7.007-4.045.81,1.4Zm16.817-9.71-.81-1.4,7.007-4.045.811,1.4Z" transform="translate(-543 314)" fill="#fff"/>
            </g>
          </g>
        </g>
        <g id="Group_2104" data-name="Group 2104" transform="translate(256 -150)">
          <path id="Path_4216" data-name="Path 4216" d="M-732.638,575.368l28.627-16.528v-1.53l-28.627,16.527Z" fill="#1d1b19"/>
          <path id="Path_4217" data-name="Path 4217" d="M-736.86,583.232l31.205-18.016V559.79l-31.205,18.017Z" fill="#797776"/>
          <path id="Path_4218" data-name="Path 4218" d="M-755.321,573.822l2.164-1.25v-1.928l-2.164,1.248Z" fill="#ef7b34"/>
          <path id="Path_4219" data-name="Path 4219" d="M-755.782,594.6l2.325-1.342v-5.979l-2.325,1.343Z" fill="#151413" opacity="0.2"/>
          <path id="Path_4220" data-name="Path 4220" d="M-718.111,572.406v.313l.727-.42v-.312a11.3,11.3,0,0,1,4.96-8.289c.381-.221-10.6,6.121-10.192,5.884C-718.643,567.568-718.111,572.406-718.111,572.406Z" fill="#312d2c"/>
          <path id="Path_4221" data-name="Path 4221" d="M-719.135,568.974c-1-.63-2.348-.516-3.8.325a10.709,10.709,0,0,0-3.8,4.065,10.36,10.36,0,0,0-1.448,5.327l.726-.459a8.93,8.93,0,0,1,1.248-4.593,9.233,9.233,0,0,1,3.276-3.5,3.131,3.131,0,0,1,3.275-.28,3.367,3.367,0,0,1,1.248,3.152l.726-.381C-717.618,570.908-718.132,569.61-719.135,568.974Z" fill="#565251"/>
          <path id="Path_4222" data-name="Path 4222" d="M-708.623,562.905c-1-.63-2.348-.516-3.8.324a10.709,10.709,0,0,0-3.8,4.065,10.375,10.375,0,0,0-1.448,5.328l.726-.458a8.929,8.929,0,0,1,1.248-4.594,9.226,9.226,0,0,1,3.276-3.5,3.126,3.126,0,0,1,3.275-.279,3.362,3.362,0,0,1,1.248,3.151l.726-.379C-707.106,564.838-707.62,563.54-708.623,562.905Z" fill="#565251"/>
          <path id="Path_4223" data-name="Path 4223" d="M-756.1,595.149l2.325-1.342v-6.069l-2.325,1.343Z" fill="#f0a92d"/>
          <path id="Path_4224" data-name="Path 4224" d="M-722.936,570.561a8.868,8.868,0,0,0-4.012,6.947c0,2.557,1.8,3.594,4.012,2.315a8.867,8.867,0,0,0,4.011-6.946C-718.925,570.319-720.722,569.282-722.936,570.561Z" fill="#393534"/>
          <path id="Path_4225" data-name="Path 4225" d="M-722.936,572.654a4.862,4.862,0,0,0-2.2,3.807c0,1.4.985,1.971,2.2,1.269a4.856,4.856,0,0,0,2.2-3.807C-720.738,572.522-721.723,571.953-722.936,572.654Z" fill="#aeaeae"/>
          <path id="Path_4226" data-name="Path 4226" d="M-722.936,574.7a.95.95,0,0,0-.432.745c0,.275.194.387.432.25a.96.96,0,0,0,.431-.747C-722.505,574.67-722.7,574.559-722.936,574.7Z" fill="#dcdcdc"/>
          <path id="Path_4227" data-name="Path 4227" d="M-712.424,564.493a8.865,8.865,0,0,0-4.012,6.947c0,2.557,1.8,3.594,4.012,2.314a8.866,8.866,0,0,0,4.011-6.945C-708.413,564.252-710.21,563.215-712.424,564.493Z" fill="#393534"/>
          <path id="Path_4228" data-name="Path 4228" d="M-712.424,566.585a4.861,4.861,0,0,0-2.2,3.809c0,1.4.985,1.968,2.2,1.268a4.861,4.861,0,0,0,2.2-3.808C-710.226,566.453-711.211,565.885-712.424,566.585Z" fill="#aeaeae"/>
          <path id="Path_4229" data-name="Path 4229" d="M-712.424,568.626a.952.952,0,0,0-.432.747c0,.274.194.385.432.248a.954.954,0,0,0,.431-.746C-711.993,568.6-712.187,568.489-712.424,568.626Z" fill="#dcdcdc"/>
          <path id="Path_4230" data-name="Path 4230" d="M-736.86,577.806l1.437-.831V565.888l-1.437-.624Z" fill="#565251"/>
          <path id="Path_4231" data-name="Path 4231" d="M-735.423,577.058l.738-.427V568.5l-.738.427Z" fill="#797776"/>
          <path id="Path_4232" data-name="Path 4232" d="M-705.654,564.718l.616-.355v-4.134l-.616.357Z" fill="#ac2d22"/>
          <path id="Path_4233" data-name="Path 4233" d="M-716.85,584.484l28.627-16.528v-1.53l-28.627,16.527Z" fill="#1d1b19"/>
          <path id="Path_4234" data-name="Path 4234" d="M-689.866,573.833l.614-.355v-4.134l-.614.355Z" fill="#ac2d22"/>
          <path id="Path_4235" data-name="Path 4235" d="M-721.073,592.346l31.207-18.016V568.9l-31.207,18.017Z" fill="#797776"/>
          <g id="Group_2090" data-name="Group 2090">
            <path id="Path_4236" data-name="Path 4236" d="M-704.179,577.729l0,0h0a2.732,2.732,0,0,0-2.726.281,8.581,8.581,0,0,0-3.882,6.722,2.719,2.719,0,0,0,1.152,2.521l3.031,1.736V586.78a8.646,8.646,0,0,0,3.58-6.531c0-.05-.005-.1-.007-.142h1.308l.8-.511-3.223-1.851Z" fill="#262221"/>
            <path id="Path_4237" data-name="Path 4237" d="M-703.765,579.809a8.579,8.579,0,0,0-3.881,6.722c0,2.476,1.738,3.479,3.881,2.24a8.574,8.574,0,0,0,3.882-6.722C-699.883,579.574-701.62,578.57-703.765,579.809Z" fill="#393534"/>
            <path id="Path_4238" data-name="Path 4238" d="M-703.765,581.834a4.705,4.705,0,0,0-2.127,3.685c0,1.356.954,1.906,2.127,1.227a4.7,4.7,0,0,0,2.129-3.685C-701.636,581.705-702.589,581.155-703.765,581.834Z" fill="#aeaeae"/>
            <path id="Path_4239" data-name="Path 4239" d="M-703.765,583.808a.925.925,0,0,0-.416.722c0,.266.187.374.416.241a.919.919,0,0,0,.418-.721C-703.347,583.784-703.534,583.676-703.765,583.808Z" fill="#dcdcdc"/>
          </g>
          <g id="Group_2091" data-name="Group 2091">
            <path id="Path_4240" data-name="Path 4240" d="M-692.448,570.956h0a2.733,2.733,0,0,0-2.725.28,8.579,8.579,0,0,0-3.882,6.723,2.713,2.713,0,0,0,1.152,2.52l3.031,1.737v-2.208a8.652,8.652,0,0,0,3.58-6.53c0-.05-.005-.095-.007-.142h1.308l.8-.511-3.223-1.852Z" fill="#262221"/>
            <ellipse id="Ellipse_59" data-name="Ellipse 59" cx="5.489" cy="3.169" rx="5.489" ry="3.169" transform="matrix(0.5, -0.866, 0.866, 0.5, -697.523, 580.686)" fill="#393534"/>
            <path id="Path_4241" data-name="Path 4241" d="M-692.034,575.062a4.7,4.7,0,0,0-2.127,3.684c0,1.356.952,1.906,2.127,1.227a4.7,4.7,0,0,0,2.127-3.684C-689.907,574.933-690.858,574.383-692.034,575.062Z" fill="#aeaeae"/>
            <path id="Path_4242" data-name="Path 4242" d="M-692.034,577.035a.924.924,0,0,0-.416.723c0,.266.186.374.416.24a.917.917,0,0,0,.418-.721C-691.616,577.011-691.8,576.9-692.034,577.035Z" fill="#dcdcdc"/>
          </g>
          <g id="Group_2092" data-name="Group 2092">
            <path id="Path_4243" data-name="Path 4243" d="M-694.407,570.124a10.721,10.721,0,0,0-3.8,4.067,10.384,10.384,0,0,0-1.45,5.326l2.974,1.742a11.829,11.829,0,0,1,1.57-5.225,8.335,8.335,0,0,1,3.059-3.352c1.255-.724,1.448-.649,1.448-.649l3.169-.353c-.19-.183-2.98-1.759-3.169-1.878C-691.6,569.17-692.953,569.286-694.407,570.124Z" fill="#c46527"/>
            <path id="Path_4244" data-name="Path 4244" d="M-690.607,572.033l1.39.731a2.59,2.59,0,0,1,1.027,2.048l1.279.764.231-.722c.056-1.4.068-2.379-.758-3.174Z" fill="#c46527"/>
            <path id="Path_4245" data-name="Path 4245" d="M-687.633,571.543c-1-.632-2.346-.516-3.8.323a10.718,10.718,0,0,0-3.8,4.066,10.358,10.358,0,0,0-1.449,5.327l.726-.458a8.946,8.946,0,0,1,1.249-4.593,9.224,9.224,0,0,1,3.275-3.5,3.129,3.129,0,0,1,3.275-.281,3.371,3.371,0,0,1,1.248,3.151l.728-.379C-686.116,573.475-686.63,572.178-687.633,571.543Z" fill="#ef7b34"/>
          </g>
          <g id="Group_2093" data-name="Group 2093">
            <path id="Path_4246" data-name="Path 4246" d="M-706.112,576.913a10.717,10.717,0,0,0-3.8,4.065,10.366,10.366,0,0,0-1.448,5.328l2.974,1.741a11.837,11.837,0,0,1,1.57-5.226,8.317,8.317,0,0,1,3.059-3.351c1.253-.724,1.448-.648,1.448-.648l3.169-.355c-.19-.184-2.98-1.759-3.169-1.878C-703.308,575.958-704.658,576.073-706.112,576.913Z" fill="#c46527"/>
            <path id="Path_4247" data-name="Path 4247" d="M-702.312,578.822l1.389.731A2.582,2.582,0,0,1-699.9,581.6l1.28.765.231-.724c.054-1.4.067-2.377-.758-3.174Z" fill="#c46527"/>
            <path id="Path_4248" data-name="Path 4248" d="M-699.338,578.33c-1-.63-2.348-.516-3.8.324a10.72,10.72,0,0,0-3.8,4.065,10.362,10.362,0,0,0-1.448,5.328l.725-.459a8.941,8.941,0,0,1,1.249-4.593,9.23,9.23,0,0,1,3.274-3.5,3.132,3.132,0,0,1,3.277-.279,3.365,3.365,0,0,1,1.248,3.151l.726-.379C-697.821,580.264-698.335,578.966-699.338,578.33Z" fill="#ef7b34"/>
          </g>
          <path id="Path_4249" data-name="Path 4249" d="M-739.994,598.024l.922-.534v-9.665l-.922,1.825Z" fill="#7e7c7c"/>
          <path id="Path_4250" data-name="Path 4250" d="M-755.95,584.532l.2-.114v-.924l-.2.116Z" fill="#625e5d"/>
          <path id="Path_4251" data-name="Path 4251" d="M-755.95,586.378l.2-.116v-.922l-.2.114Z" fill="#625e5d"/>
          <path id="Path_4252" data-name="Path 4252" d="M-755.95,588.225l.2-.116v-.922l-.2.115Z" fill="#625e5d"/>
          <g id="Group_2094" data-name="Group 2094">
            <path id="Path_4253" data-name="Path 4253" d="M-714.043,584.463a1.693,1.693,0,0,0-1.782-.141h0l-9.8,5.679,3.288,6.107,10.007-5.791.042-.024.033-.018,0,0a1.759,1.759,0,0,0,.669-1.555A5.43,5.43,0,0,0-714.043,584.463Z" fill="#bcbbbb"/>
            <path id="Path_4254" data-name="Path 4254" d="M-724.031,590.242c-1.356-.784-2.455-.148-2.455,1.417a5.431,5.431,0,0,0,2.455,4.254c1.357.784,2.456.148,2.456-1.417A5.423,5.423,0,0,0-724.031,590.242Z" fill="#969595"/>
            <path id="Path_4255" data-name="Path 4255" d="M-721.541,588.8a1.725,1.725,0,0,0-1.737-.172l-.251.148a1.728,1.728,0,0,1,1.737.173,5.424,5.424,0,0,1,2.455,4.253,1.7,1.7,0,0,1-.769,1.618l.252-.15a1.691,1.691,0,0,0,.769-1.616A5.427,5.427,0,0,0-721.541,588.8Z" fill="#6c6967"/>
            <path id="Path_4256" data-name="Path 4256" d="M-718.656,587.128a1.725,1.725,0,0,0-1.737-.172l-.251.148a1.725,1.725,0,0,1,1.736.172,5.427,5.427,0,0,1,2.456,4.253,1.7,1.7,0,0,1-.771,1.617l.252-.148a1.7,1.7,0,0,0,.771-1.618A5.425,5.425,0,0,0-718.656,587.128Z" fill="#6c6967"/>
            <path id="Path_4257" data-name="Path 4257" d="M-716.176,585.69a1.727,1.727,0,0,0-1.737-.173l-.251.148a1.726,1.726,0,0,1,1.736.173,5.429,5.429,0,0,1,2.456,4.254,1.694,1.694,0,0,1-.769,1.617l.252-.148a1.7,1.7,0,0,0,.769-1.618A5.428,5.428,0,0,0-716.176,585.69Z" fill="#6c6967"/>
          </g>
          <g id="Group_2096" data-name="Group 2096">
            <path id="Path_4258" data-name="Path 4258" d="M-720.9,565.234l5.773,4.87,17.628-10.3-6.968-4.023Z" fill="#8e4524"/>
            <path id="Path_4259" data-name="Path 4259" d="M-735.079,555.176v16.839l29.367-16.943,4.533-7.876,1.243-10.87-1.243-.711Z" fill="#ee742d"/>
            <path id="Path_4260" data-name="Path 4260" d="M-733.836,572.725l29.367-16.943,4.533-7.876V536.328l-33.9,19.56Z" fill="#c35921"/>
            <path id="Path_4261" data-name="Path 4261" d="M-704.469,555.783l8.948,5.166,4.483-6.618-10.235-5.908Z" fill="#ad5624"/>
            <g id="Group_2095" data-name="Group 2095">
              <path id="Path_4262" data-name="Path 4262" d="M-701.273,538.15l18.071,10.422,1.085-.627-18.07-10.422Z" fill="#f1843d"/>
              <path id="Path_4263" data-name="Path 4263" d="M-701.273,548.423l18.071,10.422V548.572l-18.071-10.422Z" fill="#a44e24"/>
            </g>
            <path id="Path_4264" data-name="Path 4264" d="M-734.51,553.87v1.014l1.216.7v16.822l.374.219,1.483-1.292.374-17.642-1.592-.895Z" fill="#a44e24"/>
            <path id="Path_4265" data-name="Path 4265" d="M-732.92,572.627l1.858-1.072V553.693l-1.858,1.072Z" fill="#eb6720"/>
            <path id="Path_4266" data-name="Path 4266" d="M-708.446,538.821v1.014l1.217.7V557.36l.374.218,1.484-1.29.374-17.644-1.591-.895Z" fill="#a44e24"/>
            <path id="Path_4267" data-name="Path 4267" d="M-706.854,557.577l1.858-1.072V538.643l-1.858,1.072Z" fill="#eb6720"/>
            <path id="Path_4268" data-name="Path 4268" d="M-706.854,557.577l11.737,6.71v-.431l-11.737-6.71Z" fill="#a44e24"/>
            <path id="Path_4269" data-name="Path 4269" d="M-706.854,557.147l11.737,6.71,1.85-1.063L-705,556.084Z" fill="#e9732c"/>
            <path id="Path_4270" data-name="Path 4270" d="M-714.9,542.549v1.014l1.217.7v16.822l.374.219,1.482-1.292.376-17.642-1.592-.9Z" fill="#a44e24"/>
            <path id="Path_4271" data-name="Path 4271" d="M-713.312,561.307l1.858-1.073V542.373l-1.858,1.071Z" fill="#eb6720"/>
            <path id="Path_4272" data-name="Path 4272" d="M-713.333,561.3l11.736,6.71v-.431l-11.736-6.71Z" fill="#a44e24"/>
            <path id="Path_4273" data-name="Path 4273" d="M-713.333,560.868l11.736,6.71,1.85-1.063-11.736-6.71Z" fill="#e9732c"/>
            <path id="Path_4274" data-name="Path 4274" d="M-721.362,546.279v1.014l1.216.7v16.822l.376.219,1.482-1.292.374-17.642-1.59-.895Z" fill="#a44e24"/>
            <path id="Path_4275" data-name="Path 4275" d="M-719.77,565.035l1.856-1.072V546.1l-1.856,1.072Z" fill="#eb6720"/>
            <path id="Path_4276" data-name="Path 4276" d="M-719.8,564.969l11.737,6.71v-.429l-11.737-6.711Z" fill="#a44e24"/>
            <path id="Path_4277" data-name="Path 4277" d="M-719.8,564.539l11.737,6.711,1.85-1.062-11.737-6.71Z" fill="#e9732c"/>
            <path id="Path_4278" data-name="Path 4278" d="M-727.82,550.007v1.014l1.216.7v16.822l.374.218,1.483-1.29.374-17.644-1.59-.895Z" fill="#a44e24"/>
            <path id="Path_4279" data-name="Path 4279" d="M-726.23,568.763l1.858-1.072V549.829l-1.858,1.072Z" fill="#eb6720"/>
            <path id="Path_4280" data-name="Path 4280" d="M-715.7,566.359V583.2l29.367-16.943,4.533-7.876,1.243-10.87-1.243-.709Z" fill="#ee742d"/>
            <path id="Path_4281" data-name="Path 4281" d="M-714.456,583.908l29.367-16.943,4.533-7.875V547.509l-33.9,19.56Z" fill="#c35921"/>
            <path id="Path_4282" data-name="Path 4282" d="M-715.13,565.051v1.014l1.216.7V583.59l.376.218,1.482-1.29.374-17.644-1.59-.895Z" fill="#a44e24"/>
            <path id="Path_4283" data-name="Path 4283" d="M-713.538,583.808l1.856-1.072V564.874l-1.856,1.072Z" fill="#eb6720"/>
            <path id="Path_4284" data-name="Path 4284" d="M-689.063,550v1.014l1.216.7v16.822l.374.219,1.484-1.292.374-17.642-1.59-.9Z" fill="#a44e24"/>
            <path id="Path_4285" data-name="Path 4285" d="M-687.474,568.76l1.858-1.072V549.826l-1.858,1.073Z" fill="#eb6720"/>
            <path id="Path_4286" data-name="Path 4286" d="M-695.521,553.732v1.014l1.216.7v16.822l.374.219,1.483-1.292.374-17.642-1.592-.895Z" fill="#a44e24"/>
            <path id="Path_4287" data-name="Path 4287" d="M-693.932,572.488l1.858-1.072V553.554l-1.858,1.072Z" fill="#eb6720"/>
            <path id="Path_4288" data-name="Path 4288" d="M-701.981,557.46v1.014l1.217.7V576l.374.218,1.483-1.29.374-17.644-1.592-.895Z" fill="#a44e24"/>
            <path id="Path_4289" data-name="Path 4289" d="M-700.39,576.216l1.858-1.072V557.282l-1.858,1.072Z" fill="#eb6720"/>
            <path id="Path_4290" data-name="Path 4290" d="M-708.439,561.188V562.2l1.217.7v16.822l.374.219,1.482-1.292.376-17.642-1.591-.9Z" fill="#a44e24"/>
            <path id="Path_4291" data-name="Path 4291" d="M-706.848,579.946l1.858-1.072V561.012l-1.858,1.072Z" fill="#eb6720"/>
            <path id="Path_4292" data-name="Path 4292" d="M-737.232,556.42l20.625,11.892,2.151-1.243-20.624-11.892Z" fill="#f1843d"/>
            <path id="Path_4293" data-name="Path 4293" d="M-716.607,585.149l2.151-1.242V567.068l-2.151,1.243Z" fill="#c35921"/>
            <path id="Path_4294" data-name="Path 4294" d="M-737.232,573.257l20.625,11.892V568.312l-20.625-11.892Z" fill="#a44e24"/>
          </g>
          <g id="Group_2097" data-name="Group 2097">
            <path id="Path_4295" data-name="Path 4295" d="M-730.434,592.888v0h0a2.737,2.737,0,0,0-2.727.281,8.574,8.574,0,0,0-3.882,6.721,2.715,2.715,0,0,0,1.152,2.52l3.031,1.738v-2.209a8.642,8.642,0,0,0,3.58-6.53c0-.049-.005-.094-.006-.142h1.307l.8-.511-3.224-1.85A.27.27,0,0,0-730.434,592.888Z" fill="#262221"/>
            <path id="Path_4296" data-name="Path 4296" d="M-730.019,594.966a8.584,8.584,0,0,0-3.882,6.723c0,2.475,1.739,3.478,3.882,2.241a8.577,8.577,0,0,0,3.881-6.722C-726.138,594.733-727.875,593.73-730.019,594.966Z" fill="#393534"/>
            <path id="Path_4297" data-name="Path 4297" d="M-730.019,596.992a4.705,4.705,0,0,0-2.127,3.684c0,1.356.953,1.906,2.127,1.229a4.7,4.7,0,0,0,2.128-3.685C-727.891,596.864-728.844,596.313-730.019,596.992Z" fill="#aeaeae"/>
            <path id="Path_4298" data-name="Path 4298" d="M-730.019,598.967a.917.917,0,0,0-.416.723c0,.266.185.372.416.24a.925.925,0,0,0,.417-.723C-729.6,598.941-729.789,598.835-730.019,598.967Z" fill="#dcdcdc"/>
          </g>
          <g id="Group_2103" data-name="Group 2103">
            <path id="Path_4299" data-name="Path 4299" d="M-756.1,595.149l16.892,9.723v-.419L-756.1,594.436Z" fill="#3f301a"/>
            <path id="Path_4300" data-name="Path 4300" d="M-758.177,588.673l18.707,10.913.266-.155-18.705-10.913Z" fill="#a17328"/>
            <path id="Path_4301" data-name="Path 4301" d="M-737.967,588.433l9.778-5.645V577.11l-9.211,5.318Z" fill="#4778bb"/>
            <path id="Path_4302" data-name="Path 4302" d="M-736.9,578.679l-1.065,1.843v7.911l-.923,1.825v14.069l1.988-1.148,1.752-1.011a5.659,5.659,0,0,1-.033-.61,10.242,10.242,0,0,1,4.632-8.024c1.539-.89,2.9-.807,3.745.041l6.839-3.949V570.131l-1.064-.615Zm8.4,4.286-8.5,4.924.279-5.315,8.222-4.763Z" fill="#f0a92d"/>
            <path id="Path_4303" data-name="Path 4303" d="M-738.89,604.327l2.325-1.343v-5.978l-2.325,1.342Z" fill="#151413" opacity="0.2"/>
            <path id="Path_4304" data-name="Path 4304" d="M-730.551,593.17a10.706,10.706,0,0,0-3.8,4.067,10.351,10.351,0,0,0-1.448,5.326l1.151.685a11.811,11.811,0,0,1,1.571-5.224,8.317,8.317,0,0,1,3.059-3.353c1.254-.724,1.448-.648,1.448-.648l3.168-.353a15.383,15.383,0,0,0-1.346-.822C-727.746,592.215-729.1,592.33-730.551,593.17Z" fill="#c46527"/>
            <path id="Path_4305" data-name="Path 4305" d="M-728.571,594.023l1.39.731a2.583,2.583,0,0,1,1.025,2.048l1.281.764.23-.723c.057-1.4.068-2.378-.758-3.173Z" fill="#c46527"/>
            <path id="Path_4306" data-name="Path 4306" d="M-725.6,593.533c-1-.632-2.346-.518-3.8.322a10.738,10.738,0,0,0-3.8,4.067,10.363,10.363,0,0,0-1.448,5.326l.726-.458a8.926,8.926,0,0,1,1.249-4.592,9.218,9.218,0,0,1,3.275-3.5,3.127,3.127,0,0,1,3.275-.281,3.369,3.369,0,0,1,1.249,3.151l.725-.379C-724.081,595.465-724.595,594.167-725.6,593.533Z" fill="#ef7b34"/>
            <path id="Path_4307" data-name="Path 4307" d="M-739.2,604.872l2.325-1.342v-6.069L-739.2,598.8Z" fill="#f0a92d"/>
            <path id="Path_4308" data-name="Path 4308" d="M-739.47,604.606l.266-.153v-5.021l-.266.155Z" fill="#815e28"/>
            <path id="Path_4309" data-name="Path 4309" d="M-736.273,581.5l8.4-4.852v12.223l-8.382,4.838V587.6l-.29.168v6.447l8.962-5.173v-12.9l-8.695,5.021Z" fill="#b07e26"/>
            <path id="Path_4310" data-name="Path 4310" d="M-727.868,576.315v12.9l6.661-3.846V573.61l-.989-.57Zm6.371,8.881-6.081,3.509V576.484l5.263-3.04.818.473Z" fill="#b07e26"/>
            <path id="Path_4311" data-name="Path 4311" d="M-726.494,576.655l-.4.7v4.219c.158.09.247.141.4.233l3.841-2.217.4-.7v-4.219c-.158-.09-.246-.141-.4-.233Z" fill="#d59727"/>
            <path id="Path_4312" data-name="Path 4312" d="M-727.868,591.438h.08a3.106,3.106,0,0,1,2.24,1.119l.042.054,4.3-2.493v-5.089l-6.661,3.845Zm.29-2.4,6.081-3.51v4.42l-3.849,2.23a3.211,3.211,0,0,0-2.232-1.116Z" fill="#b07e26"/>
            <path id="Path_4313" data-name="Path 4313" d="M-736.54,602.523l.29-.168c0-3.859,2.444-8.293,5.565-10.094a5.667,5.667,0,0,1,2.9-.823l.211,0v-2.737l-8.962,5.175Zm.29-8.476,8.382-4.837v1.856a6.007,6.007,0,0,0-2.817.859,13.1,13.1,0,0,0-5.565,8.137Z" fill="#b07e26"/>
            <path id="Path_4314" data-name="Path 4314" d="M-729.2,584.812l-.783.452a.675.675,0,0,0-.3.53v.007c0,.195.135.274.3.177l.783-.453A.672.672,0,0,0-728.9,585v-.008C-728.9,584.795-729.034,584.716-729.2,584.812Z" fill="#b07e26"/>
            <path id="Path_4315" data-name="Path 4315" d="M-719.967,587.528l1.437-.829V575.612l-1.437-.626Z" fill="#403c3b"/>
            <path id="Path_4316" data-name="Path 4316" d="M-718.53,586.78l.739-.426v-8.13l-.739.426Z" fill="#797776"/>
            <g id="Group_2098" data-name="Group 2098">
              <path id="Path_4317" data-name="Path 4317" d="M-757.751,587.631l18.862,11v-8.374l-18.862-11.042Z" fill="#b2b1b1"/>
              <path id="Path_4318" data-name="Path 4318" d="M-757.443,587.512l18.047,10.531v-7.682l-18.047-10.573Z" fill="#969595"/>
              <path id="Path_4319" data-name="Path 4319" d="M-739.09,592.422l.2-.114v-.924l-.2.116Z" fill="#625e5d"/>
              <path id="Path_4320" data-name="Path 4320" d="M-739.09,594.268l.2-.115v-.924l-.2.116Z" fill="#625e5d"/>
              <path id="Path_4321" data-name="Path 4321" d="M-739.09,596.115l.2-.116v-.922l-.2.115Z" fill="#625e5d"/>
              <path id="Path_4322" data-name="Path 4322" d="M-739.09,597.961l.2-.116v-.922l-.2.114Z" fill="#625e5d"/>
              <path id="Path_4323" data-name="Path 4323" d="M-757.95,581.391l18.86,11.031V591.5l-18.86-11.033Z" fill="#514c4b"/>
              <path id="Path_4324" data-name="Path 4324" d="M-757.95,580.467l18.86,11.033.2-.116-18.862-11.031Z" fill="#7e7c7c"/>
              <path id="Path_4325" data-name="Path 4325" d="M-757.95,583.237l18.86,11.031v-.922l-18.86-11.033Z" fill="#514c4b"/>
              <path id="Path_4326" data-name="Path 4326" d="M-757.95,582.313l18.86,11.033.2-.116L-757.751,582.2Z" fill="#7e7c7c"/>
              <path id="Path_4327" data-name="Path 4327" d="M-757.95,585.082l18.86,11.033v-.924l-18.86-11.031Z" fill="#514c4b"/>
              <path id="Path_4328" data-name="Path 4328" d="M-757.95,584.159l18.86,11.031.2-.115-18.862-11.033Z" fill="#7e7c7c"/>
              <path id="Path_4329" data-name="Path 4329" d="M-757.95,586.928l18.86,11.033v-.924l-18.86-11.031Z" fill="#514c4b"/>
              <path id="Path_4330" data-name="Path 4330" d="M-757.95,586.006l18.86,11.031.2-.114-18.862-11.033Z" fill="#7e7c7c"/>
              <path id="Path_4331" data-name="Path 4331" d="M-757.751,579.216l18.862,11.042.922-1.825-18.86-11.044Z" fill="#9c9c9b"/>
            </g>
            <path id="Path_4332" data-name="Path 4332" d="M-758.177,593.693l18.707,10.913v-5.02l-18.707-10.913Z" fill="#644a23"/>
            <path id="Path_4333" data-name="Path 4333" d="M-752.29,595.331l6.24,3.6v-1.487l-6.24-3.6Z" fill="#fff"/>
            <g id="Group_2099" data-name="Group 2099">
              <path id="Path_4334" data-name="Path 4334" d="M-757.606,592.835l4.149,2.391V592.44l-4.149-2.393Z" fill="#2d2415"/>
              <path id="Path_4335" data-name="Path 4335" d="M-757.213,592.79l3.212,1.853v-2.157l-3.212-1.853Z" fill="#fcc758"/>
            </g>
            <g id="Group_2100" data-name="Group 2100">
              <path id="Path_4336" data-name="Path 4336" d="M-744.49,600.409l4.149,2.393v-2.786l-4.149-2.393Z" fill="#2d2415"/>
              <path id="Path_4337" data-name="Path 4337" d="M-744.1,600.365l3.212,1.853v-2.159l-3.212-1.853Z" fill="#fcc758"/>
            </g>
            <path id="Path_4338" data-name="Path 4338" d="M-757.909,588.518l18.705,10.913V598.8l-18.705-10.913Z" fill="#ca922c"/>
            <path id="Path_4339" data-name="Path 4339" d="M-757.909,587.889-739.2,598.8l.315-.171-18.873-11Z" fill="#fbbd49"/>
            <path id="Path_4340" data-name="Path 4340" d="M-756.673,569.608l18.705,10.913,1.066-1.843-18.705-10.913Z" fill="#f9ad4b"/>
            <path id="Path_4341" data-name="Path 4341" d="M-755.607,567.765l18.705,10.913,15.87-9.162L-739.736,558.6Z" fill="#fbca5b"/>
            <path id="Path_4342" data-name="Path 4342" d="M-756.673,570.967l18.705,10.988v-1.433l-18.705-10.913Z" fill="#c58a3c"/>
            <path id="Path_4343" data-name="Path 4343" d="M-756.827,577.388l18.86,11.044.516-5.452L-756.1,572.506Z" fill="#355da6"/>
            <g id="Group_2101" data-name="Group 2101">
              <path id="Path_4344" data-name="Path 4344" d="M-741.613,586.3l1.169.676.045-.3-.94-.537Z" fill="#151413"/>
              <path id="Path_4345" data-name="Path 4345" d="M-743.05,584.829v0l1.071.835.106-.134-1.177-.882-3.441-2.575-.045.039,2.077,1.619h-.037v.021l-1.273-.985-.047.038,2.514,2.026,1.985,1.6.108-.132-1.894-1.469Zm-.252-.183v.029l-1.057-.819v-.05l1.077.84Z" fill="#2f2b2a"/>
            </g>
            <g id="Group_2102" data-name="Group 2102">
              <path id="Path_4346" data-name="Path 4346" d="M-750.4,581.184l1.169.676.045-.293-.942-.539Z" fill="#151413"/>
              <path id="Path_4347" data-name="Path 4347" d="M-751.833,579.715h0l1.069.834.106-.134-1.175-.882-3.441-2.575-.047.039,2.078,1.619h-.038v.021l-1.271-.986-.047.039,2.513,2.025,1.984,1.6.11-.133-1.9-1.469Zm-.253-.182v.029l-1.058-.819V578.7l1.078.838Z" fill="#2f2b2a"/>
            </g>
            <path id="Path_4348" data-name="Path 4348" d="M-738.429,583.545l2.164-1.25v-1.93l-2.164,1.25Z" fill="#ef7b34"/>
            <path id="Path_4349" data-name="Path 4349" d="M-757.134,572.632l18.705,10.913v-1.93L-757.134,570.7Z" fill="#c96728"/>
            <path id="Path_4350" data-name="Path 4350" d="M-757.134,570.7l18.705,10.913.461-.266-18.705-10.914Z" fill="#f18745"/>
            <path id="Path_4351" data-name="Path 4351" d="M-718.53,578.65l.739-.426-.739-.426Z" fill="#514c4b"/>
          </g>
        </g>
      </g>
    </g>
  </g>
</svg>
